<?xml version="1.0" encoding="UTF-8" standalone="no"?>
<!-- Created with Inkscape (http://www.inkscape.org/) -->

<svg
   version="1.1"
   id="svg1"
   width="128"
   height="128"
   viewBox="0 0 128 128"
   xmlns="http://www.w3.org/2000/svg"
   xmlns:svg="http://www.w3.org/2000/svg">
  <defs
     id="defs1" />
  <g
     id="g1">
    <g
       id="g9"
       transform="matrix(0.55237401,0,0,0.55237401,7.692678,7.3904648)">
      <path
         style="fill:#989898"
         d="m 93.269032,199.30701 c 0.972967,-0.25354 2.322967,-0.23687 3,0.0371 0.677032,0.27393 -0.119032,0.48137 -1.769032,0.46099 -1.65,-0.0204 -2.203936,-0.2445 -1.230968,-0.49804 z m 15.480968,0.0307 c 0.6875,-0.27741 1.8125,-0.27741 2.5,0 0.6875,0.27741 0.125,0.50439 -1.25,0.50439 -1.375,0 -1.9375,-0.22698 -1.25,-0.50439 z M 38.872445,176.25 C 37.628574,174.66394 37.663944,174.62857 39.25,175.87244 40.915748,177.17881 41.445479,178 40.622445,178 c -0.207656,0 -0.995156,-0.7875 -1.75,-1.75 z M 164,177.62244 c 0,-0.20765 0.7875,-0.99515 1.75,-1.75 1.58606,-1.24387 1.62143,-1.2085 0.37756,0.37756 C 164.82119,177.91575 164,178.44548 164,177.62244 Z M 66,152.19617 C 66,151.27575 72.282573,145 73.203988,145 c 0.334825,0 0.370579,0.91086 0.07945,2.02412 C 72.470937,150.13114 66,154.72622 66,152.19617 Z m -7,-2.04598 C 59,149.22945 63.347691,146 64.587261,146 c 1.033198,0 -1.723654,3.00263 -3.755017,4.08978 C 59.760484,150.66337 59,150.68844 59,150.15019 Z m 65.64088,-5.07068 c 0.61335,-4.05122 0.4283,-4.61262 -2.21528,-6.72053 -3.51752,-2.80477 -2.52058,-4.2683 3.45332,-5.06956 3.56719,-0.47847 4.11902,-0.29985 4.10577,1.32891 -0.008,1.03492 -0.42665,2.53182 -0.9294,3.32645 -0.62491,0.98772 -0.2439,2.41132 1.20437,4.5 l 2.11846,3.05522 -2.12604,-1.84796 c -2.32374,-2.01979 -4.24334,-1.49935 -4.26739,1.15698 -0.008,0.93004 -0.46481,2.36598 -1.0142,3.19098 -0.69745,1.04735 -0.79691,0.16604 -0.32961,-2.92049 z M 78.5,138.45735 c -9.824623,-4.025 -10.716291,-4.71139 -13.093199,-10.07892 -3.757052,-8.48418 -3.944722,-11.5237 -1.095741,-17.7467 3.479256,-7.59969 8.802989,-11.150861 15.447149,-10.30394 2.607985,0.33244 6.541791,1.15466 8.741791,1.82716 l 4,1.22272 -7,0.88177 c -4.504332,0.5674 -7.670825,1.53733 -8.881572,2.72052 -2.236965,2.18604 -4.740144,11.07106 -3.541935,12.57208 0.461893,0.57862 0.569109,2.08718 0.238258,3.35235 -0.330852,1.26518 -0.198253,2.59176 0.294663,2.94797 0.492916,0.3562 2.180437,2.54108 3.750048,4.85529 3.495767,5.15409 7.502283,6.6615 16.228683,6.10584 7.269175,-0.46287 10.659115,-2.42029 13.560415,-7.83007 1.01829,-1.89872 1.85758,-2.78424 1.86509,-1.96782 0.008,0.81642 0.25938,2.39894 0.55971,3.5167 0.66939,2.49138 -4.10587,5.43692 -13.678799,8.43754 C 87.762218,141.5189 85.83429,141.4621 78.5,138.45735 Z m 79.51488,-1.07874 c 0.0217,-1.28328 6.71029,-8.96827 7.29225,-8.37861 0.27141,0.275 -1.26166,2.47037 -3.40683,4.87861 -2.14516,2.40823 -3.89361,3.98323 -3.88542,3.5 z M 154.5,134 c 0.33992,-0.55 0.81648,-1 1.05902,-1 0.24254,0 0.44098,0.45 0.44098,1 0,0.55 -0.47656,1 -1.05902,1 -0.58246,0 -0.7809,-0.45 -0.44098,-1 z M 81.404988,129.75 79.5,127.5 l 2.25,1.90499 C 83.864445,131.19521 84.455241,132 83.654988,132 c -0.189757,0 -1.202257,-1.0125 -2.25,-2.25 z M 139,128.40445 c -1.375,-0.23637 -4.12725,-0.87409 -6.11612,-1.41714 l -3.61612,-0.98737 1.4195,-6.14445 c 1.46635,-6.34719 4.05191,-12.19668 7.64185,-17.28866 1.75167,-2.48458 1.80817,-2.833487 0.36941,-2.28138 -0.93419,0.35848 -1.69852,0.45674 -1.69852,0.21835 0,-0.867648 3.96465,-2.520008 9.51557,-3.96584 5.33483,-1.389546 5.91584,-1.358516 9.58181,0.511722 2.14644,1.095031 3.90262,2.222653 3.90262,2.505826 0,0.283173 -0.96589,-0.0021 -2.14643,-0.633872 -1.19446,-0.63926 -4.13963,-0.924069 -6.6406,-0.642173 -3.68115,0.414919 -5.28297,1.318055 -8.85432,4.992227 C 138.06369,107.69032 135.46634,114 137.94239,114 c 0.73237,0 0.9505,0.76211 0.5654,1.97545 -1.00398,3.16327 4.41492,7.74046 10.18901,8.60633 3.88742,0.58296 5.48581,0.31863 8.69156,-1.43733 l 3.92813,-2.15165 -1.90588,2.10598 c -1.04824,1.15829 -3.10569,2.72642 -4.57212,3.48474 -2.88232,1.4905 -11.79802,2.51553 -15.83849,1.82093 z M 99,120 c 0,-1.33333 0.666667,-2 2,-2 1.33333,0 2,0.66667 2,2 0,1.33333 -0.66667,2 -2,2 -1.333333,0 -2,-0.66667 -2,-2 z m -24.921053,-2.58333 c 0.04798,-1.16495 0.284941,-1.4019 0.604167,-0.60417 0.288871,0.72187 0.253344,1.58437 -0.07895,1.91667 -0.332292,0.33229 -0.568641,-0.25834 -0.52522,-1.3125 z m -67.9999996,-2 c 0.047984,-1.16495 0.2849403,-1.4019 0.6041666,-0.60417 0.2888706,0.72187 0.2533443,1.58437 -0.078947,1.91667 -0.3322917,0.33229 -0.5686404,-0.25834 -0.5252196,-1.3125 z m 192.0000026,0 c 0.048,-1.16495 0.28494,-1.4019 0.60416,-0.60417 0.28887,0.72187 0.25335,1.58437 -0.0789,1.91667 -0.3323,0.33229 -0.56864,-0.25834 -0.52522,-1.3125 z M 96,115.01337 C 96,114.32188 98.351623,113 99.581787,113 c 1.364483,0 0.08354,1.85426 -1.581787,2.28975 -1.1,0.28766 -2,0.16328 -2,-0.27638 z m 47.07895,-3.5967 c 0.048,-1.16495 0.28494,-1.4019 0.60416,-0.60417 0.28887,0.72187 0.25335,1.58437 -0.0789,1.91667 -0.3323,0.33229 -0.56864,-0.25834 -0.52522,-1.3125 z m 12.58772,0.91666 c -1.18379,-1.18378 -0.70819,-4.10342 0.76022,-4.6669 1.82872,-0.70175 3.97394,1.84663 3.21637,3.82084 -0.59766,1.55748 -2.7972,2.02546 -3.97659,0.84606 z M 6.0789474,90.416667 c 0.047984,-1.164943 0.2849403,-1.4019 0.6041666,-0.604167 0.2888706,0.721875 0.2533443,1.584375 -0.078947,1.916667 -0.3322917,0.332291 -0.5686404,-0.258334 -0.5252196,-1.3125 z m 192.0000026,0 c 0.048,-1.164943 0.28494,-1.4019 0.60416,-0.604167 0.28887,0.721875 0.25335,1.584375 -0.0789,1.916667 -0.3323,0.332291 -0.56864,-0.258334 -0.52522,-1.3125 z M 164.73271,86.750226 C 165.45139,81.119318 166,80.696846 166,85.774316 c 0,2.259208 -0.40719,4.359309 -0.90487,4.666893 -0.51626,0.319065 -0.67191,-1.266096 -0.36242,-3.690983 z M 174.87244,39.25 C 173.62857,37.663944 173.66394,37.628574 175.25,38.872445 176.91575,40.178814 177.44548,41 176.62244,41 c -0.20765,0 -0.99515,-0.7875 -1.75,-1.75 z M 93.75,6.3377193 c 0.6875,-0.2774123 1.8125,-0.2774123 2.5,0 0.6875,0.2774123 0.125,0.504386 -1.25,0.504386 -1.375,0 -1.9375,-0.2269737 -1.25,-0.504386 z m 15,0 c 0.6875,-0.2774123 1.8125,-0.2774123 2.5,0 0.6875,0.2774123 0.125,0.504386 -1.25,0.504386 -1.375,0 -1.9375,-0.2269737 -1.25,-0.504386 z"
         id="path15" />
      <path
         style="fill:#995151"
         d="m 99.767909,199.27527 c 1.797351,-0.22256 4.497351,-0.21797 6.000001,0.0102 1.50265,0.22818 0.0321,0.41027 -3.26791,0.40466 -3.3,-0.006 -4.529441,-0.1923 -2.732091,-0.41486 z m 16.044591,-0.95838 c 0.72187,-0.28887 1.58437,-0.25335 1.91667,0.0789 0.33229,0.33229 -0.25834,0.56864 -1.3125,0.52522 -1.16495,-0.048 -1.4019,-0.28494 -0.60417,-0.60416 z M 33.452948,170.75 29.5,166.5 l 4.25,3.95295 c 3.952458,3.6762 4.709525,4.54705 3.952948,4.54705 -0.163379,0 -2.075879,-1.9125 -4.25,-4.25 z M 170.5,171 c 2.14824,-2.2 4.1309,-4 4.4059,-4 0.275,0 -1.25766,1.8 -3.4059,4 -2.14824,2.2 -4.1309,4 -4.4059,4 -0.275,0 1.25766,-1.8 3.4059,-4 z M 6.0789474,112.41667 c 0.047984,-1.16495 0.2849403,-1.4019 0.6041666,-0.60417 0.2888706,0.72187 0.2533443,1.58437 -0.078947,1.91667 -0.3322917,0.33229 -0.5686404,-0.25834 -0.5252196,-1.3125 z m 192.0000026,0 c 0.048,-1.16495 0.28494,-1.4019 0.60416,-0.60417 0.28887,0.72187 0.25335,1.58437 -0.0789,1.91667 -0.3323,0.33229 -0.56864,-0.25834 -0.52522,-1.3125 z M 6.0789474,93.416667 c 0.047984,-1.164943 0.2849403,-1.4019 0.6041666,-0.604167 0.2888706,0.721875 0.2533443,1.584375 -0.078947,1.916667 -0.3322917,0.332291 -0.5686404,-0.258334 -0.5252196,-1.3125 z m 192.0000026,0 c 0.048,-1.164943 0.28494,-1.4019 0.60416,-0.604167 0.28887,0.721875 0.25335,1.584375 -0.0789,1.916667 -0.3323,0.332291 -0.56864,-0.258334 -0.52522,-1.3125 z M 33.5,35 c 2.148243,-2.2 4.130896,-4 4.405896,-4 0.275,0 -1.257653,1.8 -3.405896,4 -2.148243,2.2 -4.130896,4 -4.405896,4 -0.275,0 1.257653,-1.8 3.405896,-4 z M 169.94617,34.25 166.5,30.5 l 3.75,3.446167 c 2.0625,1.895392 3.75,3.582892 3.75,3.75 0,0.76362 -0.84622,0.04425 -4.05383,-3.446167 z M 99.767909,6.2752687 C 101.56526,6.0527073 104.26526,6.0572996 105.76791,6.2854737 107.27056,6.5136479 105.8,6.6957436 102.5,6.6901308 99.2,6.6845181 97.970559,6.4978301 99.767909,6.2752687 Z"
         id="path14" />
      <path
         style="fill:#5e5e5e"
         d="m 65,152.34098 c 0,-0.54579 1.2375,-2.08329 2.75,-3.41667 L 70.5,146.5 l -2.5,3 c -1.375,1.65 -2.6125,3.1875 -2.75,3.41667 -0.1375,0.22916 -0.25,-0.0299 -0.25,-0.57569 z m -6.541119,-1.40751 C 58.096348,150.34688 58.06979,149.59688 58.399864,149.2668 58.729939,148.93673 59,149.21822 59,149.89235 c 0,0.67413 0.519529,0.9046 1.154508,0.51216 0.7153,-0.44208 0.883063,-0.27432 0.440984,0.44098 -0.88413,1.43055 -1.296364,1.44753 -2.136611,0.088 z m 65.620069,-6.5168 c 0.048,-1.16495 0.28494,-1.4019 0.60416,-0.60417 0.28887,0.72187 0.25335,1.58437 -0.0789,1.91667 -0.3323,0.33229 -0.56864,-0.25834 -0.52522,-1.3125 z m 7.41097,-0.43298 C 131.14446,143.42472 130.47399,143.20706 130,143.5 c -0.47399,0.29294 -1.12004,0.11479 -1.43566,-0.3959 -0.81174,-1.31342 2.21188,-0.72788 3.64578,0.70602 0.65444,0.65444 0.90144,1.18988 0.5489,1.18988 -0.35254,0 -0.92364,-0.45734 -1.2691,-1.01631 z M 82.5,143 c -0.731,-1.18278 0.247516,-1.18278 3,0 1.928236,0.82859 1.921383,0.86195 -0.190983,0.92971 C 84.103976,143.96837 82.839919,143.55 82.5,143 Z m -10.992921,-3.98855 c -0.350339,-0.56686 0.05106,-0.7345 0.940983,-0.39301 1.732417,0.66479 2.049387,1.38156 0.610955,1.38156 -0.517541,0 -1.215913,-0.44485 -1.551938,-0.98855 z m 47.997811,-2.00353 c -0.33722,-0.54564 -0.1805,-1.76516 0.34828,-2.71003 0.78893,-1.40975 0.93319,-1.2319 0.80412,0.99138 -0.17461,3.00771 -0.26885,3.14826 -1.1524,1.71865 z m 34.03782,-1.93882 c -0.31644,-0.512 -0.19299,-1.1672 0.27431,-1.45601 0.46731,-0.28881 0.84965,0.13009 0.84965,0.9309 0,1.68617 -0.31534,1.83349 -1.12396,0.52511 z m 6,0 c -0.31644,-0.512 -0.11799,-1.21356 0.44098,-1.55902 0.55897,-0.34546 1.01631,-0.29812 1.01631,0.10522 0,0.40333 1.2375,-0.35598 2.75,-1.68735 2.64521,-2.32844 2.63808,-2.29697 -0.18709,0.82568 -3.28856,3.63485 -3.22678,3.59926 -4.0202,2.31547 z m -69.775337,-2.23647 c 0.863151,-0.86315 1.762235,-0.88079 3.45,-0.0677 2.143676,1.03275 2.072614,1.10381 -1.167373,1.16737 -2.629764,0.0516 -3.172458,-0.20986 -2.282627,-1.09969 z m 20.833217,-2.49884 C 111.52101,126.50238 112,126.13974 112,129.27432 c 0,1.4342 -0.46804,2.89691 -1.04008,3.25045 -0.68219,0.42162 -0.80584,-0.3323 -0.35933,-2.19098 z m 13.51728,1.76022 c -1.08004,-0.68404 -0.89964,-1.0285 0.82536,-1.57599 1.21412,-0.38535 2.47358,-0.43454 2.7988,-0.10933 0.32522,0.32522 -0.2712,0.64455 -1.32536,0.70962 -1.1745,0.0725 -0.75502,0.41391 1.08333,0.88169 2.76761,0.70424 2.80634,0.77135 0.5,0.86637 -1.375,0.0567 -3.12196,-0.29091 -3.88213,-0.77236 z M 80.861679,130.33333 C 80.253066,129.6 80.147711,128.99311 80.627555,128.98469 81.1074,128.97627 80.825,128.49201 80,127.90856 c -1.333333,-0.94295 -1.333333,-1.01533 0,-0.65136 0.825,0.22521 1.5,1.04697 1.5,1.82613 0,0.77917 0.525,1.41667 1.166667,1.41667 0.641666,0 1.429166,0.2625 1.75,0.58333 0.320833,0.32084 -0.09881,0.58334 -0.932543,0.58334 -0.833732,0 -2.013832,-0.6 -2.622445,-1.33334 z m 28.217271,-1.91666 c 0.048,-1.16495 0.28494,-1.4019 0.60416,-0.60417 0.28887,0.72187 0.25335,1.58437 -0.0789,1.91667 -0.3323,0.33229 -0.56864,-0.25834 -0.52522,-1.3125 z m 23.73355,0.90022 c 0.72187,-0.28887 1.58437,-0.25335 1.91667,0.0789 0.33229,0.33229 -0.25834,0.56864 -1.3125,0.52522 -1.16495,-0.048 -1.4019,-0.28494 -0.60417,-0.60416 z m 4.45653,-1.00988 c 0.97297,-0.25354 2.32297,-0.23687 3,0.0371 0.67703,0.27393 -0.11903,0.48137 -1.76903,0.46099 -1.65,-0.0204 -2.20394,-0.2445 -1.23097,-0.49804 z m -63.071755,-3.17095 c -0.568681,-1.63132 -0.781585,-3.21842 -0.47312,-3.52688 0.308466,-0.30847 -0.06578,-1.3199 -0.831654,-2.24764 -1.201449,-1.45535 -1.1867,-1.619 0.107499,-1.19277 0.886847,0.29208 1.754572,2.30021 2.122777,4.91263 0.75449,5.3531 0.455632,6.01658 -0.925502,2.05466 z M 60.183879,124.50423 C 59.556328,123.1269 59.452906,122 59.954051,122 c 0.983844,0 2.505982,3.8733 1.799696,4.57959 -0.235876,0.23587 -0.942317,-0.69804 -1.569868,-2.07536 z m 35.688566,0.80381 c -1.08494,-1.33752 -1.094179,-1.5245 -0.0441,-0.89256 0.730588,0.43966 2.530588,1.16237 4,1.606 l 2.671655,0.80661 -2.627553,0.086 c -1.445156,0.0473 -3.245156,-0.67543 -4,-1.60601 z m 32.529535,0.29712 c -0.29439,-0.76716 -0.35591,-3.12966 -0.13672,-5.25 0.38538,-3.72788 0.40408,-3.70108 0.56664,0.81151 0.0957,2.65617 0.70663,4.88396 1.4181,5.17105 0.97906,0.39506 0.97226,0.5215 -0.0314,0.58333 -0.70477,0.0434 -1.52225,-0.54873 -1.81664,-1.31589 z M 78,122.5 c 0,-1.925 0.175767,-3.5 0.390594,-3.5 0.214827,0 0.574466,1.575 0.799199,3.5 0.224733,1.925 0.04897,3.5 -0.390594,3.5 C 78.35964,126 78,124.425 78,122.5 Z m 30.07895,1.91667 c 0.048,-1.16495 0.28494,-1.4019 0.60416,-0.60417 0.28887,0.72187 0.25335,1.58437 -0.0789,1.91667 -0.3323,0.33229 -0.56864,-0.25834 -0.52522,-1.3125 z m 49.67961,0.49132 c 0.67325,-0.8756 0.89049,-1.9256 0.48276,-2.33333 -0.40772,-0.40773 -0.21058,-0.59133 0.4381,-0.40799 0.64868,0.18333 1.911,-0.56667 2.80516,-1.66667 1.62406,-1.99792 1.62475,-1.99791 0.66321,0.0112 -0.5294,1.10615 -2.00897,2.90615 -3.28793,4 -1.27897,1.09384 -1.77455,1.27241 -1.1013,0.3968 z m -7.9969,-0.61525 c 1.24391,-0.23919 3.04391,-0.23011 4,0.0202 0.95609,0.25029 -0.0617,0.446 -2.26166,0.4349 -2.2,-0.0111 -2.98225,-0.21589 -1.73834,-0.45508 z m -87.682713,-2.87607 c 0.04798,-1.16495 0.284941,-1.4019 0.604167,-0.60417 0.288871,0.72187 0.253344,1.58437 -0.07895,1.91667 -0.332292,0.33229 -0.568641,-0.25834 -0.52522,-1.3125 z m 31.367202,0.4962 c -0.369536,-0.59793 -0.171094,-1.58793 0.440983,-2.2 C 94.704289,118.89571 95,119.18458 95,120.8 c 0,2.41451 -0.519459,2.78655 -1.553851,1.11287 z m 52.859611,-2.50456 -2.80576,-2.59169 3,1.9491 c 1.65,1.07201 3.675,2.20275 4.5,2.51275 1.22037,0.45856 1.18416,0.57835 -0.19424,0.64258 -0.93183,0.0434 -2.95683,-1.08731 -4.5,-2.51274 z M 103,119.73999 c 0,-0.87634 -0.7875,-1.79914 -1.75,-2.05066 -1.640089,-0.4286 -1.638118,-0.46461 0.0314,-0.57333 1.80798,-0.11773 3.48321,2.45274 2.34216,3.59379 C 103.28059,121.05274 103,120.61633 103,119.73999 Z M 78.638374,116.5 C 78.954956,115.675 79.390833,115 79.606989,115 79.823145,115 80,115.675 80,116.5 c 0,0.825 -0.435877,1.5 -0.968615,1.5 -0.532739,0 -0.709594,-0.675 -0.393011,-1.5 z m 15.925919,0.20687 c 0.375531,-0.98622 0.934692,-1.54122 1.242579,-1.23333 0.307887,0.30789 6.34e-4,1.11479 -0.682784,1.79313 -0.987616,0.98026 -1.10248,0.8654 -0.559795,-0.5598 z m -21.105412,-1.7734 C 73.096348,114.34688 73.06979,113.59688 73.399864,113.2668 73.729939,112.93673 74,113.21822 74,113.89235 c 0,0.67413 0.45,0.94757 1,0.60765 0.55,-0.33992 1,-0.14148 1,0.44098 0,1.37306 -1.690972,1.36806 -2.541119,-0.008 z m 87.046669,-0.9396 c 0.99854,-1.10337 2.02185,-1.7998 2.27403,-1.54762 0.54163,0.54162 -2.30894,3.55375 -3.36314,3.55375 -0.39953,0 0.0906,-0.90276 1.08911,-2.00613 z m -17.88201,-0.53253 c -0.96498,-2.51469 -0.68031,-3.16355 0.49853,-1.13634 0.58369,1.00375 0.8506,2.03566 0.59313,2.29313 -0.25747,0.25747 -0.74872,-0.26309 -1.09166,-1.15679 z M 137,112.16667 c 0,-1.00834 0.3375,-2.17084 0.75,-2.58334 0.4125,-0.4125 0.75,-1.2375 0.75,-1.83333 0,-0.59583 0.6062,-1.2854 1.34711,-1.53237 1.0635,-0.3545 1.11613,-0.0175 0.25,1.60093 C 139.4937,108.94603 139,110.7981 139,111.93426 139,113.07042 138.55,114 138,114 c -0.55,0 -1,-0.825 -1,-1.83333 z m -62.541119,-0.2332 c -1.026063,-1.66021 -0.105112,-1.89043 1.330546,-0.33261 0.709184,0.76953 0.848242,1.39914 0.309017,1.39914 -0.539226,0 -1.277029,-0.47994 -1.639563,-1.06653 z M 35.5,111 c -0.339919,-0.55 -0.253976,-1.00689 0.190983,-1.01531 0.444959,-0.008 0.134017,-0.49268 -0.690983,-1.07613 -1.172601,-0.82928 -1.191672,-0.97781 -0.08737,-0.68048 0.776945,0.20918 1.524627,1.14344 1.661516,2.07613 C 36.854131,112.21189 36.421992,112.49181 35.5,111 Z m 95.5,-0.94098 c 0,-0.51754 0.44485,-1.21592 0.98855,-1.55194 0.56686,-0.35034 0.7345,0.0511 0.39301,0.94098 C 131.71677,111.18048 131,111.49745 131,110.05902 Z M 143.5,110 c -0.33992,-0.55 -0.14148,-1 0.44098,-1 0.58246,0 1.05902,0.45 1.05902,1 0,0.55 -0.19844,1 -0.44098,1 -0.24254,0 -0.7191,-0.45 -1.05902,-1 z m -67.00515,-2.99431 c 0.783449,-0.8657 2.390296,-1.64676 3.570769,-1.73568 2.0372,-0.15346 2.059971,-0.0663 0.447907,1.71504 -0.934125,1.0322 -2.540972,1.81326 -3.57077,1.73568 -1.638832,-0.12344 -1.694696,-0.33735 -0.447906,-1.71504 z m -39.035969,-0.0722 c -0.362533,-0.58659 -0.444683,-1.281 -0.182555,-1.54313 0.262128,-0.26213 0.743066,0.21781 1.068751,1.06653 0.676184,1.76211 0.09985,2.07206 -0.886196,0.4766 z M 151,107.57037 c 0,-0.275 0.9,-0.98167 2,-1.57037 1.1,-0.5887 2,-0.84537 2,-0.57037 0,0.275 -0.9,0.98167 -2,1.57037 -1.1,0.5887 -2,0.84537 -2,0.57037 z M 33,105.94098 c 0,-0.58246 0.45,-0.7809 1,-0.44098 0.55,0.33992 1,0.81648 1,1.05902 C 35,106.80156 34.55,107 34,107 c -0.55,0 -1,-0.47656 -1,-1.05902 z m 33,-0.31854 c 0,-0.20765 0.7875,-0.99515 1.75,-1.75 1.586056,-1.24387 1.621426,-1.2085 0.377555,0.37756 C 66.821186,105.91575 66,106.44548 66,105.62244 Z M 156.5,105 c -0.33992,-0.55 -0.14148,-1 0.44098,-1 0.58246,0 1.05902,0.45 1.05902,1 0,0.55 -0.19844,1 -0.44098,1 -0.24254,0 -0.7191,-0.45 -1.05902,-1 z m -71.6875,-0.68311 c 0.721875,-0.28887 1.584375,-0.25335 1.916667,0.0789 0.332291,0.3323 -0.258334,0.56864 -1.3125,0.52522 -1.164943,-0.048 -1.4019,-0.28494 -0.604167,-0.60416 z M 65,103.62244 c 0,-0.20765 0.7875,-0.99515 1.75,-1.75 1.586056,-1.24387 1.621426,-1.2085 0.377555,0.37756 C 65.821186,103.91575 65,104.44548 65,103.62244 Z m 25,-2.18146 c 0,-0.85746 0.45734,-1.27636 1.016312,-0.9309 0.558971,0.34546 0.757414,1.04702 0.440983,1.55902 C 90.600055,103.45614 90,103.19751 90,101.44098 Z m -2.789427,-0.84012 c 0.709185,-0.769528 1.446988,-1.249467 1.639563,-1.066532 C 89.443284,100.09779 87.939997,102 86.901556,102 c -0.539225,0 -0.400167,-0.62961 0.309017,-1.39914 z M 138,101 c 0,-0.55 0.47656,-1 1.05902,-1 0.58246,0 0.7809,0.45 0.44098,1 -0.33992,0.55 -0.81648,1 -1.05902,1 C 138.19844,102 138,101.55 138,101 Z m 16,0 c -1.21948,-0.78809 -1.09025,-0.97224 0.69098,-0.98469 1.20504,-0.008 2.4691,0.43469 2.80902,0.98469 0.78687,1.27319 -1.52988,1.27319 -3.5,0 z m 6,-0.89235 c 0,-0.674126 -0.51953,-0.904598 -1.15451,-0.512158 -0.74421,0.459948 -0.88179,0.272264 -0.38713,-0.528116 0.54526,-0.882249 1.07722,-0.931796 1.83784,-0.171175 0.58876,0.588756 0.76297,1.377969 0.38713,1.753799 C 160.3075,101.02583 160,100.78178 160,100.10765 Z M 74.5,99 c -0.789166,-1.276897 2.524143,-1.276897 4.5,0 1.173233,0.758201 0.913783,0.97271 -1.190983,0.984687 C 76.328976,99.993109 74.839919,99.55 74.5,99 Z m 10,0 c -0.339919,-0.55 -0.168034,-1 0.381966,-1 0.55,0 1.278115,0.45 1.618034,1 0.339919,0.55 0.168034,1 -0.381966,1 -0.55,0 -1.278115,-0.45 -1.618034,-1 z M 80,98 C 78.707313,97.164601 78.733708,97.028509 80.190983,97.015313 81.121024,97.006891 82.160081,97.45 82.5,98 c 0.782182,1.265597 -0.541628,1.265597 -2.5,0 z m 75,0.606989 c 0,-0.216156 0.69837,-0.661002 1.55194,-0.988546 0.88992,-0.341496 1.29132,-0.173849 0.94098,0.393011 C 156.90566,98.961658 155,99.416902 155,98.606989 Z M 141.5,97 c 0.33992,-0.55 0.81648,-1 1.05902,-1 0.24254,0 0.44098,0.45 0.44098,1 0,0.55 -0.47656,1 -1.05902,1 -0.58246,0 -0.7809,-0.45 -0.44098,-1 z m 7.3125,-1.683114 c 0.72187,-0.288871 1.58437,-0.253344 1.91667,0.07895 0.33229,0.332292 -0.25834,0.568641 -1.3125,0.52522 -1.16495,-0.04798 -1.4019,-0.284941 -0.60417,-0.604167 z M 164.12517,84.05 c -0.0735,-3.200441 0.23972,-5.057875 0.75885,-4.5 0.48621,0.5225 0.54253,2.975 0.12516,5.45 l -0.75885,4.5 z"
         id="path13" />
      <path
         style="fill:#6c0000"
         d="m 99,198 c 0,-0.56296 -2.809524,-1 -6.428571,-1 -3.936059,0 -6.940922,-0.50476 -7.75,-1.30185 -0.726786,-0.71602 -3.396398,-2.30089 -5.932472,-3.52194 C 74.127968,189.88393 71,190.09715 71,192.71398 c 0,1.03636 -0.540914,1.27731 -1.75,0.77956 -0.9625,-0.39625 -2.546984,-0.94936 -3.521075,-1.22914 -1.447512,-0.41575 -1.544796,-0.78134 -0.532498,-2.00108 C 67.078269,187.99584 62.003446,184 57.241844,184 c -2.737485,0 -4.458544,-0.78694 -6.903261,-3.15645 -2.671641,-2.58946 -3.522171,-2.93607 -4.734888,-1.92961 -1.229288,1.02022 -2.847646,-0.0815 -9.60902,-6.54124 C 22.339364,159.32649 13.421122,143.88591 8.7913867,125.27432 5.5348477,112.18299 5.7570224,92.138361 9.3072637,78.731837 13.950693,61.197185 22.984952,45.959229 36.126842,33.495637 54.164609,16.388862 73.253609,8.3124899 98.106966,7.272442 115.5535,6.5423503 129.3843,8.9281546 134.97461,13.632085 c 2.33581,1.965459 3.38387,2.315292 4.40283,1.469627 1.0221,-0.848268 2.23497,-0.396482 5.14587,1.916811 2.09471,1.664668 4.97139,3.30962 6.39263,3.655449 6.38295,1.553165 21.9803,15.181426 29.68347,25.936072 6.53334,9.121406 12.1911,21.162329 15.09333,32.121793 3.55024,13.406524 3.77241,33.451153 0.51587,46.542483 -4.59672,18.47889 -13.56755,34.08486 -26.89057,46.77976 -10.87255,10.35997 -18.23728,15.11207 -22.19402,14.32072 -2.17307,-0.43461 -4.12017,0.0154 -6.73048,1.55551 -2.02007,1.19187 -6.39875,3.27467 -9.73041,4.62844 -3.33165,1.35377 -6.37263,2.9712 -6.75771,3.59429 C 122.46129,198.48969 99,200.22955 99,198 Z m 10.70031,-18.36487 c 0.99894,-1.70495 13.65381,-4.05965 14.13302,-2.62975 1.27767,3.81239 24.63231,-5.91445 23.96617,-9.98154 -0.44547,-2.71985 1.12727,-3.98849 4.18614,-3.37671 3.54465,0.70893 6.87998,-1.65712 11.01489,-7.81385 1.92684,-2.869 2.55949,-4.6585 1.91953,-5.4296 C 163.69424,148.92665 164.80004,146 166.58394,146 c 1.78393,0 4.78552,-4.59318 3.91843,-5.99617 -0.36851,-0.59626 0.45662,-1.97033 1.83363,-3.05348 5.94482,-4.67621 9.19847,-15.13235 8.83392,-28.38929 -0.1808,-6.57455 -1.58885,-8.3969 -4.47194,-5.78774 -1.78415,1.61464 -1.82325,1.45614 -1.13709,-4.608711 0.65231,-5.765663 0.5455,-6.324027 -1.30216,-6.8072 -1.56404,-0.409005 -2.00523,-1.343522 -1.979,-4.191878 C 172.36072,78.368829 171.99275,76 170.54531,76 c -0.89701,0 -1.70762,-1.437619 -2.11446,-3.75 -0.36288,-2.0625 -1.31643,-6.45 -2.119,-9.75 -0.80257,-3.3 -1.85896,-7.893711 -2.34753,-10.208246 -1.27367,-6.033823 -5.32343,-13.533827 -9.91297,-18.358429 -3.39004,-3.563673 -4.37441,-4.0741 -6.75961,-3.505045 -1.53546,0.366327 -4.03109,1.559667 -5.54586,2.651865 -2.12223,1.530208 -3.19695,1.748818 -4.68425,0.952836 -2.28622,-1.223544 -3.14992,-1.310131 -2.82272,-0.282981 0.1314,0.4125 -2.35781,3.224794 -5.53159,6.249543 -3.17378,3.024748 -6.69644,7.412248 -7.82812,9.75 C 119.74751,52.087294 118.12583,54 117.27546,54 c -0.85036,0 -2.58873,1.125 -3.86304,2.5 -3.00757,3.245219 -3.98951,3.151924 -5.26258,-0.5 -1.28948,-3.699018 -5.06848,-4.07708 -8.11088,-0.811439 C 98.396485,56.951546 98,57.062663 98,55.75999 c 0,-0.889423 0.607446,-2.224578 1.349879,-2.967012 1.110921,-1.110922 1.118391,-1.566119 0.04221,-2.571429 -1.690304,-1.578981 -2.073957,-1.551239 -7.05854,0.510406 -2.654815,1.098042 -5.084413,3.115246 -6.638068,5.511339 L 83.244883,60.022677 81.59939,57.511339 C 80.575283,55.948359 79.018523,55 77.476947,55 c -2.589813,0 -2.980588,0.971241 -2.551512,6.341584 0.186373,2.332658 -0.100043,2.743526 -1.5992,2.294079 C 69.431591,62.468051 52.228097,59.743374 47,59.466133 43.12066,59.260415 39.371847,58.117438 34.277731,55.587236 26.953228,51.949221 21.696174,50.934754 22.165968,53.25 c 0.139503,0.6875 -0.347434,2.338793 -1.082082,3.66954 -0.734648,1.330747 -2.3558,5.533801 -3.602561,9.340121 -2.382447,7.273537 -2.352542,14.468791 0.06399,15.396102 0.775947,0.297758 1.528636,3.531227 1.962236,8.429543 0.524869,5.92937 1.311244,8.842162 3.097937,11.475004 1.316982,1.94068 2.396194,4.52102 2.39825,5.7341 0.0021,1.21307 0.906524,3.68631 2.00993,5.49609 1.957456,3.21056 1.958962,3.26522 0.062,2.25 C 24.305634,113.55802 22,113.75433 22,115.47266 c 0,2.07766 4.911952,12.20938 6.597348,13.60813 1.97722,1.64095 1.741496,2.91921 -0.538331,2.91921 -4.709101,0 -2.74638,5.24498 3.46532,9.26037 2.077614,1.34303 3.257593,2.79646 2.947464,3.63053 -0.284445,0.765 0.172306,2.44319 1.015002,3.7293 0.842695,1.28612 1.621617,3.41912 1.730937,4.74001 0.156255,1.88799 1.378141,2.90829 5.713275,4.7707 3.032982,1.303 7.439268,3.36893 9.791748,4.59096 C 55.075244,163.94389 57,164.47983 57,163.91285 c 0,-0.56699 0.471851,-0.73926 1.048558,-0.38284 0.654471,0.40449 0.700919,1.08438 0.123585,1.80902 -0.508736,0.63853 -0.643087,1.92341 -0.298558,2.85527 0.867326,2.34591 10.685891,7.39615 16.126415,8.29472 2.475,0.40878 5.4,1.23926 6.5,1.8455 1.72016,0.94804 11.049134,1.8925 24.70031,2.50064 2.22041,0.0989 4.02014,-0.38103 4.5,-1.20003 z"
         id="path12" />
      <path
         style="fill:#510203"
         d="m 97.5,198 c -0.339919,-0.55 -0.141476,-1 0.440983,-1 C 98.523442,197 99,197.45 99,198 c 0,0.55 -0.198442,1 -0.440983,1 -0.242541,0 -0.719098,-0.45 -1.059017,-1 z m -8.75,-0.70573 c 1.2375,-0.23836 3.2625,-0.23836 4.5,0 1.2375,0.23835 0.225,0.43337 -2.25,0.43337 -2.475,0 -3.4875,-0.19502 -2.25,-0.43337 z m -7.192702,-2.87603 c -1.066756,-0.78003 -1.516049,-1.41135 -0.998428,-1.40293 1.382257,0.0225 3.960956,1.7982 3.410597,2.34856 -0.259936,0.25993 -1.345412,-0.1656 -2.412169,-0.94563 z m -10.212221,-0.96137 c -0.325685,-0.84872 -0.368713,-1.76657 -0.09562,-2.03966 0.273094,-0.2731 0.736558,0.42131 1.029919,1.54313 0.62315,2.38293 -0.06922,2.75089 -0.934299,0.49653 z M 127,194 c 0.825,-0.53316 1.95,-0.96937 2.5,-0.96937 0.55,0 0.325,0.43621 -0.5,0.96937 -0.825,0.53316 -1.95,0.96937 -2.5,0.96937 -0.55,0 -0.325,-0.43621 0.5,-0.96937 z m 5,-2 c 0.825,-0.53316 1.95,-0.96937 2.5,-0.96937 0.55,0 0.325,0.43621 -0.5,0.96937 -0.825,0.53316 -1.95,0.96937 -2.5,0.96937 -0.55,0 -0.325,-0.43621 0.5,-0.96937 z m -57.5,-1 c -1.630408,-0.70061 -1.687513,-0.87242 -0.309017,-0.92971 C 75.121024,190.03163 76.160081,190.45 76.5,191 c 0.710664,1.14988 0.675913,1.14988 -2,0 z m -11.25,-0.68933 c 2.182094,-0.57024 2.187584,-1.12214 0.03712,-3.73193 -1.609308,-1.95304 -1.571736,-1.94879 0.621356,0.0704 2.471694,2.27569 2.106934,4.42862 -0.717491,4.23487 -1.524508,-0.10458 -1.518698,-0.16103 0.05902,-0.57333 z m 74.75,-0.7403 c 0,-0.275 0.9,-0.98167 2,-1.57037 1.1,-0.5887 2,-0.84537 2,-0.57037 0,0.275 -0.9,0.98167 -2,1.57037 -1.1,0.5887 -2,0.84537 -2,0.57037 z m 5.8125,-3.25348 c 0.72187,-0.28887 1.58437,-0.25335 1.91667,0.0789 0.33229,0.33229 -0.25834,0.56864 -1.3125,0.52522 -1.16495,-0.048 -1.4019,-0.28494 -0.60417,-0.60416 z m -91.479365,-1.35417 c 0.09178,-0.29616 -1.115937,-1.82469 -2.683807,-3.39673 -2.28302,-2.28908 -3.026705,-2.58023 -3.734687,-1.46212 -0.57275,0.90455 -0.889407,0.97678 -0.899328,0.20515 -0.03349,-2.60492 2.319332,-2.37798 5.321093,0.51322 2.218388,2.13669 4.358698,3.14762 7.163594,3.38358 l 4,0.3365 -4.666865,0.47943 c -2.566775,0.26369 -4.591775,0.23712 -4.5,-0.059 z M 104.5,180.04004 c 4.98694,-0.84299 3.02196,-1.85939 -4.5,-2.32767 -3.025,-0.18832 -0.775,-0.36437 5,-0.39121 5.775,-0.0268 9.375,0.15821 8,0.41123 -1.375,0.25301 -2.85986,1.09173 -3.29969,1.86382 -0.51077,0.89661 -2.31723,1.35252 -5,1.26188 L 100.5,180.71619 Z m -19.6875,-0.72315 c 0.721875,-0.28887 1.584375,-0.25335 1.916667,0.0789 0.332291,0.33229 -0.258334,0.56864 -1.3125,0.52522 -1.164943,-0.048 -1.4019,-0.28494 -0.604167,-0.60416 z M 80,178 c -0.825,-0.53316 -2.625,-1.02847 -4,-1.10069 -1.708506,-0.0897 -1.945954,-0.2761 -0.75,-0.58864 0.9625,-0.25152 1.75,-1.12588 1.75,-1.94301 0,-0.81713 -0.443698,-1.21147 -0.985995,-0.87632 -1.015877,0.62785 -9.540361,-3.91595 -10.618088,-5.65975 -0.332747,-0.5384 1.349288,0.0181 3.737854,1.23666 2.388567,1.21855 6.59811,3.05653 9.354539,4.0844 2.75643,1.02787 3.815273,1.70927 2.352985,1.51422 -3.165109,-0.42217 -2.875609,1.52336 0.467042,3.13867 C 82.513752,178.38804 83.05,178.8882 82.5,178.91701 81.95,178.94581 80.825,178.53316 80,178 Z m 43.21057,-1.53804 c -0.70918,-0.80408 -0.93418,-1.4681 -0.5,-1.47561 0.43419,-0.008 1.91443,-0.26348 3.28943,-0.56881 2.35892,-0.52382 2.38714,-0.48253 0.5,0.7316 -1.90834,1.22778 -1.86251,1.31717 1,1.95049 l 3,0.66374 -3,0.0803 c -1.65,0.0442 -3.58024,-0.57761 -4.28943,-1.38169 z M 117.75,176.33772 c 0.6875,-0.27741 1.8125,-0.27741 2.5,0 0.6875,0.27741 0.125,0.50439 -1.25,0.50439 -1.375,0 -1.9375,-0.22698 -1.25,-0.50439 z M 68,175 c -1.827966,-1.18132 -0.249085,-1.18132 2.5,0 1.31874,0.56668 1.489055,0.87815 0.5,0.9144 -0.825,0.0302 -2.175,-0.38124 -3,-0.9144 z m 67,0 c 0.825,-0.53316 1.95,-0.96937 2.5,-0.96937 0.55,0 0.325,0.43621 -0.5,0.96937 -0.825,0.53316 -1.95,0.96937 -2.5,0.96937 -0.55,0 -0.325,-0.43621 0.5,-0.96937 z m 4,-1.42963 c 0,-0.275 0.9,-0.98167 2,-1.57037 1.1,-0.5887 2,-0.84537 2,-0.57037 0,0.275 -0.9,0.98167 -2,1.57037 -1.1,0.5887 -2,0.84537 -2,0.57037 z m -80.492921,-3.55892 c -0.350339,-0.56686 0.05106,-0.7345 0.940983,-0.39301 1.732417,0.66479 2.049387,1.38156 0.610955,1.38156 -0.517541,0 -1.215913,-0.44485 -1.551938,-0.98855 z M 136,170.7999 c 0.275,-0.2467 2.99343,-1.82836 6.04095,-3.51479 l 5.54095,-3.06625 0.19917,2.64057 c 0.12547,1.66356 -0.0998,2.1728 -0.60877,1.37633 -0.64527,-1.00971 -1.39828,-0.97993 -3.74012,0.14789 -3.09829,1.49213 -8.27983,3.17668 -7.43218,2.41625 z m -78.201442,-4.96087 c 0.785839,-1.00516 0.918271,-1.89601 0.335411,-2.25623 -0.529732,-0.32739 -1.114083,-0.21003 -1.298559,0.26081 -0.184475,0.47084 -2.318688,-0.20135 -4.742694,-1.49377 C 49.66871,161.05743 48.331082,160 49.12021,160 c 0.789128,0 2.365961,0.65223 3.504074,1.44939 1.138114,0.79717 2.925742,1.3862 3.972507,1.30897 1.046765,-0.0772 3.140709,0.67229 4.653209,1.66562 3.218873,2.11397 3.67641,3.14219 0.686078,1.54181 -1.562202,-0.83607 -2.473793,-0.78385 -3.75,0.21482 -1.494305,1.16932 -1.538381,1.13047 -0.38752,-0.34158 z m 92.744152,-2.76993 c -0.31644,-0.512 -0.11799,-1.21356 0.44098,-1.55902 0.55897,-0.34546 1.01631,0.0734 1.01631,0.9309 0,1.75653 -0.60006,2.01516 -1.45729,0.62812 z M 155,163.62244 c 0,-0.20765 0.7875,-0.99515 1.75,-1.75 1.58606,-1.24387 1.62143,-1.2085 0.37756,0.37756 C 155.82119,163.91575 155,164.44548 155,163.62244 Z m 4,-3.5 c 0,-0.48265 0.74867,-1.49515 1.66372,-2.25 1.5086,-1.24448 1.55194,-1.16266 0.46482,0.87756 C 159.88863,161.07696 159,161.64993 159,160.12244 Z M 40.5,157.18807 c -1.813331,-1.02583 -3.137485,-2.68424 -3.347574,-4.19261 -0.191166,-1.3725 -0.866166,-3.17046 -1.5,-3.99546 -1.002615,-1.30501 -0.924932,-1.32159 0.597574,-0.12756 0.9625,0.75485 1.75,2.18473 1.75,3.17753 0,0.99279 1.4625,2.9577 3.25,4.36646 3.742987,2.94992 3.515048,3.18444 -0.75,0.77164 z m 123.17166,-3.61511 c 1.77527,-2.90237 1.77201,-2.92225 -0.38709,-2.35763 l -2.17746,0.56942 2.35327,-3.64237 c 1.2943,-2.00331 2.83177,-3.53436 3.41659,-3.40233 1.7051,0.38493 3.59037,-3.83319 2.11951,-4.74222 -0.76549,-0.4731 -0.84191,-0.97532 -0.20803,-1.36709 0.55109,-0.34059 1.28434,0.11657 1.62945,1.01591 0.75134,1.95795 -1.90109,6.35335 -3.83396,6.35335 -1.83634,0 -2.87483,2.94457 -1.58613,4.49736 0.73894,0.89036 0.44278,1.92008 -1.0421,3.62325 L 161.8813,156.5 Z M 33.44113,142.44483 c -1.864025,-1.49339 -1.851756,-1.51185 0.30887,-0.46481 1.2375,0.59969 2.25,1.29951 2.25,1.55516 0,0.76522 -0.518608,0.54424 -2.55887,-1.09035 z m -5.893606,-4.57072 c -2.973173,-3.53342 -2.88964,-5.22715 0.280804,-5.69366 2.628129,-0.38672 2.689186,-0.90824 0.421672,-3.60171 -1.748234,-2.07664 -1.747729,-2.07682 0.5,-0.17375 C 31.734769,130.93208 31.62226,133 28.5,133 c -3.169447,0 -3.150055,1.074 0.08889,4.92327 1.423891,1.6922 2.363893,3.07673 2.088893,3.07673 -0.275,0 -1.683618,-1.40665 -3.130263,-3.12589 z M 173,135.5 c 1.29175,-1.375 2.57363,-2.5 2.84863,-2.5 0.275,0 -0.55688,1.125 -1.84863,2.5 -1.29175,1.375 -2.57363,2.5 -2.84863,2.5 -0.275,0 0.55688,-1.125 1.84863,-2.5 z m 5.73121,-9.58016 c 0.35361,-1.3522 0.8069,-1.8055 1.05655,-1.05655 0.24048,0.72144 -0.0382,1.78716 -0.61931,2.36826 -0.74207,0.74207 -0.87221,0.35164 -0.43724,-1.31171 z M 25.458881,124.93347 c -0.362533,-0.58659 -0.444683,-1.281 -0.182555,-1.54313 0.262128,-0.26213 0.743066,0.21781 1.068751,1.06653 0.676184,1.76211 0.09985,2.07206 -0.886196,0.4766 z M 179.0856,121 c -0.0302,-0.825 0.38124,-2.175 0.9144,-3 1.18132,-1.82797 1.18132,-0.24909 0,2.5 -0.56668,1.31874 -0.87815,1.48906 -0.9144,0.5 z M 22.116001,116.25 c -0.0893,-1.73204 0.401961,-2.2233 2.133999,-2.134 1.594188,0.0822 1.757845,0.24585 0.561484,0.56148 -0.928685,0.24502 -1.888984,1.20532 -2.133999,2.134 -0.315637,1.19637 -0.479293,1.03271 -0.561484,-0.56148 z m 7.247829,0.25574 c -0.31537,-0.82184 -1.088746,-1.19969 -1.718615,-0.83967 -0.629868,0.36002 -0.825662,0.30038 -0.435097,-0.13253 0.390564,-0.43291 0.05306,-2.05771 -0.75,-3.61066 C 25.657053,110.36992 25,108.09991 25,106.8784 c 0,-1.2215 -0.7875,-3.1486 -1.75,-4.28243 -1.574626,-1.85491 -1.579016,-1.92934 -0.0438,-0.74265 0.938407,0.72537 2.193944,1.01741 2.790082,0.64898 0.727727,-0.44976 0.870796,0.17914 0.435397,1.91391 -0.893889,3.56154 0.102065,6.87622 3.156928,10.50672 1.424052,1.69239 2.08506,3.07707 1.468907,3.07707 -0.616153,0 -1.378309,-0.67242 -1.693679,-1.49426 z m 151.71512,-5.17395 c -0.0434,-0.64252 -0.33793,-1.99252 -0.65446,-3 -0.54705,-1.74122 -0.51883,-1.7434 0.57078,-0.0441 0.63045,0.98322 0.92496,2.33322 0.65445,3 -0.35498,0.87499 -0.51379,0.88727 -0.57077,0.0441 z M 173.07029,104.25 c 0.0386,-0.4125 0.45702,-1.65 0.92971,-2.75 0.79948,-1.8605 0.86433,-1.832252 0.92971,0.40499 0.0644,2.20333 0.21703,2.27715 1.82029,0.88049 1.83308,-1.59687 4.25,-1.35785 4.25,0.4203 0,0.67217 -0.48284,0.63839 -1.36732,-0.0957 -1.04001,-0.86313 -1.66778,-0.77275 -2.62245,0.37756 -1.29318,1.55819 -4.06478,2.09446 -3.93994,0.76233 z M 175,95.5 c 0,-3.581042 -1.53321,-4.566794 -3.71287,-2.387132 -0.61207,0.612077 -1.60207,0.810519 -2.2,0.440983 C 167.69493,92.693422 167.67629,91 169.05902,91 c 0.58246,0 0.7809,0.45 0.44098,1 -0.33992,0.55 -0.17447,1 0.36766,1 0.54213,0 1.13119,-0.619575 1.30902,-1.376834 0.23252,-0.990158 0.95522,-1.13963 2.57332,-0.532224 1.74926,0.656641 2.25,1.630708 2.25,4.376834 C 176,97.410499 175.775,99 175.5,99 175.225,99 175,97.425 175,95.5 Z M 20.232003,95 c 0,-1.925 0.205795,-2.7125 0.457323,-1.75 0.251527,0.9625 0.251527,2.5375 0,3.5 -0.251528,0.9625 -0.457323,0.175 -0.457323,-1.75 z m -0.97982,-8.5 c 0.0111,-2.2 0.215885,-2.982253 0.455078,-1.738341 0.239193,1.243913 0.230112,3.043913 -0.02018,4 C 19.436788,89.717747 19.241084,88.7 19.252183,86.5 Z M 169.11831,84.25 C 169.05324,82.4625 169.45,81 170,81 c 0.55,0 1,-0.9 1,-2 0,-1.111111 -0.66667,-2 -1.5,-2 -0.92326,0 -1.4554,-0.865111 -1.384,-2.25 0.0873,-1.69317 0.22918,-1.81691 0.57333,-0.5 0.25152,0.9625 1.09932,1.75 1.88399,1.75 0.90965,0 1.42668,1.057571 1.42668,2.918213 0,1.605016 0.25898,3.742516 0.57551,4.75 0.48827,1.554133 0.37945,1.528636 -0.71795,-0.168213 -1.23496,-1.909553 -1.32347,-1.864329 -1.95719,1 l -0.66374,3 z M 16.666667,81.333333 c -0.366667,-0.366666 -0.652983,-1.379166 -0.636258,-2.25 0.02497,-1.300307 0.220111,-1.257107 1.091664,0.24167 1.076773,1.85169 0.764606,3.228342 -0.455406,2.00833 z m -1.58772,-7.916666 c 0.04798,-1.164943 0.284941,-1.4019 0.604167,-0.604167 0.288871,0.721875 0.253344,1.584375 -0.07895,1.916667 -0.332292,0.332291 -0.568641,-0.258334 -0.52522,-1.3125 z m 1.745557,-5.090844 c 0.426728,-2.092959 0.67819,-2.344421 0.969603,-0.969603 0.216399,1.020921 -0.04287,2.292541 -0.576149,2.825822 -0.626137,0.626137 -0.765512,-0.0314 -0.393454,-1.856219 z m 150.254446,0.09084 c 0.048,-1.164943 0.28494,-1.4019 0.60416,-0.604167 0.28887,0.721875 0.25335,1.584375 -0.0789,1.916667 -0.3323,0.332291 -0.56864,-0.258334 -0.52522,-1.3125 z m -1.43829,-4.627004 C 165.30332,62.530348 165.06637,60.6 165.11411,59.5 c 0.0477,-1.1 0.49867,-0.24458 1.00207,1.900934 0.97494,4.155196 0.55831,6.248081 -0.47552,2.388729 z M 64.75,62.337719 c 0.6875,-0.277412 1.8125,-0.277412 2.5,0 0.6875,0.277413 0.125,0.504386 -1.25,0.504386 -1.375,0 -1.9375,-0.226973 -1.25,-0.504386 z M 43,60.346981 c -1.377942,-0.726174 -1.826765,-1.317241 -1,-1.316926 1.724149,6.56e-4 4.674306,1.670596 3.97104,2.247811 C 45.711968,61.490503 44.375,61.071605 43,60.346981 Z m 12,0.666048 c -1.021489,-0.651265 -0.22397,-0.760731 2.5,-0.343146 4.943159,0.757786 5.784761,1.335112 1.916667,1.314804 C 57.8125,61.976265 55.825,61.539019 55,61.013029 Z m -7.25,-1.67531 c 0.6875,-0.277412 1.8125,-0.277412 2.5,0 0.6875,0.277413 0.125,0.504386 -1.25,0.504386 -1.375,0 -1.9375,-0.226973 -1.25,-0.504386 z M 84,59.357796 C 84,58.821251 84.699825,57.508751 85.555166,56.44113 87.021544,54.610824 87.042357,54.642732 85.919712,57 84.4619,60.061032 84,60.628339 84,59.357796 Z m 24.45888,-0.424327 c -0.36253,-0.586592 -0.38909,-1.336592 -0.059,-1.666667 0.33008,-0.330074 0.60014,-0.02699 0.60014,0.67352 0,0.74024 0.64996,1.024242 1.55194,0.678121 0.88992,-0.341496 1.29132,-0.173849 0.94098,0.393011 -0.80027,1.294867 -2.20793,1.258685 -3.03404,-0.07798 z M 79.872445,56.25 C 78.628574,54.663944 78.663944,54.628574 80.25,55.872445 81.915748,57.178814 82.445479,58 81.622445,58 c -0.207656,0 -0.995156,-0.7875 -1.75,-1.75 z M 97,55.5 c 0,-1.375 0.407871,-2.5 0.90638,-2.5 0.49851,0 0.652624,0.970367 0.342477,2.156372 -0.420052,1.606281 -0.229205,1.949516 0.748128,1.345491 0.869113,-0.537141 1.071155,-0.421139 0.598507,0.343629 C 98.372317,58.824629 97,58.113226 97,55.5 Z m 17,0.5 c 0.5887,-1.1 1.57428,-2 2.19017,-2 0.61589,0 0.30532,0.9 -0.69017,2 -0.99549,1.1 -1.98106,2 -2.19017,2 -0.20911,0 0.10147,-0.9 0.69017,-2 z M 21.777805,55.822195 c 0.586248,-0.586248 0.827925,-1.68607 0.537061,-2.44405 -0.734623,-1.914399 4.444102,-1.761863 7.685134,0.22636 1.650462,1.012482 1.820369,1.296557 0.5,0.835969 -4.924833,-1.717944 -6.842518,-1.775444 -6.232931,-0.186887 0.392437,1.022674 -0.110767,1.733782 -1.480316,2.091927 -1.468762,0.38409 -1.763489,0.231222 -1.008948,-0.523319 z M 75,56 c 0,-0.55 0.476558,-1 1.059017,-1 0.582459,0 0.780902,0.45 0.440983,1 -0.339919,0.55 -0.816476,1 -1.059017,1 C 75.198442,57 75,56.55 75,56 Z m 32,-0.964176 c 0,-0.939788 -1.03387,-1.1314 -3.75,-0.695008 -2.57335,0.413452 -3.279338,0.302424 -2.25,-0.353845 2.98722,-1.904541 8.73119,-0.384832 6.60014,1.746227 C 107.27006,56.063272 107,55.749454 107,55.035824 Z M 119.71063,51.76684 C 121.96589,47.086455 125.90449,42 127.2734,42 c 0.64439,0 0.27456,0.628317 -0.82183,1.39626 -1.09639,0.767944 -3.023,3.457751 -4.28135,5.977349 -1.25834,2.519599 -2.68071,4.823859 -3.16082,5.12058 -0.4801,0.29672 -0.16455,-0.930587 0.70123,-2.727349 z M 88,53 c 0,-0.55 0.476558,-1 1.059017,-1 0.582459,0 0.780902,0.45 0.440983,1 -0.339919,0.55 -0.816476,1 -1.059017,1 C 88.198442,54 88,53.55 88,53 Z m 75.07895,-1.583333 c 0.048,-1.164943 0.28494,-1.4019 0.60416,-0.604167 0.28887,0.721875 0.25335,1.584375 -0.0789,1.916667 -0.3323,0.332291 -0.56864,-0.258334 -0.52522,-1.3125 z M 95.75,49.337719 c 0.6875,-0.277412 1.8125,-0.277412 2.5,0 0.6875,0.277413 0.125,0.504386 -1.25,0.504386 -1.375,0 -1.9375,-0.226973 -1.25,-0.504386 z m 65.87354,-1.876378 c -0.96498,-2.514694 -0.68031,-3.163555 0.49853,-1.136338 0.58369,1.003751 0.8506,2.035659 0.59313,2.293128 -0.25747,0.257469 -0.74872,-0.263087 -1.09166,-1.15679 z M 129,44 c 0,-0.55 0.47656,-1 1.05902,-1 0.58246,0 0.7809,0.45 0.44098,1 -0.33992,0.55 -0.81648,1 -1.05902,1 C 129.19844,45 129,44.55 129,44 Z m 26.15949,-7.75 c -3.94346,-5.255908 -3.99927,-5.406284 -0.64947,-1.75 3.304,3.606289 6.03582,7.5 5.26199,7.5 -0.16409,0 -2.23973,-2.5875 -4.61252,-5.75 z M 131,37.889107 c 1.925,-1.826043 3.3875,-3.67311 3.25,-4.104593 -0.33853,-1.062339 0.92604,-0.963249 2.75,0.215486 1.3281,0.858286 1.32556,0.971129 -0.0222,0.984687 -0.83718,0.0084 -3.31218,1.412379 -5.5,3.119905 L 127.5,41.209184 Z m 11.44113,-5.333941 C 143.50875,31.699825 144.82125,31 145.3578,31 c 1.27054,0 0.70323,0.4619 -2.3578,1.919712 -2.35727,1.122645 -2.38918,1.101832 -0.55887,-0.364546 z m 5.37137,-2.23828 c 0.72187,-0.288871 1.58437,-0.253344 1.91667,0.07895 0.33229,0.332292 -0.25834,0.568641 -1.3125,0.52522 -1.16495,-0.04798 -1.4019,-0.284941 -0.60417,-0.604167 z m -1.95172,-12.376237 -2.36078,-2.05935 2.75,1.67436 c 1.5125,0.920899 2.75,1.847606 2.75,2.059351 0,0.780843 -0.83549,0.33522 -3.13922,-1.674361 z M 135.40499,13.75 133.5,11.5 l 2.18699,1.847961 c 1.23177,1.040825 2.71876,1.519304 3.40451,1.095492 0.77682,-0.480107 0.95925,-0.334585 0.50399,0.402039 -1.04528,1.691293 -2.05439,1.427486 -4.1905,-1.095492 z"
         id="path11" />
      <path
         style="fill:#2e0102"
         d="m 95.5,198 c -0.339919,-0.55 -0.168034,-1 0.381966,-1 0.55,0 1.278115,0.45 1.618034,1 0.339919,0.55 0.168034,1 -0.381966,1 -0.55,0 -1.278115,-0.45 -1.618034,-1 z m -14.5,-2.90179 -2.5,-2.43944 4,2.34427 c 5.139763,3.01225 5.042186,2.91982 2.863032,2.71215 C 84.338365,197.61754 82.375,196.4399 81,195.09821 Z M 125,196 c 0,-0.55 0.47656,-1 1.05902,-1 0.58246,0 0.7809,0.45 0.44098,1 -0.33992,0.55 -0.81648,1 -1.05902,1 C 125.19844,197 125,196.55 125,196 Z m 5.5,-2 c -0.33992,-0.55 -0.14148,-1 0.44098,-1 0.58246,0 1.05902,0.45 1.05902,1 0,0.55 -0.19844,1 -0.44098,1 -0.24254,0 -0.7191,-0.45 -1.05902,-1 z m 2.5,-0.81479 c 0,-0.44813 1.5,-1.53009 3.33333,-2.40434 2.60392,-1.24172 3.33334,-1.30311 3.33334,-0.28055 0,0.75169 -0.63751,1.06436 -1.49738,0.7344 -1.06082,-0.40707 -1.25595,-0.18395 -0.66929,0.76528 0.60515,0.97915 0.38009,1.16796 -0.83596,0.70132 C 135.74882,192.35012 135,192.49865 135,193.03138 135,193.56412 134.55,194 134,194 c -0.55,0 -1,-0.36665 -1,-0.81479 z M 74,192 c -2.059551,-0.65958 -2.147641,-0.8155 -0.5,-0.88501 1.1,-0.0464 2.675,0.35185 3.5,0.88501 1.752143,1.13232 0.535677,1.13232 -3,0 z M 62.285733,187.30055 C 61.067887,186.03525 60.435642,185 60.880746,185 c 0.975158,0 4.613348,3.88818 4.02979,4.30668 -0.225795,0.16194 -1.406956,-0.74082 -2.624803,-2.00613 z m 79.447597,0.57536 c 0.67834,-0.68342 1.48524,-0.99067 1.79313,-0.68278 0.30789,0.30789 -0.24711,0.86705 -1.23333,1.24258 -1.4252,0.54268 -1.54006,0.42782 -0.5598,-0.5598 z M 52.383647,184.74365 C 51.347641,183.5286 51.175,183.02879 52,183.63296 c 0.825,0.60417 2.152836,1.30153 2.950746,1.54968 0.929436,0.28906 1.067295,0.68818 0.383647,1.11069 -0.586905,0.36273 -1.91474,-0.33463 -2.950746,-1.54968 z M 92,178.9581 c 8.0747,-1.11623 14.79547,-1.09806 15.5,0.0419 0.39941,0.64626 -3.20554,0.95019 -10.190983,0.8592 C 87.873363,179.73629 87.198815,179.6218 92,178.9581 Z m -6.488909,-2.37823 c -3.668833,-0.86963 -4.507764,-1.36717 -3.170537,-1.88031 1.741616,-0.66832 6.0527,-0.0597 8.158845,1.15185 0.54967,0.3162 2.34967,0.45951 4,0.31848 2.3173,-0.19802 2.659019,-0.0223 1.500601,0.77154 -1.827609,1.25245 -3.99487,1.17775 -10.488909,-0.36156 z m 27.757939,-0.27286 c 0.97297,-0.25354 2.32297,-0.23687 3,0.0371 0.67703,0.27393 -0.11903,0.48137 -1.76903,0.46099 -1.65,-0.0204 -2.20394,-0.2445 -1.23097,-0.49804 z m 12.6148,-0.58749 c 0.42743,-0.42927 1.86592,-0.35031 3.19665,0.17545 2.27119,0.89734 2.22354,0.94519 -0.77713,0.78049 -1.75816,-0.0965 -2.84695,-0.52668 -2.41952,-0.95594 z M 73.5,175 c 2.73138,-1.17371 3.5,-1.17371 3.5,0 0,0.55 -1.2375,0.96837 -2.75,0.92971 C 71.813156,175.86743 71.72775,175.76156 73.5,175 Z m 46.3125,0.31689 c 0.72187,-0.28887 1.58437,-0.25335 1.91667,0.0789 0.33229,0.33229 -0.25834,0.56864 -1.3125,0.52522 -1.16495,-0.048 -1.4019,-0.28494 -0.60417,-0.60416 z M 127.5,174 c -0.33992,-0.55 0.0321,-1 0.82668,-1 0.79459,0 2.70138,-0.65197 4.23731,-1.44882 1.53594,-0.79685 3.25225,-1.16475 3.81403,-0.81755 0.56178,0.3472 -0.75595,1.41579 -2.9283,2.37466 -4.7737,2.10708 -5.16256,2.16536 -5.94972,0.89171 z m -61.992921,-0.98855 c -0.350339,-0.56686 0.05106,-0.7345 0.940983,-0.39301 1.732417,0.66479 2.049387,1.38156 0.610955,1.38156 -0.517541,0 -1.215913,-0.44485 -1.551938,-0.98855 z M 137,173.60699 c 0,-0.21616 0.69837,-0.661 1.55194,-0.98855 0.88992,-0.34149 1.29132,-0.17385 0.94098,0.39301 C 138.90566,173.96166 137,174.4169 137,173.60699 Z m -67.55887,-2.16216 c -1.864025,-1.49339 -1.851756,-1.51185 0.30887,-0.46481 1.2375,0.59969 2.25,1.29951 2.25,1.55516 0,0.76522 -0.518608,0.54424 -2.55887,-1.09035 z M 60.75,170.42803 c -3.089821,-1.67626 -3.560468,-3.87509 -1.121584,-5.23996 1.99137,-1.11442 0.32241,-2.44614 -3.308696,-2.64011 -1.288269,-0.0688 -2.375492,-0.55776 -2.416051,-1.08654 -0.04056,-0.52878 -0.540576,-1.52392 -1.111151,-2.21142 -2.219024,-2.67376 1.796128,-1.09906 5.687609,2.23062 3.342081,2.8596 3.702774,3.51196 2.25,4.06945 C 59.009563,166.21031 58.264614,169 59.80887,169 c 0.444879,0 1.682379,0.66069 2.75,1.4682 2.487159,1.88119 1.700555,1.86372 -1.80887,-0.0402 z m 80.58333,-0.013 c 0,-0.82561 0.56276,-1.28516 1.25058,-1.02123 0.68781,0.26394 1.49869,-0.16669 1.80195,-0.95696 0.30325,-0.79027 1.01549,-1.43686 1.58276,-1.43686 1.91486,0 1.04873,1.55853 -1.80195,3.24248 -2.44282,1.443 -2.83334,1.46679 -2.83334,0.17257 z m -3.82625,-0.4036 c -0.35034,-0.56686 0.0511,-0.7345 0.94098,-0.39301 1.73242,0.66479 2.04939,1.38156 0.61096,1.38156 -0.51754,0 -1.21592,-0.44485 -1.55194,-0.98855 z m -73.393112,-1.8906 c -1.312318,-1.00907 -1.965832,-2.09437 -1.452254,-2.41178 1.302978,-0.80528 3.65112,0.81473 3.929428,2.71096 0.281708,1.9194 0.431691,1.93752 -2.477174,-0.29918 z M 148.5,162.79634 c 4.02184,-3.07851 10.57647,-9.60509 13.35346,-13.29634 1.41338,-1.87871 1.8494,-2.15903 1.16656,-0.75 -0.59971,1.2375 -0.75243,2.25 -0.33936,2.25 0.41306,0 -1.54308,2.3625 -4.34697,5.25 -2.8039,2.8875 -5.3405,5.925 -5.6369,6.75 -0.3976,1.10671 -0.55959,1.00052 -0.61784,-0.40499 -0.0712,-1.71927 -0.24956,-1.75847 -1.82895,-0.4021 -0.9625,0.82658 -2.425,1.81718 -3.25,2.20132 -0.825,0.38414 -0.15,-0.33491 1.5,-1.59789 z m 7.22222,-0.84674 c 1.22222,-1.28617 2.41565,-2.13849 2.65206,-1.89404 0.23641,0.24444 -0.76359,1.29676 -2.22222,2.33849 L 153.5,164.2881 Z M 47.8125,159.31689 c 0.721875,-0.28887 1.584375,-0.25335 1.916667,0.0789 0.332291,0.33229 -0.258334,0.56864 -1.3125,0.52522 -1.164943,-0.048 -1.4019,-0.28494 -0.604167,-0.60416 z m -4.305421,-1.30544 c -0.350339,-0.56686 0.05106,-0.7345 0.940983,-0.39301 1.732417,0.66479 2.049387,1.38156 0.610955,1.38156 -0.517541,0 -1.215913,-0.44485 -1.551938,-0.98855 z M 159,158.62244 c 0,-0.20765 0.7875,-0.99515 1.75,-1.75 1.58606,-1.24387 1.62143,-1.2085 0.37756,0.37756 C 159.82119,158.91575 159,159.44548 159,158.62244 Z M 38.117341,150.80882 c -2.139995,-2.18884 -3.055487,-4.03751 -2.914666,-5.88562 0.190178,-2.49585 0.390593,-2.61074 2.719365,-1.55882 2.46862,1.1151 2.473969,1.1414 0.296008,1.45517 -3.251077,0.46838 -2.716578,2.5792 1.531952,6.04992 2.0625,1.68491 3.240896,3.07856 2.618657,3.097 -0.622238,0.0184 -2.53533,-1.4025 -4.251316,-3.15765 z M 71.5,150 c 0.995486,-1.1 2.034975,-2 2.309975,-2 0.275,0 -0.314489,0.9 -1.309975,2 -0.995486,1.1 -2.034975,2 -2.309975,2 -0.275,0 0.314489,-0.9 1.309975,-2 z m -0.27381,-4.57872 c 0.949405,-0.99123 1.94144,-1.58698 2.204522,-1.3239 0.263082,0.26308 -0.513704,1.07408 -1.72619,1.80223 -2.106309,1.26492 -2.127619,1.24361 -0.478332,-0.47833 z m 59.28089,-0.40983 c -0.35034,-0.56686 0.0511,-0.7345 0.94098,-0.39301 1.73242,0.66479 2.04939,1.38156 0.61096,1.38156 -0.51754,0 -1.21592,-0.44485 -1.55194,-0.98855 z m 35.26251,-1.95822 C 167.4244,140.14548 170,138.89541 170,141 c 0,0.55 -0.45,1 -1,1 -0.55,0 -0.8875,0.54205 -0.75,1.20455 0.1375,0.6625 -0.2,1.23189 -0.75,1.26531 -0.55,0.0334 -1.55369,0.41249 -2.23041,0.84236 -0.69312,0.44029 -0.47478,-0.54616 0.5,-2.25899 z m -80.916344,-1.30648 c 0.503846,-0.50384 1.980485,-0.74864 3.281419,-0.544 2.00168,0.31488 1.860839,0.45573 -0.916083,0.91609 -1.987219,0.32944 -2.920113,0.18269 -2.365336,-0.37209 z M 28.924314,138.25 26.5,135.5 l 2.75,2.42431 c 1.5125,1.33338 2.75,2.57088 2.75,2.75 0,0.78428 -0.809799,0.14598 -3.075686,-2.42431 z m 70.154633,1.16667 c 0.04798,-1.16495 0.284941,-1.4019 0.604167,-0.60417 0.288871,0.72187 0.253344,1.58437 -0.07895,1.91667 -0.332292,0.33229 -0.568641,-0.25834 -0.52522,-1.3125 z m 71.981583,-3.22969 c 1.95829,-1.66113 4.3912,-4.86234 5.40647,-7.1138 1.01527,-2.25146 2.03371,-3.9058 2.26321,-3.67631 1.35277,1.35278 -5.56436,10.94404 -9.23021,12.79856 -1.1,0.55648 -0.39776,-0.34732 1.56053,-2.00845 z M 66.5,136 c -0.339919,-0.55 -0.08638,-1 0.563428,-1 0.83586,0 0.779993,-0.51191 -0.190983,-1.75 -1.233339,-1.57263 -1.201096,-1.61589 0.318114,-0.42689 0.929808,0.72772 1.444163,1.96522 1.143011,2.75 C 67.685551,137.26182 67.330883,137.3444 66.5,136 Z m -36.237757,-2.69168 c 0.969234,-0.25283 1.505176,-0.87563 1.190983,-1.384 C 31.139033,131.41594 31.310379,131 31.833994,131 c 0.523616,0 1.21105,0.675 1.527632,1.5 0.430053,1.1207 -0.111845,1.47067 -2.143011,1.384 -1.715269,-0.0732 -2.068233,-0.28565 -0.956372,-0.57568 z M 94,133 c -0.825,-0.53316 -1.05,-0.96937 -0.5,-0.96937 0.55,0 1.675,0.43621 2.5,0.96937 0.825,0.53316 1.05,0.96937 0.5,0.96937 -0.55,0 -1.675,-0.43621 -2.5,-0.96937 z m 27.54271,0.0691 c -0.31644,-0.512 -0.11799,-1.21356 0.44098,-1.55902 0.55897,-0.34546 1.01631,0.0734 1.01631,0.9309 0,1.75653 -0.60006,2.01516 -1.45729,0.62812 z M 100.5,132 c 0.33992,-0.55 0.81648,-1 1.05902,-1 0.24254,0 0.44098,0.45 0.44098,1 0,0.55 -0.47656,1 -1.05902,1 -0.58246,0 -0.7809,-0.45 -0.44098,-1 z m 24.23333,-0.12409 c 0.67834,-0.68342 1.48524,-0.99067 1.79313,-0.68278 0.30789,0.30789 -0.24711,0.86705 -1.23333,1.24258 -1.4252,0.54268 -1.54006,0.42782 -0.5598,-0.5598 z m 10.93334,-1.54258 c -1.23211,-1.2321 -0.71202,-2.61546 0.58333,-1.55159 0.6875,0.56464 2.375,1.23346 3.75,1.48626 2.21523,0.40728 2.14878,0.47515 -0.58333,0.59582 -1.69584,0.0749 -3.38334,-0.16382 -3.75,-0.53049 z M 28.783487,128.25 c -1.515134,-1.73698 -4.584301,-7.23214 -3.476207,-6.22393 0.899626,0.81853 5.671345,7.97393 5.317571,7.97393 -0.173182,0 -1.001796,-0.7875 -1.841364,-1.75 z M 101.5,126 c -0.33992,-0.55 -0.14148,-1 0.44098,-1 0.58246,0 1.05902,0.45 1.05902,1 0,0.55 -0.19844,1 -0.44098,1 -0.24254,0 -0.7191,-0.45 -1.05902,-1 z m 7.51531,-0.75 c 0.009,-0.99868 0.33573,-1.32068 0.76164,-0.75 0.41047,0.55 1.15358,1.3375 1.65135,1.75 0.49777,0.4125 0.15503,0.75 -0.76163,0.75 -0.92647,0 -1.65987,-0.77721 -1.65136,-1.75 z M 162,123.11803 c 0,-0.55 0.45,-1.27811 1,-1.61803 0.55,-0.33992 1,-0.16803 1,0.38197 0,0.55 -0.45,1.27811 -1,1.61803 -0.55,0.33992 -1,0.16803 -1,-0.38197 z m 12.03544,0.13197 c 0.0195,-0.4125 0.67854,-1.875 1.46456,-3.25 1.13745,-1.98976 1.43636,-2.13079 1.46456,-0.69098 0.0195,0.99496 0.43829,1.56004 0.93066,1.25574 0.97644,-0.60348 2.48014,2.39321 1.62832,3.24503 -0.28795,0.28795 -0.52354,0.0943 -0.52354,-0.43032 0,-0.52462 -0.90973,-1.02239 -2.02161,-1.10614 -1.11189,-0.0838 -1.76033,0.27048 -1.44099,0.78719 0.31935,0.51671 0.10408,0.93948 -0.47838,0.93948 -0.58246,0 -1.04307,-0.3375 -1.02358,-0.75 z M 152,122 c 0,-0.55 0.70156,-1 1.55902,-1 0.85746,0 1.2809,0.45 0.94098,1 -0.33992,0.55 -1.04148,1 -1.55902,1 C 152.42344,123 152,122.55 152,122 Z m 8.5,-2 c 0.99549,-1.1 2.03498,-2 2.30998,-2 0.275,0 -0.31449,0.9 -1.30998,2 -0.99549,1.1 -2.03498,2 -2.30998,2 -0.275,0 0.31449,-0.9 1.30998,-2 z M 31.34248,118.32419 c 0.371697,-0.3717 -0.340803,-1.83098 -1.583334,-3.24285 L 27.5,112.51431 l 2.340124,1.97939 c 1.287069,1.08867 3.048329,1.98545 3.913913,1.99285 0.865583,0.007 1.762527,0.57595 1.993209,1.26345 0.267975,0.79865 -0.573555,1.25 -2.330579,1.25 -1.5125,0 -2.445884,-0.30412 -2.074187,-0.67581 z M 144.87244,117.25 c -1.24387,-1.58606 -1.2085,-1.62143 0.37756,-0.37756 1.66575,1.30637 2.19548,2.12756 1.37244,2.12756 -0.20765,0 -0.99515,-0.7875 -1.75,-1.75 z M 27,116.5 c -1.375,-0.78602 -2.023508,-1.44508 -1.44113,-1.46456 0.582379,-0.0195 1.932379,0.62525 3,1.43276 2.468977,1.86744 1.680384,1.88353 -1.55887,0.0318 z m 152.84247,-3.75 c -0.0866,-2.3375 -0.10078,-4.925 -0.0314,-5.75 0.0694,-0.825 -0.0901,-2.11318 -0.3543,-2.86262 -0.40552,-1.15017 -0.75144,-1.15017 -2.21859,0 -1.57541,1.23503 -1.6087,1.1976 -0.35549,-0.39971 2.27501,-2.89968 3.74132,-0.39149 3.93769,6.73561 0.0989,3.5897 -0.0452,6.52672 -0.32027,6.52672 -0.27505,0 -0.57099,-1.9125 -0.65763,-4.25 z M 60.085598,114 c -0.03023,-0.825 0.381246,-2.175 0.914402,-3 1.181322,-1.82797 1.181322,-0.24909 0,2.5 -0.566682,1.31874 -0.878155,1.48906 -0.914402,0.5 z M 102.5,112 c -0.33992,-0.55 -0.16803,-1 0.38197,-1 0.55,0 1.27811,0.45 1.61803,1 0.33992,0.55 0.16803,1 -0.38197,1 -0.55,0 -1.27811,-0.45 -1.61803,-1 z m 47.5,-1.87756 c 0,-0.48265 0.74867,-1.49515 1.66372,-2.25 1.5086,-1.24448 1.55194,-1.16266 0.46482,0.87756 C 150.88863,111.07696 150,111.64993 150,110.12244 Z M 87.5,107 c -0.339919,-0.55 -0.141476,-1 0.440983,-1 C 88.523442,106 89,106.45 89,107 c 0,0.55 -0.198442,1 -0.440983,1 -0.242541,0 -0.719098,-0.45 -1.059017,-1 z m 45,0 c 0.33992,-0.55 0.81648,-1 1.05902,-1 0.24254,0 0.44098,0.45 0.44098,1 0,0.55 -0.47656,1 -1.05902,1 -0.58246,0 -0.7809,-0.45 -0.44098,-1 z m 21.37244,-0.75 c -1.24387,-1.58606 -1.2085,-1.62143 0.37756,-0.37756 1.66575,1.30637 2.19548,2.12756 1.37244,2.12756 -0.20765,0 -0.99515,-0.7875 -1.75,-1.75 z m 5.73057,0.91667 c -0.28327,-0.45834 0.14017,-0.83334 0.94098,-0.83334 0.8008,0 1.45601,0.375 1.45601,0.83334 0,0.45833 -0.42344,0.83333 -0.94098,0.83333 -0.51754,0 -1.17275,-0.375 -1.45601,-0.83333 z M 27.306177,105.35644 c -0.656603,-0.26711 -0.943999,-1.13669 -0.638659,-1.93239 0.377922,-0.98485 0.07385,-1.26203 -0.952423,-0.86822 -1.82054,0.69861 -4.754051,-3.125077 -4.624907,-6.028336 0.05947,-1.336872 0.40549,-0.93722 1.015835,1.173276 0.934174,3.23025 2.893977,5.42154 2.893977,3.2358 0,-1.811772 2.670381,0.69496 3.298316,3.09619 0.282944,1.08198 0.444074,1.93171 0.358064,1.88829 -0.08601,-0.0434 -0.6936,-0.29749 -1.350203,-0.56461 z M 172,105.03138 c 0,-0.53273 0.675,-0.70959 1.5,-0.39301 0.825,0.31659 1.5,0.75246 1.5,0.96862 0,0.21615 -0.675,0.39301 -1.5,0.39301 -0.825,0 -1.5,-0.43588 -1.5,-0.96862 z m -85,-0.38656 c 0,-0.71345 6.065268,-1.34823 6.479417,-0.67812 0.215247,0.34827 -1.154565,0.73734 -3.044029,0.86459 C 88.545925,104.95854 87,104.87463 87,104.64482 Z m 48.54271,-0.57572 c -0.31644,-0.512 -0.11065,-1.21809 0.45729,-1.5691 0.56794,-0.35101 0.79294,-1.02601 0.5,-1.5 -0.29294,-0.47399 -0.11479,-1.120041 0.3959,-1.435665 0.77149,-0.476802 0.80769,1.523465 0.0622,3.435665 -0.10721,0.275 -0.14164,0.8375 -0.0765,1.25 0.16529,1.04682 -0.64801,0.93693 -1.33887,-0.1809 z M 142,103.62244 c 0,-0.20765 0.7875,-0.99515 1.75,-1.75 1.58606,-1.24387 1.62143,-1.2085 0.37756,0.37756 C 142.82119,103.91575 142,104.44548 142,103.62244 Z m 19.62354,-1.1611 c -0.96498,-2.514693 -0.68031,-3.163554 0.49853,-1.13634 0.58369,1.00375 0.8506,2.03566 0.59313,2.29313 -0.25747,0.25747 -0.74872,-0.26309 -1.09166,-1.15679 z M 151.75,101.33772 c 0.6875,-0.27741 1.8125,-0.27741 2.5,0 0.6875,0.27741 0.125,0.50439 -1.25,0.50439 -1.375,0 -1.9375,-0.22698 -1.25,-0.50439 z M 83.5,100 c 0.339919,-0.55 0.816476,-1 1.059017,-1 C 84.801558,99 85,99.45 85,100 c 0,0.55 -0.476558,1 -1.059017,1 -0.582459,0 -0.780902,-0.45 -0.440983,-1 z M 78.426999,98.521471 C 77.36715,97.719646 76.95,97.056186 77.5,97.047116 c 1.485942,-0.0245 4.025731,1.760487 3.398039,2.388179 -0.299222,0.299222 -1.41119,-0.111999 -2.47104,-0.913824 z M 174.15789,98 c 0,-1.375 0.22698,-1.9375 0.50439,-1.25 0.27741,0.6875 0.27741,1.8125 0,2.5 -0.27741,0.6875 -0.50439,0.125 -0.50439,-1.25 z M 20.194949,89.5 c 0.02038,-1.65 0.244498,-2.203936 0.498042,-1.230968 0.253543,0.972967 0.236869,2.322967 -0.03705,3 C 20.382014,91.946064 20.174569,91.15 20.194949,89.5 Z M 169.25,91.337719 C 167.38575,90.585478 167.51735,77 169.38889,77 c 1.54314,0 1.65531,3.109536 0.1511,4.188813 -0.61087,0.438295 -0.58295,2.52954 0.0768,5.75 0.57023,2.783653 1.00223,5.025661 0.96002,4.98224 -0.0422,-0.04342 -0.63926,-0.305921 -1.32676,-0.583334 z m 1.91004,-3.505932 c -0.088,-1.467516 -0.45127,-3.492516 -0.80722,-4.5 -0.49621,-1.404476 -0.36258,-1.569856 0.57284,-0.708945 0.68497,0.630408 1.03898,2.603931 0.80722,4.5 -0.33557,2.745263 -0.44275,2.877913 -0.57284,0.708945 z M 166.19495,86.5 c 0.0204,-1.65 0.2445,-2.203936 0.49804,-1.230968 0.25354,0.972967 0.23687,2.322967 -0.0371,3 C 166.38201,88.946064 166.17457,88.15 166.19495,86.5 Z M 17.964205,80.835646 c -1.145119,-2.232856 -1.118297,-2.259678 0.609456,-0.609456 0.99401,0.949405 1.533036,2.000446 1.197835,2.335647 -0.3352,0.335201 -1.148481,-0.441585 -1.807291,-1.726191 z M 16,74.725684 c 0,-1.984208 0.423345,-3.869291 0.940766,-4.189075 0.560939,-0.34668 0.705664,0.941653 0.358458,3.190983 C 16.524094,78.749184 16,79.151804 16,74.725684 Z M 167.19495,72.5 c 0.0204,-1.65 0.2445,-2.203936 0.49804,-1.230968 0.25354,0.972967 0.23687,2.322967 -0.0371,3 C 167.38201,74.946064 167.17457,74.15 167.19495,72.5 Z M 18.015313,66.916667 C 18.023735,65.5875 18.473106,63.825 19.013915,63 c 0.691794,-1.055325 0.792897,-0.462425 0.341047,2 -0.791387,4.312786 -1.359986,5.126293 -1.339649,1.916667 z m 148.063637,0.5 c 0.048,-1.164943 0.28494,-1.4019 0.60416,-0.604167 0.28887,0.721875 0.25335,1.584375 -0.0789,1.916667 -0.3323,0.332291 -0.56864,-0.258334 -0.52522,-1.3125 z M 75.157104,61.872445 C 74.949949,55.770612 77.09919,53.654746 80.276748,56.832303 81.468981,58.024536 81.942589,59 81.329211,59 c -0.613378,0 -1.388615,-0.712421 -1.722748,-1.583158 -1.141969,-2.975923 -3.10581,-0.767173 -3.699359,4.160704 L 75.314207,66.5 Z M 62.5,63.29776 c -1.943035,-1.503625 -1.928794,-1.530296 0.5,-0.936388 1.375,0.336225 3.8125,0.617463 5.416667,0.624973 3.514988,0.01646 3.155069,0.52404 -0.916667,1.292748 -1.928854,0.364151 -3.714097,0.01377 -5,-0.981333 z M 53,63.271109 c 0.825,-0.314049 1.728024,-0.915445 2.006721,-1.336436 0.278696,-0.420991 1.628696,-0.144462 3,0.614509 2.413588,1.335841 2.349448,1.378556 -2.006721,1.336435 -2.475,-0.02393 -3.825,-0.30046 -3,-0.614508 z M 43.872445,61.25 C 42.628574,59.663944 42.663944,59.628574 44.25,60.872445 c 1.14545,0.898324 1.75,0.984688 1.75,0.25 0,-0.678961 1.679199,-1.059213 4.25,-0.962408 3.714296,0.139865 3.837951,0.211054 0.981016,0.564774 -1.797942,0.222606 -3.008884,0.825589 -2.690983,1.339963 1.061772,1.717983 -3.274959,0.960963 -4.667588,-0.814774 z M 20,60.357796 C 20,59.821251 20.699825,58.508751 21.555166,57.44113 23.021544,55.610824 23.042357,55.642732 21.919712,58 20.4619,61.061032 20,61.628339 20,60.357796 Z m 62.8125,-0.04091 c 0.721875,-0.288871 1.584375,-0.253344 1.916667,0.07895 0.332291,0.332292 -0.258334,0.568641 -1.3125,0.52522 -1.164943,-0.04798 -1.4019,-0.284941 -0.604167,-0.604167 z m 25.59201,-0.471394 c -0.45785,-0.740814 -0.27252,-0.881954 0.51719,-0.393882 0.73528,0.454428 2.91093,-0.518863 5.40451,-2.417743 l 4.17379,-3.178371 -3.91661,3.572252 c -4.2303,3.858366 -5.08245,4.191804 -6.17888,2.417744 z M 38.507079,59.011454 c -0.350339,-0.56686 0.05106,-0.734507 0.940983,-0.393011 C 41.180479,59.283234 41.497449,60 40.059017,60 39.541476,60 38.843104,59.555154 38.507079,59.011454 Z M 97,58.606989 c 0,-0.216156 0.698372,-0.661002 1.551938,-0.988546 0.889925,-0.341496 1.291322,-0.173849 0.940983,0.393011 C 98.905663,58.961658 97,59.416902 97,58.606989 Z M 33.5,56.464812 C 30.987525,55.254653 30.90627,55.117739 33,55.62231 c 1.375,0.331364 2.9275,1.001902 3.45,1.490085 1.296156,1.211026 0.584345,1.05477 -2.95,-0.647583 z m 73.12354,-0.0035 c -0.96498,-2.514694 -0.68031,-3.163555 0.49853,-1.136338 0.58369,1.003751 0.8506,2.035659 0.59313,2.293128 -0.25747,0.257469 -0.74872,-0.263087 -1.09166,-1.15679 z M 24.274197,54.989964 C 24.142481,53.24139 24.309917,53.16706 25.561393,54.418536 27.341503,56.198646 27.388505,57 25.712804,57 25.004847,57 24.357473,56.095484 24.274197,54.989964 Z m 62.276498,0.738524 c 0.268359,-0.699332 1.491735,-1.883482 2.718615,-2.631445 2.127454,-1.296995 2.118493,-1.23815 -0.193624,1.271512 -2.706924,2.938201 -3.241013,3.225855 -2.524991,1.359933 z m 9.528252,-0.311821 c 0.04798,-1.164943 0.284941,-1.4019 0.604167,-0.604167 0.288871,0.721875 0.253344,1.584375 -0.07895,1.916667 -0.332292,0.332291 -0.568641,-0.258334 -0.52522,-1.3125 z m 67.000003,-1 c 0.048,-1.164943 0.28494,-1.4019 0.60416,-0.604167 0.28887,0.721875 0.25335,1.584375 -0.0789,1.916667 -0.3323,0.332291 -0.56864,-0.258334 -0.52522,-1.3125 z m -41.87173,-3.362824 c 1.18289,-2.21609 2.29712,-3.882836 2.47608,-3.703879 0.47658,0.476586 -2.65343,6.513544 -3.71836,7.171704 -0.49963,0.308786 0.0594,-1.251735 1.24228,-3.467825 z m -23.128273,0.362824 c 0.04798,-1.164943 0.284941,-1.4019 0.604167,-0.604167 0.288871,0.721875 0.253344,1.584375 -0.07895,1.916667 -0.332292,0.332291 -0.568641,-0.258334 -0.52522,-1.3125 z M 124,45.622445 c 0,-0.207656 0.7875,-0.995156 1.75,-1.75 1.58606,-1.243871 1.62143,-1.208501 0.37756,0.377555 C 124.82119,45.915748 124,46.445479 124,45.622445 Z m 4.14983,-1.799641 c -0.11053,-1.974988 0.82796,-3.483169 3.57801,-5.75 C 133.77816,36.382762 136.2755,35 137.2775,35 c 1.002,0 3.14947,-0.686556 4.77216,-1.52568 C 143.67235,32.635196 145,32.17364 145,32.44864 145,33.293216 139.20288,36 137.39405,36 c -2.86902,0 -8.22891,4.78697 -8.67782,7.750247 L 128.29966,46.5 Z M 159.14426,43.25 c -1.0912,-2.550044 -1.06651,-2.608858 0.33949,-0.80887 0.83394,1.067621 1.51625,2.305121 1.51625,2.75 0,1.519907 -0.67833,0.81036 -1.85574,-1.94113 z m -28.81093,0.206011 C 130.33333,42.655205 130.70833,42 131.16667,42 131.625,42 132,42.423442 132,42.940983 c 0,0.517541 -0.375,1.172746 -0.83333,1.456011 -0.45834,0.283266 -0.83334,-0.140176 -0.83334,-0.940983 z m 25.2381,-5.02744 C 153.28557,36.142709 153.64343,35.367335 156,37.5 c 1.1,0.995486 2,1.965231 2,2.154988 0,0.743146 -0.92728,0.274874 -2.42857,-1.226417 z M 151.40499,32.75 149.5,30.5 l 2.25,1.904988 C 153.86444,34.195206 154.45524,35 153.65499,35 c -0.18976,0 -1.20226,-1.0125 -2.25,-2.25 z m -2.89791,-13.738546 c -0.35034,-0.56686 0.0511,-0.734507 0.94098,-0.393011 C 151.18048,19.283234 151.49745,20 150.05902,20 c -0.51754,0 -1.21592,-0.444846 -1.55194,-0.988546 z M 135.87244,13.25 c -1.26951,-1.618755 -1.22245,-1.639977 0.62756,-0.282968 1.1,0.806868 2.1875,1.594368 2.41667,1.75 C 139.14583,14.872665 138.86343,15 138.28911,15 c -0.57432,0 -1.66182,-0.7875 -2.41667,-1.75 z"
         id="path10" />
      <path
         style="fill:#010000"
         d="m 91.25,198.31067 c 0.9625,-0.25152 2.5375,-0.25152 3.5,0 0.9625,0.25153 0.175,0.45733 -1.75,0.45733 -1.925,0 -2.7125,-0.2058 -1.75,-0.45733 z M 76.370048,195.55961 C 72.701968,193.96332 71.140964,192 73.539854,192 c 1.970064,0 8.261822,2.87009 9.035298,4.1216 0.805913,1.30399 -2.632999,0.99253 -6.205104,-0.56199 z M 128,195 c 0.825,-0.53316 1.95,-0.96937 2.5,-0.96937 0.55,0 0.325,0.43621 -0.5,0.96937 -0.825,0.53316 -1.95,0.96937 -2.5,0.96937 -0.55,0 -0.325,-0.43621 0.5,-0.96937 z m 12.5,-5.41836 c 4.02231,-2.58573 6.5,-3.26521 6.5,-1.78253 0,0.43951 -1.6875,1.40311 -3.75,2.14133 -6.49791,2.32575 -6.85379,2.27932 -2.75,-0.3588 z m -81.235015,-0.90772 c -3.49071,-1.26671 -4.350013,-2.97046 -1.768637,-3.50671 C 59.328071,184.78669 64,187.55655 64,189.02305 c 0,1.19415 -0.605091,1.14954 -4.735015,-0.34913 z M 48.5,182.531 c -1.65,-1.35249 -2.515941,-2.47526 -1.924314,-2.49504 0.591627,-0.0198 2.132569,1.08904 3.424314,2.46404 2.98456,3.17692 2.353842,3.18995 -1.5,0.031 z m 34.25,-4.69328 c -4.918683,-1.79646 -2.900239,-2.69496 3,-1.33544 3.1625,0.72869 6.875,1.5275 8.25,1.77513 1.375,0.24762 0.025,0.47598 -3,0.50746 -3.025,0.0315 -6.7375,-0.39474 -8.25,-0.94715 z m 9.909748,-1.8167 c -13.515667,-2.46018 -25.725479,-7.66801 -34.328045,-14.64189 -4.890431,-3.96455 -7.76551,-4.53425 -4.3077,-0.85358 l 2.372631,2.52555 -3.948317,-1.90181 c -2.171574,-1.04599 -6.055495,-2.90394 -8.630936,-4.12876 -2.57544,-1.22483 -4.923817,-2.85551 -5.218615,-3.62375 -0.654516,-1.70564 0.572488,-1.82553 2.184567,-0.21345 0.650834,0.65084 1.428082,0.93859 1.727218,0.63945 0.299137,-0.29913 -1.043363,-1.75454 -2.983333,-3.23422 -4.031755,-3.07517 -4.596898,-5.56755 -1.277218,-5.63276 1.800594,-0.0354 1.451056,-0.45732 -1.75,-2.11254 -4.718129,-2.43969 -9.5,-6.70184 -9.5,-8.46748 0,-0.88026 1.081337,-1.07456 3.655475,-0.65684 3.979922,0.64586 3.969292,0.13572 -0.09329,-4.47737 -2.93634,-3.33423 -7.638977,-12.3083 -6.995475,-13.34951 0.298171,-0.48245 2.299714,0.0195 4.447872,1.11538 4.432944,2.26152 8.369161,2.63951 7.732665,0.74256 -0.230682,-0.6875 -1.107191,-1.25678 -1.947798,-1.26507 -2.081591,-0.0205 -4.640376,-2.27664 -6.365385,-5.61244 -1.875502,-3.62682 -1.868374,-6.25313 0.01501,-5.53041 1.028877,0.39482 1.273839,0.0634 0.844766,-1.14301 -1.098136,-3.08752 -2.536619,-4.424276 -3.34808,-3.1113 -1.268885,2.05309 -2.911667,-2.506477 -4.072521,-11.303359 -0.601275,-4.556426 -1.718729,-8.994844 -2.483232,-9.863152 -1.794326,-2.037961 -1.751762,-4.340348 0.223519,-12.090492 2.290339,-8.9863 3.885797,-11.774458 6.366451,-11.125753 2.16274,0.56557 2.862285,-1.23754 0.770025,-1.984776 -0.6875,-0.245536 -0.968886,-0.75165 -0.625302,-1.124698 0.343583,-0.373048 3.982077,0.915345 8.085541,2.863096 C 37.313703,58.406386 41.139989,60 41.713097,60 42.286204,60 43.315311,60.675 44,61.5 c 1.368595,1.649057 5.493409,2.107369 4.5,0.5 -0.367803,-0.595118 0.822949,-1 2.940983,-1 3.691058,0 4.873173,1.509927 1.809017,2.310674 -0.9625,0.251528 0.275,0.502633 2.75,0.558012 3.243971,0.07259 4.081324,-0.169881 3,-0.868686 -1.319758,-0.852893 -1.312684,-0.971214 0.05887,-0.984687 0.857379,-0.0084 2.407378,0.605131 3.444442,1.36345 1.160166,0.848335 3.294162,1.189832 5.546974,0.887667 2.013771,-0.270104 4.626272,0.02528 5.805558,0.65642 C 75.899616,66.016643 76,65.860804 76,61.594201 76,56.045817 77.529765,54.944969 80.475719,58.373389 82.718734,60.983749 85,61.842617 85,60.076725 c 0,-1.897155 5.526964,-7.398958 8.811394,-8.77128 3.9348,-1.644065 5.127531,-1.038549 3.400751,1.726465 -1.456947,2.332942 -1.482862,3.012452 -0.189474,4.96809 0.851417,1.287364 1.239078,1.196143 2.734688,-0.643501 0.958451,-1.178925 2.695791,-2.427912 3.860751,-2.775526 1.69566,-0.505972 2.36982,-0.02432 3.3802,2.414956 1.81867,4.390643 2.72044,4.561402 6.8279,1.292928 2.02059,-1.607859 4.43986,-3.208267 5.37618,-3.556463 0.93631,-0.348195 2.60153,-2.606839 3.70049,-5.01921 C 125.2268,44.611861 128,41.728041 128,44.412739 c 0,1.347751 0.37388,1.457534 2,0.587261 2.3116,-1.237131 2.74005,-3.497963 0.5,-2.638374 -2.66395,1.022253 -1.59419,-1.188003 1.84439,-3.810735 C 134.18381,37.147901 136.44209,36 137.3628,36 c 0.9207,0 3.98068,-1.206123 6.79994,-2.680273 l 5.12592,-2.680272 2.89119,3.430272 C 153.77,35.956377 155.67353,38.175 156.40991,39 161.90151,45.152487 168,69.510038 168,85.291175 c 0,4.60652 0.30158,8.67707 0.67017,9.045666 0.3686,0.368596 1.7267,-0.02209 3.01801,-0.868187 3.21935,-2.109397 3.70974,-0.427036 1.90344,6.53 -0.7852,3.024256 -1.21049,5.715806 -0.94508,5.981226 0.26542,0.26541 1.79347,-0.26978 3.39567,-1.18932 1.6022,-0.91954 3.07403,-1.36109 3.27071,-0.98122 0.19669,0.37986 0.44343,3.62618 0.5483,7.21404 0.13115,4.48653 -0.27584,7.14055 -1.30346,8.5 -1.48645,1.96643 -1.49452,1.96631 -1.56599,-0.0234 -0.06,-1.67146 -0.32453,-1.53374 -1.61007,0.83841 -1.8233,3.36445 -1.32844,4.23863 1.53265,2.70743 C 178.36402,122.27 179,122.25543 179,122.99806 c 0,2.28525 -5.06758,10.90994 -7.56421,12.87379 -1.44677,1.13803 -4.18811,4.65582 -6.09186,7.81731 -1.90375,3.1615 -5.00455,7.63143 -6.89066,9.93318 -6.77194,8.26425 -22.3367,17.5493 -34.95327,20.85113 -7.28157,1.90563 -24.207088,2.75494 -30.840252,1.54755 z M 70.655609,151.44911 C 72.843388,149.78041 74,148.05123 74,146.44911 74,145.1021 73.641326,144 73.202948,144 c -1.58351,0 -8.416064,7.84615 -7.758736,8.90973 0.954968,1.54517 1.453953,1.40532 5.211397,-1.46062 z m -8.2443,-1.78857 c 1.736236,-1.38927 2.616052,-2.80725 2.179794,-3.51313 C 63.664857,144.64871 58,148.44816 58,150.56809 c 0,2.00141 1.044385,1.78654 4.411309,-0.90755 z M 126.5,146 c 0.76001,-3.46029 1.16921,-3.60934 3.67739,-1.33946 2.68037,2.4257 3.36149,0.90829 1.05617,-2.35296 -1.44632,-2.04607 -1.75577,-3.41816 -1.1409,-5.05869 1.03243,-2.75463 0.19672,-5.24889 -1.75867,-5.24889 -0.79861,0 -1.17391,-0.45 -0.83399,-1 0.78629,-1.27225 -0.65196,-1.27292 -3.99507,-0.002 -1.44391,0.54897 -2.34983,1.44381 -2.01317,1.98854 0.33667,0.54473 0.0127,0.76042 -0.71985,0.4793 -0.84294,-0.32347 -1.40101,0.32324 -1.52004,1.76148 -0.12811,1.54783 0.69224,2.77785 2.57225,3.85683 2.44946,1.40579 2.7156,2.05338 2.36308,5.74997 -0.46011,4.82467 1.31288,5.71834 2.3128,1.16575 z M 86,143 c -0.825,-0.53316 -2.4,-0.96937 -3.5,-0.96937 -1.656136,0 -1.742102,0.16666 -0.5,0.96937 0.825,0.53316 2.4,0.96937 3.5,0.96937 1.656136,0 1.742102,-0.16666 0.5,-0.96937 z m 7,-2.5 c 5.393169,-1.90282 6.914509,-1.90753 4.44113,-0.0137 -1.769534,1.35488 -1.64531,1.38746 1.405243,0.36858 2.430057,-0.81164 2.977707,-1.35133 1.999997,-1.97095 -1.077761,-0.68303 -1.036294,-0.85632 0.20785,-0.86858 0.85482,-0.008 3.66732,-1.3554 6.25,-2.99329 3.90152,-2.47427 4.69578,-3.48913 4.69578,-6 C 112,127.35991 111.61877,126 111.15281,126 c -0.46595,0 -1.33549,-1.0125 -1.93232,-2.25 l -1.08513,-2.25 -0.0677,2.29966 c -0.0838,2.84629 -2.25206,7.15224 -4.73145,9.39606 -3.08517,2.79204 -10.83505,4.05012 -17.028589,2.76435 -4.564925,-0.94768 -5.763998,-1.69255 -7.885706,-4.89867 -1.3762,-2.07958 -2.76786,-5.41823 -3.092577,-7.41923 -0.79836,-4.91972 1.358401,-12.0964 4.715154,-15.68982 2.436754,-2.60855 3.43899,-2.95605 8.606698,-2.98415 5.162324,-0.0281 5.637174,-0.19227 4.045787,-1.399 -1.340637,-1.01659 -1.468858,-1.4927 -0.5,-1.85658 2.408158,-0.90445 -6.631625,-4.037982 -11.902473,-4.125846 -3.637994,-0.06064 -5.595285,0.393496 -6.5,1.508164 -0.711988,0.877216 -2.766653,2.602212 -4.565922,3.833332 -3.099293,2.12063 -5.331961,5.93674 -7.305238,12.48621 -0.66382,2.20328 -0.283168,4.6252 1.559886,9.9249 1.340891,3.85574 3.072566,7.64501 3.848167,8.42061 1.649053,1.64905 17.413397,8.19854 19.792856,8.22319 C 88.017624,141.99243 90.661701,141.325 93,140.5 Z m 17.07895,-12.08333 c 0.048,-1.16495 0.28494,-1.4019 0.60416,-0.60417 0.28887,0.72187 0.25335,1.58437 -0.0789,1.91667 -0.3323,0.33229 -0.56864,-0.25834 -0.52522,-1.3125 z M 76,108.62244 c 0,-0.20765 0.7875,-0.99515 1.75,-1.75 1.586056,-1.24387 1.621426,-1.2085 0.377555,0.37756 C 76.821186,108.91575 76,109.44548 76,108.62244 Z m 5.8125,-9.305554 c 0.721875,-0.288871 1.584375,-0.253344 1.916667,0.07895 0.332291,0.332292 -0.258334,0.568641 -1.3125,0.52522 -1.164943,-0.04798 -1.4019,-0.284941 -0.604167,-0.604167 z m -8.166108,39.679724 c -2.119485,-1.05803 -4.492859,-2.45423 -5.274166,-3.10265 -0.781307,-0.64843 -1.665688,-0.93383 -1.965292,-0.63423 -0.731245,0.73125 7.694031,5.72943 9.593066,5.69096 0.825,-0.0167 -0.234124,-0.89605 -2.353608,-1.95408 z M 162.7526,133.879 c 4.38228,-4.81917 4.92401,-5.879 3.00505,-5.879 -1.54858,0 -4.53159,2.987 -7.24031,7.25 -2.66159,4.18882 -0.0525,3.34424 4.23526,-1.371 z m -6.87448,1.21749 c 0.75796,-0.48009 1.0554,-1.39505 0.66097,-2.03324 -0.54339,-0.87922 -1.05902,-0.87664 -2.12812,0.0106 -2.63624,2.18788 -1.42661,3.85548 1.46715,2.0226 z M 96.676253,133.34292 C 95.678562,132.34523 87,131.20822 87,132.0752 c 0,0.41697 0.5625,0.98511 1.25,1.26252 1.876965,0.75737 9.182933,0.76188 8.426253,0.005 z M 62.91389,127.75 c -2.218993,-5.66365 -4.693568,-9.12284 -3.397974,-4.75 0.919532,3.10357 4.360724,10 4.989816,10 0.255796,0 -0.460533,-2.3625 -1.591842,-5.25 z M 102,132 c 0,-0.55 -0.19844,-1 -0.44098,-1 -0.24254,0 -0.7191,0.45 -1.05902,1 -0.33992,0.55 -0.14148,1 0.44098,1 0.58246,0 1.05902,-0.45 1.05902,-1 z m -18.700723,-2.25 c -3.520416,-3.8651 -4.551066,-6.77394 -3.882191,-10.95685 0.412365,-2.57879 0.276395,-3.72174 -0.3935,-3.30773 C 78.460614,115.83336 78,118.50579 78,121.42416 78,127.11452 80.654762,132 83.746894,132 c 1.336351,0 1.262188,-0.37279 -0.447617,-2.25 z M 139.5,130 c -2.35485,-0.59921 -1.60218,-0.79001 3.5,-0.88726 3.575,-0.0681 8.3,-0.65326 10.5,-1.30027 2.2,-0.647 4.39913,-1.07395 4.88695,-0.94877 1.17306,0.30102 5.62184,-3.91394 5.58137,-5.28801 -0.0174,-0.59163 -0.95496,0.16181 -2.08341,1.67431 -1.12845,1.5125 -2.50419,2.75 -3.05721,2.75 -0.55302,0 0.15951,-1.38453 1.58341,-3.07673 3.74108,-4.44602 3.17961,-5.64911 -0.94591,-2.02686 -2.83735,2.49123 -4.42561,3.10359 -8.04966,3.10359 -6.4936,0 -10.09102,-2.18482 -11.53543,-7.00582 -3.07198,-10.25334 6.80249,-20.773232 16.61989,-17.706213 1.65,0.515471 3.7875,1.836403 4.75,2.935413 1.95559,2.23293 2.28419,1.64327 0.71656,-1.28586 -0.56839,-1.062041 -2.89434,-2.880355 -5.16879,-4.040692 -6.34349,-3.236203 -16.15257,-1.338938 -20.54777,3.974332 -1.70107,2.05639 -1.58524,3.65196 0.15997,2.20356 0.77548,-0.64359 -0.0866,1.66381 -1.91584,5.12755 -1.82919,3.46375 -3.69075,8.54773 -4.13681,11.29773 l -0.811,5 -0.65344,-4.5 c -0.65064,-4.48072 -0.65288,-4.47643 -0.52316,1 0.12675,5.35087 0.22518,5.53236 3.63028,6.69356 2.40004,0.81845 2.87145,1.24262 1.5,1.34968 -1.69139,0.13203 -1.61424,0.27966 0.5,0.95676 1.375,0.44035 3.85,0.79225 5.5,0.78201 l 3,-0.0186 z M 103,126.10579 c 0,-0.49182 -1.0125,-0.85246 -2.25,-0.80142 -1.2375,0.051 -3.375,-0.24487 -4.75,-0.65757 -2.397617,-0.71963 -2.420504,-0.68681 -0.55887,0.80142 2.08011,1.66288 7.55887,2.1395 7.55887,0.65757 z m -8,-6.15781 c 0,-2.49206 0.550411,-3.24389 3,-4.09782 3.5359,-1.23262 3.95618,-2.85016 0.740547,-2.85016 -2.55978,0 -4.163044,2.09416 -5.192847,6.78282 C 93.092527,121.85521 93.225199,123 93.920545,123 94.514245,123 95,121.62659 95,119.94798 Z m 8.5,0.052 c 0,-2.91369 -3.845788,-4.14723 -4.841338,-1.55287 -0.960614,2.50332 0.401879,4.6863 2.718618,4.35574 C 102.89408,122.58645 103.5,121.78639 103.5,120 Z m 51,2 c 0.34862,-0.56408 -0.46404,-1 -1.86426,-1 -1.36526,0 -3.86682,-1.165 -5.55901,-2.58889 C 145.38453,116.98719 144,116.24245 144,116.7561 c 0,1.3226 3.09921,3.96226 6.02056,5.12784 3.24597,1.2951 3.74279,1.30797 4.47944,0.11604 z m 4.5,-1.96862 c 0,-0.53273 -0.675,-0.70959 -1.5,-0.39301 -0.825,0.31659 -1.5,0.75246 -1.5,0.96862 0,0.21615 0.675,0.39301 1.5,0.39301 0.825,0 1.5,-0.43588 1.5,-0.96862 z m -3,-3.41637 c 0,-0.21174 -1.2375,-1.13845 -2.75,-2.05935 l -2.75,-1.67436 2.36078,2.05935 c 2.30373,2.00958 3.13922,2.4552 3.13922,1.67436 z m 6.02006,-2.13918 c 1.93237,-2.32837 0.55355,-2.76715 -1.51451,-0.48196 -0.99854,1.10337 -1.35088,2.00613 -0.78298,2.00613 0.5679,0 1.60177,-0.68587 2.29749,-1.52417 z M 61.914402,110.5 C 61.944637,109.95 61.533156,110.175 61,111 c -0.533156,0.825 -0.944637,2.175 -0.914402,3 0.05804,1.58385 1.724674,-1.60578 1.828804,-3.5 z m 82.829038,-1.43764 c -0.25205,-1.18996 -0.6368,-1.00744 -1.61419,0.76578 -0.70579,1.28048 -0.97853,3.08048 -0.60609,4 0.56893,1.40464 0.82693,1.28224 1.61419,-0.76578 0.51536,-1.3407 0.78811,-3.1407 0.60609,-4 z m 15.12208,3.21346 C 161.13516,110.00709 159.52024,107 157.0322,107 c -2.34177,0 -3.62688,3.57852 -1.99237,5.54799 1.61641,1.94766 3.64752,1.8331 4.82569,-0.27217 z M 104.5,112 c -0.33992,-0.55 -1.06803,-1 -1.61803,-1 -0.55,0 -0.72189,0.45 -0.38197,1 0.33992,0.55 1.06803,1 1.61803,1 0.55,0 0.72189,-0.45 0.38197,-1 z m 29.12762,-5.70571 c -0.50362,-0.50362 -3.63034,5.02359 -3.62388,6.40605 0.002,0.43981 0.9263,-0.71359 2.05389,-2.56312 1.12758,-1.84953 1.83408,-3.57885 1.56999,-3.84293 z m -98.269095,1.13014 c -0.97212,-1.48365 -1.942779,-2.17167 -2.157022,-1.52894 -0.214242,0.64273 0.405839,2.38249 1.377958,3.86613 0.972119,1.48364 1.942779,2.17166 2.157022,1.52893 0.214242,-0.64273 -0.405839,-2.38248 -1.377958,-3.86612 z M 156.45225,106 c 0.85126,0 1.54775,-0.45 1.54775,-1 0,-0.55 -0.69545,-1 -1.54545,-1 -1.81985,0 -6.45455,4.38052 -6.45455,6.10057 0,0.65531 1.10351,7.7e-4 2.45225,-1.45455 1.34874,-1.45531 3.14874,-2.64602 4,-2.64602 z m -88.206721,-4.17291 c 0.915174,-0.58104 0.807863,-0.80061 -0.396753,-0.81178 -0.908173,-0.008 -2.595673,1.58541 -3.75,3.54185 -2.849739,4.82995 -2.646172,5.57335 0.396753,1.4489 1.372541,-1.86038 3.060041,-3.74091 3.75,-4.17897 z M 89,106.88337 c 0,-1.04547 -0.318997,-1.08193 -2.418213,-0.27638 -2.296076,0.88109 -1.943356,2.30032 0.418213,1.68276 1.1,-0.28766 2,-0.92053 2,-1.40638 z M 38.183333,105.78333 C 37.465771,105.06577 37,105.00673 37,105.63333 c 0,1.33478 1.18261,2.51739 1.85,1.85 0.284167,-0.28416 -0.01583,-1.04916 -0.666667,-1.7 z M 162,107 c 0,-0.55 -0.70156,-1 -1.55902,-1 -0.85746,0 -1.2809,0.45 -0.94098,1 0.33992,0.55 1.04148,1 1.55902,1 0.51754,0 0.94098,-0.45 0.94098,-1 z m -7.3592,-5 c 2.06351,0 3.22596,-0.40657 2.8592,-1 -0.85639,-1.385661 -3.45289,-1.177872 -7,0.56018 -1.65,0.80849 -2.1757,1.23819 -1.16821,0.9549 C 150.33927,102.23179 152.72833,102 154.6408,102 Z M 166.40622,89.517607 C 167.16739,86.484864 166.0757,79 164.87219,79 164.39249,79 164,81.925 164,85.5 c 0,6.541236 1.2493,8.627159 2.40622,4.017607 z M 163,86.5 c 0,-0.825 -0.17686,-1.5 -0.39301,-1.5 -0.21616,0 -0.65203,0.675 -0.96862,1.5 -0.31658,0.825 -0.13972,1.5 0.39301,1.5 C 162.56412,88 163,87.325 163,86.5 Z m -37,90.11237 c 0,-0.78394 15.18692,-6.75878 15.74952,-6.19618 0.30527,0.30526 -1.87599,1.63685 -4.84724,2.95908 C 131.49568,175.78123 126,177.41301 126,176.61237 Z m -61.25,-4.87496 c -3.1625,-1.76868 -5.75,-3.78316 -5.75,-4.4766 0,-1.82134 1.780969,-1.55296 5.025409,0.75728 1.558783,1.10995 4.77825,3.12953 7.154371,4.48796 3.748515,2.14302 3.989389,2.46836 1.82022,2.45851 -1.375,-0.006 -5.0875,-1.45846 -8.25,-3.22715 z M 153,162.7919 c 0,-0.74812 2.475,-3.80448 5.5,-6.7919 5.96225,-5.88819 7.04408,-5.94892 2.84617,-0.15978 C 157.93482,160.54466 153,164.65496 153,162.7919 Z M 170.25218,87.5 c 0.0111,-2.2 0.21589,-2.982253 0.45508,-1.738341 0.23919,1.243913 0.23011,3.043913 -0.0202,4 -0.25029,0.956088 -0.446,-0.06166 -0.4349,-2.261659 z"
         id="path9" />
    </g>
  </g>
</svg>
