<?xml version="1.0" encoding="UTF-8" standalone="no"?>
<!-- Created with Inkscape (http://www.inkscape.org/) -->

<svg
   width="504.17822"
   height="1097.925"
   viewBox="0 0 133.39716 290.49267"
   version="1.1"
   id="svg1"
   xml:space="preserve"
   xmlns="http://www.w3.org/2000/svg"
   xmlns:svg="http://www.w3.org/2000/svg"><defs
     id="defs1" /><g
     id="layer1"
     transform="translate(-2.7441579,-1.4210677)"><path
       style="fill:#000000;stroke-width:0.630129"
       d="m 43.256155,291.33083 c -1.166395,-0.54716 -1.373197,-0.58642 -4.001322,-0.7596 -2.090681,-0.13777 -3.072732,-0.13421 -3.998373,0.0145 -0.74279,0.11934 -1.287266,0.13688 -1.379693,0.0444 -0.152233,-0.15224 -0.300333,-2.05256 -0.640111,-8.21355 -0.09861,-1.78808 -0.298984,-5.14284 -0.445275,-7.45501 -0.257729,-4.07358 -0.245681,-4.71567 0.08846,-4.71567 0.08694,0 0.588283,0.61395 1.114094,1.36435 l 0.956026,1.36434 -0.359079,0.678 c -0.36206,0.6836 -0.456466,1.37084 -0.230564,1.67832 0.06737,0.0917 0.34756,0.28011 0.622656,0.41868 0.349148,0.17589 0.67507,0.60376 1.079468,1.41714 0.348651,0.70125 1.012461,1.62103 1.667215,2.3101 0.598352,0.62972 1.463041,1.53679 1.921523,2.01571 0.940632,0.98258 2.05513,1.78091 3.128549,2.24103 0.399931,0.17144 1.022505,0.6416 1.383487,1.04481 0.809168,0.90382 1.978468,1.6529 3.426329,2.195 1.014231,0.37975 1.212646,0.40061 2.471248,0.2598 0.752658,-0.0842 1.43805,-0.1101 1.523092,-0.0575 0.08504,0.0525 0.154621,0.47015 0.154621,0.92798 0,1.09309 -0.569083,2.14319 -1.16705,2.15352 -0.229241,0.004 -0.602757,0.11012 -0.830032,0.23594 -0.351278,0.19446 -0.481255,0.19357 -0.867008,-0.006 -0.652807,-0.33758 -1.025819,-0.29138 -1.470671,0.18215 -0.27013,0.28753 -0.569001,0.4168 -0.963651,0.4168 -0.366975,0 -0.749665,0.14943 -1.06742,0.41681 -0.272437,0.22924 -0.583368,0.4141 -0.69095,0.41081 -0.107588,-0.003 -0.749098,-0.26563 -1.425573,-0.58297 z m 1.911668,-0.49473 c 0.300553,-0.22924 0.746949,-0.41681 0.992,-0.41681 0.245045,0 0.668447,-0.18756 0.940884,-0.4168 0.553102,-0.4654 0.933637,-0.51179 1.756725,-0.21417 0.439805,0.15904 0.630199,0.15904 0.884859,0 0.178466,-0.11145 0.463505,-0.20263 0.633425,-0.20263 0.362659,0 0.695909,-0.64316 0.695909,-1.34308 v -0.49378 l -0.958654,0.0987 c -0.527254,0.0543 -1.053047,0.12786 -1.16843,0.16347 -0.377359,0.11645 -2.865009,-0.90727 -3.880601,-1.59695 -0.546165,-0.37089 -1.162192,-0.90451 -1.36895,-1.18583 -0.206758,-0.28131 -0.751052,-0.70148 -1.209534,-0.93372 -1.540767,-0.78046 -2.324472,-1.4047 -4.292826,-3.41934 -1.522021,-1.55781 -2.089635,-2.26925 -2.545912,-3.19098 -0.45392,-0.91698 -0.72831,-1.26202 -1.208991,-1.52027 -0.596594,-0.32054 -0.623847,-0.37356 -0.672279,-1.30794 -0.03541,-0.68301 0.02949,-1.09589 0.217231,-1.38243 0.254969,-0.38913 0.244427,-0.44022 -0.221472,-1.07376 l -0.489182,-0.66517 0.05835,0.71446 c 0.03207,0.39296 0.138647,2.36502 0.236771,4.38235 0.09812,2.01733 0.247194,4.71823 0.331272,6.00198 0.08407,1.28376 0.202757,3.44072 0.263734,4.79325 0.061,1.35254 0.120563,2.45872 0.132403,2.45819 0.01185,-5.4e-4 0.449862,-0.0711 0.973386,-0.15688 0.568263,-0.0931 2.113612,-0.10004 3.834602,-0.0173 2.825305,0.13588 2.907644,0.15042 4.133152,0.72953 0.687723,0.32498 1.280839,0.59577 1.318035,0.60175 0.03718,0.006 0.313527,-0.1767 0.61408,-0.40594 z m 8.554234,-1.37546 c -0.10907,-0.2848 -0.117589,-0.55322 -0.0225,-0.70856 0.286438,-0.46792 1.427067,-0.86882 2.725089,-0.95779 1.491132,-0.1022 2.075836,0.009 2.3049,0.43656 0.290629,0.54304 -0.133657,0.85342 -1.408805,1.03059 -0.640262,0.089 -1.446967,0.27334 -1.792687,0.40972 -1.009789,0.39835 -1.59913,0.32966 -1.806001,-0.21052 z m 1.705653,-0.43834 c 0.309211,-0.12648 1.012353,-0.28541 1.562538,-0.35319 0.86651,-0.10675 0.945175,-0.14402 0.588043,-0.2786 -0.647697,-0.24405 -2.822954,0.1908 -3.194624,0.63863 -0.252329,0.30404 0.292689,0.30047 1.044043,-0.007 z M 32.232066,267.50607 c -0.596027,-0.11092 -1.475077,-0.40261 -1.953439,-0.64819 -0.608195,-0.31224 -1.125575,-0.44652 -1.720487,-0.44652 -0.576732,0 -1.258412,-0.16971 -2.116472,-0.52693 l -1.265735,-0.52692 -2.849042,0.2074 c -1.566968,0.11407 -3.636798,0.2761 -4.599617,0.36007 -0.962819,0.084 -2.21948,0.15272 -2.792589,0.1528 l -1.042007,1.4e-4 v -0.56711 c 0,-0.44776 -0.123575,-0.66703 -0.587237,-1.04201 -2.166536,-1.75211 -2.563095,-2.26623 -2.179674,-2.82583 0.119321,-0.17414 0.263161,-0.72926 0.319652,-1.23359 0.09272,-0.82775 0.06264,-0.95517 -0.308877,-1.30959 -0.46588,-0.44443 -0.526876,-0.97507 -0.166802,-1.45114 0.318859,-0.42156 0.322205,-1.57452 0.0064,-2.18019 -0.136983,-0.26264 -0.249518,-0.6044 -0.250085,-0.75946 -0.0019,-0.46799 -0.312885,-0.514 -0.9467887,-0.13998 -0.4187904,0.24708 -0.7457834,0.32307 -1.0771307,0.2503 -0.3993697,-0.0877 -0.5680932,-0.007 -1.0505392,0.50492 -1.0539608,1.11752 -1.7614008,0.54715 -2.2373754,-1.80388 -0.27226,-1.34478 -0.3536727,-1.51486 -1.0763807,-2.2486 -0.5779044,-0.58672 -0.7818457,-0.92304 -0.7818457,-1.28932 0,-0.27255 -0.070392,-0.74097 -0.1564234,-1.04095 -0.098577,-0.34372 -0.09699,-0.7159 0.00441,-1.00646 0.1247972,-0.35799 0.066598,-0.74939 -0.2603821,-1.75106 -0.4889174,-1.49775 -0.5041539,-1.70711 -0.1806518,-2.48136 0.2931804,-0.70169 0.5167188,-0.89306 1.2183616,-1.04309 0.4232579,-0.0905 0.5418483,-0.20094 0.5418483,-0.50458 0,-0.41512 0.6187493,-2.19589 0.8846513,-2.54604 0.087853,-0.11569 0.4789866,-0.35157 0.8691879,-0.52417 0.5552575,-0.24562 0.7533639,-0.44687 0.9114634,-0.9259 0.2214464,-0.671 0.1214637,-1.52902 -0.2766647,-2.37421 -0.2973832,-0.6313 -0.2328769,-0.7669 0.621314,-1.30613 1.1366526,-0.71754 1.1713413,-2.26601 0.06898,-3.0787 -0.3109562,-0.22924 -0.6051259,-0.51508 -0.6537025,-0.63519 -0.048583,-0.12012 0.1356794,-0.97243 0.4094644,-1.89403 0.345292,-1.16229 0.4679467,-1.8623 0.400359,-2.28496 -0.091923,-0.57483 -0.059673,-0.63052 0.5693535,-0.98408 0.511747,-0.28761 0.7187697,-0.53901 0.890335,-1.08116 0.1647033,-0.52047 0.3222923,-0.72044 0.5986735,-0.75969 0.405028,-0.0575 0.525301,-0.36353 0.142875,-0.36353 -0.3351654,0 -0.4346376,-0.3797 -0.4346376,-1.65907 0,-1.0695 0.036611,-1.17763 0.6668846,-1.96922 0.720793,-0.90528 0.801834,-1.29569 0.421576,-2.03103 -0.134924,-0.26091 -0.294737,-0.80111 -0.355135,-1.20045 -0.06043,-0.39934 -0.287622,-0.96489 -0.5049352,-1.25679 -0.5382692,-0.72301 -0.5021187,-0.93556 0.2717752,-1.59798 0.366785,-0.31396 0.666885,-0.65014 0.666885,-0.74707 0,-0.0969 -0.279362,-0.40035 -0.620804,-0.67427 l -0.6208035,-0.49802 0.050032,-1.22532 c 0.056964,-1.39469 0.1717607,-1.60584 0.9122385,-1.67761 0.444796,-0.0431 0.538206,-0.12812 0.584294,-0.53166 0.03182,-0.27889 0.259115,-0.65221 0.541848,-0.89012 0.267843,-0.22537 0.486655,-0.45936 0.486258,-0.51999 -3.97e-4,-0.0606 -0.446005,-0.58777 -0.990235,-1.17146 -0.976254,-1.04703 -1.001371,-1.06124 -1.8748939,-1.06003 -1.2532581,0.002 -2.3025182,-0.63102 -2.3025182,-1.38853 0,-0.62625 0.121155,-0.67357 2.584186,-1.00932 0.8126341,-0.11078 1.7195411,-0.12971 2.1663721,-0.0452 0.283911,0.0537 0.345563,-0.05 0.42237,-0.71015 0.04946,-0.42515 0.190393,-0.89406 0.313187,-1.04201 0.176594,-0.21278 0.18074,-0.32022 0.01985,-0.51408 -0.154174,-0.18577 -0.693747,-0.25638 -2.22948,-0.29176 l -2.0260741,-0.0467 -0.104236,-1.33377 c -0.095414,-1.22099 -0.070745,-1.38388 0.2917625,-1.92626 0.518836,-0.77629 0.4997305,-1.07929 -0.111974,-1.77598 l -0.5079662,-0.57855 0.3096204,-0.52715 0.3096204,-0.52716 -0.7130797,-0.58353 c -0.3921863,-0.32094 -0.7604024,-0.74911 -0.8182546,-0.95149 -0.1511176,-0.52865 0.1379038,-1.27179 0.5701285,-1.46597 0.2651585,-0.11912 0.3572771,-0.28572 0.3226578,-0.58353 -0.043416,-0.37362 -0.1413191,-0.42613 -0.9448161,-0.50678 -0.7319205,-0.0735 -0.9710105,-0.18052 -1.3032463,-0.58352 -0.3513853,-0.42624 -0.3965467,-0.61991 -0.3311015,-1.41994 0.04518,-0.55208 -0.016698,-1.19203 -0.1530584,-1.58385 -0.2798657,-0.80409 -0.2916113,-1.26527 -0.045999,-1.8044 0.1497944,-0.32875 0.1253706,-0.58621 -0.1204366,-1.26977 l -0.308316,-0.85741 0.4121991,-0.78042 c 0.3814048,-0.72211 0.4651301,-0.78424 1.1207671,-0.83167 0.3897099,-0.0282 0.708568,-0.11149 0.708568,-0.18509 0,-0.0736 -0.3020778,-0.78766 -0.6712832,-1.58681 -0.502566,-1.0878 -0.6668723,-1.64887 -0.6537467,-2.23237 0.00964,-0.42868 -0.03075,-1.90477 -0.089743,-3.28023 C 5.3942364,170.5643 5.2855708,169.73127 5.0238781,169 4.7111763,168.12619 4.6985486,167.9412 4.887329,166.99934 c 0.1191071,-0.59423 0.4125647,-1.3332 0.6865639,-1.72887 l 0.4785391,-0.69102 -0.4120416,-0.10342 c -0.4698812,-0.11793 -0.6326184,-0.56797 -0.5537703,-1.53137 0.046693,-0.57052 0.1099576,-0.65752 0.5117659,-0.70375 0.413995,-0.0476 0.4584885,-0.11674 0.4584885,-0.71214 0,-0.42832 -0.1495298,-0.88534 -0.4266985,-1.30417 -0.3399296,-0.51367 -0.4162068,-0.80959 -0.3751223,-1.45524 0.049654,-0.78008 0.071885,-0.81242 0.5934181,-0.8627 0.3635846,-0.035 0.541842,-0.13994 0.541842,-0.31879 0,-0.1466 0.1248601,-0.66264 0.2774648,-1.14675 0.2555364,-0.81067 0.2568597,-1.00282 0.016699,-2.43213 l -0.260735,-1.5519 0.4629435,-0.41681 c 0.2546227,-0.22924 1.0037017,-0.7892 1.6646318,-1.24435 0.6609302,-0.45515 1.3075879,-1.03234 1.4370291,-1.28265 0.22437,-0.43389 0.204282,-0.49099 -0.4309455,-1.22493 -0.3664581,-0.42341 -0.6701364,-0.89657 -0.6748434,-1.05146 -0.040265,-1.325 -0.3707682,-2.64419 -1.036689,-4.13812 -0.7065578,-1.58509 -0.7415993,-1.73155 -0.5690068,-2.37817 0.1470092,-0.55077 0.1329069,-0.83077 -0.070253,-1.39523 -0.1875643,-0.52112 -0.2173568,-0.91516 -0.113669,-1.50354 0.1032341,-0.58586 0.072906,-0.99645 -0.1143496,-1.548 -0.3460104,-1.01915 -0.3492177,-3.38081 -0.00504,-3.51298 0.1618424,-0.0621 0.2500794,-0.32046 0.2500794,-0.73223 0,-0.94218 0.6563806,-1.66217 1.5153164,-1.66217 0.6373759,0 0.6520705,-0.0135 0.6520705,-0.59947 0,-0.93587 0.876768,-2.06808 1.601493,-2.06808 0.340251,0 0.375935,-0.0925 0.434254,-1.12537 0.03497,-0.61895 0.0038,-1.25171 -0.06912,-1.40613 -0.124268,-0.26303 -0.455704,-1.75736 -0.705021,-3.17872 -0.0667,-0.38025 -0.203179,-0.6252 -0.348348,-0.6252 -0.3843095,0 -0.7761555,-0.74092 -0.6524737,-1.23372 0.087594,-0.34899 0.2380188,-0.456 0.7578567,-0.53913 l 0.648573,-0.10371 0.0031,-1.27078 c 0.0057,-2.23887 0.226828,-3.22104 0.970992,-4.31687 0.434928,-0.64047 0.688297,-1.21438 0.722922,-1.63754 0.05091,-0.62247 0.0814,-0.65379 0.684125,-0.70355 0.719955,-0.0594 0.71153,0.12186 0.121968,-2.62313 -0.270306,-1.25853 -0.271163,-1.46213 -0.01386,-3.29465 0.273249,-1.94594 0.233091,-2.28288 -0.272128,-2.28288 -0.119208,0 -0.216739,0.075 -0.216739,0.16672 0,0.35519 -0.658013,0.14205 -1.06887,-0.34623 -0.349627,-0.41551 -0.431626,-0.68681 -0.431626,-1.4281 0,-0.50332 0.0834,-1.07095 0.185321,-1.2614 0.15757,-0.29443 0.110726,-0.41599 -0.312866,-0.811875 C 11.00776,99.281487 10.914003,99.039139 10.81092,98.07489 10.686123,96.907588 10.416169,96.191641 9.8783598,95.601625 9.5034076,95.190283 8.6810383,93.058196 8.8142162,92.842717 c 0.052805,-0.08546 0.2791662,-0.155384 0.5029945,-0.155384 0.2979126,0 0.4069691,-0.09076 0.4069691,-0.338675 0,-0.341543 -0.075395,-0.392067 -0.8336109,-0.558667 -0.3133822,-0.06886 -0.5926241,-0.41874 -1.1253733,-1.410047 L 7.0566766,89.061481 V 87.22016 c 0,-1.012725 0.045558,-1.959986 0.1011988,-2.105035 0.059358,-0.154634 0.2966397,-0.263716 0.5736888,-0.263716 0.2598653,0 0.5270213,-0.08824 0.5936701,-0.196083 0.066655,-0.107841 0.1065927,-0.78937 0.088747,-1.514504 -0.027852,-1.130641 0.054002,-1.571694 0.5742937,-3.09667 0.3337039,-0.978037 0.6920774,-1.833374 0.7963828,-1.900741 0.1043053,-0.06737 0.3889162,-0.123638 0.6324612,-0.125043 0.377586,-0.0019 0.482005,-0.11757 0.708876,-0.783402 0.252909,-0.742242 0.250149,-0.797896 -0.05577,-1.125374 C 10.815603,75.837017 10.733705,75.451743 10.678039,74.26458 10.621709,73.062853 10.48653,72.437305 9.9992259,71.122937 9.6645705,70.220308 9.3907667,69.377409 9.3907667,69.24982 c 0,-0.416099 0.9971733,-1.864477 1.3465493,-1.955846 0.285631,-0.07469 0.324107,-0.178698 0.238207,-0.643923 -0.06062,-0.328158 -5.42e-4,-0.841613 0.146991,-1.256774 0.163758,-0.460814 0.203311,-0.862792 0.115143,-1.170201 -0.100045,-0.348846 -0.03529,-0.680067 0.253879,-1.298728 0.213494,-0.456749 0.390844,-1.119028 0.394115,-1.471724 0.005,-0.532075 0.157917,-0.815955 0.898495,-1.667215 0.490909,-0.564275 1.030898,-1.394433 1.199981,-1.844792 0.2196,-0.584918 0.434266,-0.866718 0.751429,-0.986437 0.41196,-0.15549 0.477084,-0.324775 0.902207,-2.345234 0.34475,-1.638444 0.578005,-2.351769 0.94205,-2.880895 0.33032,-0.480096 0.470039,-0.870247 0.440322,-1.229534 -0.03579,-0.432767 0.06867,-0.618182 0.587911,-1.043482 0.579882,-0.474979 0.674099,-0.501104 1.153943,-0.319979 0.454537,0.171571 0.550626,0.157078 0.738663,-0.111382 0.118886,-0.169732 0.556177,-0.394222 0.97176,-0.498867 1.060351,-0.266999 1.010173,-0.650414 -0.328089,-2.507128 l -1.083692,-1.50356 v -1.205501 c 0,-1.109191 0.03932,-1.2461 0.49215,-1.713611 l 0.49215,-0.508099 -0.638151,-2.084021 c -0.350982,-1.146212 -0.792451,-2.467801 -0.981036,-2.936869 l -0.342878,-0.852843 0.335052,-1.307903 c 0.39828,-1.554724 0.566726,-1.904698 0.916738,-1.904698 0.202315,0 0.236512,-0.104841 0.149567,-0.458489 -0.132724,-0.5398 -0.539788,-1.208733 -0.735556,-1.208733 -0.07565,0 -0.265675,-0.284113 -0.422263,-0.631364 -0.271705,-0.602536 -0.270117,-0.665335 0.03485,-1.375453 0.175756,-0.40925 0.759918,-1.296328 1.298136,-1.971291 l 0.978579,-1.227202 3.455541,-1.72927 c 3.389574,-1.696252 3.458693,-1.741256 3.620359,-2.357315 0.797384,-3.038616 1.912392,-7.360888 1.968385,-7.630363 0.04562,-0.219581 -0.190437,-0.636967 -0.691321,-1.222344 -0.418337,-0.488899 -0.76061,-0.993494 -0.76061,-1.121328 0,-0.127835 0.262587,-0.471375 0.583531,-0.763421 0.440933,-0.4012475 0.583525,-0.6649692 0.583525,-1.0792541 0,-0.4227665 0.124186,-0.6429715 0.542586,-0.9621005 0.298416,-0.2276154 0.738127,-0.4881991 0.977129,-0.5790638 0.358966,-0.1364797 0.453554,-0.3052221 0.543808,-0.9700905 0.06011,-0.4426848 0.166222,-0.8945822 0.235845,-1.0042184 0.06962,-0.1096393 0.874852,-0.4897151 1.78941,-0.8446122 1.819605,-0.7061055 1.753209,-0.6297729 2.085974,-2.398228 0.122257,-0.6497365 0.264969,-0.9631339 0.460669,-1.011652 0.534437,-0.1325017 1.117307,0.1332875 1.450583,0.6614664 0.203815,0.3230151 0.474399,0.5309477 0.696028,0.5348728 0.202606,0.00359 0.653406,0.3120647 1.021698,0.6991273 l 0.659109,0.6927045 3.813235,0.01586 c 3.805389,0.015829 3.815427,0.016831 4.879458,0.486654 1.317707,0.5818307 1.468012,0.7297542 1.673579,1.6470343 0.09037,0.4032702 0.315758,1.0670548 0.500852,1.4750762 0.185094,0.4080277 0.340686,0.8919104 0.345746,1.0753096 0.0084,0.3033443 0.523127,1.0836903 0.71485,1.0836903 0.04386,0 0.130948,-0.2813465 0.1935,-0.6252081 0.06257,-0.3438617 0.30727,-1.0378421 0.543815,-1.5421788 0.236544,-0.5043304 0.512572,-1.1081708 0.613393,-1.3418606 0.100814,-0.2336898 0.558427,-1.0828724 1.016909,-1.8870676 0.903404,-1.5845902 0.869491,-1.5665326 2.209064,-1.1762392 0.280628,0.081763 0.375122,0.040624 0.375122,-0.1633056 0,-0.2457864 0.381291,-0.2681982 3.876285,-0.2278473 l 3.876279,0.044752 0.0528,0.6429885 c 0.04726,0.5754852 0.121647,0.6700311 0.708568,0.9005791 0.452017,0.1775585 0.655763,0.3589495 0.655763,0.5838219 0,0.4199989 1.373437,1.6883864 2.306784,2.1303466 0.637925,0.3020651 0.792716,0.4933661 1.316353,1.6268114 0.326382,0.7064696 0.845092,1.6141338 1.15269,2.0170318 0.307598,0.402898 0.562913,0.853044 0.567368,1.00033 0.0044,0.147281 0.416869,0.601894 0.916493,1.010249 0.499618,0.408356 0.951124,0.87709 1.003349,1.041629 0.05224,0.164533 0.262884,0.341304 0.468142,0.392823 0.205259,0.05155 0.645316,0.374045 0.977898,0.716722 0.332583,0.342683 1.248658,0.957173 2.035728,1.365535 1.282647,0.665492 1.451037,0.808141 1.623969,1.375692 0.260597,0.855281 1.083256,1.534668 2.341599,1.933798 0.574659,0.182278 1.720058,0.604042 2.545332,0.937261 1.322037,0.533789 1.616509,0.594514 2.475981,0.510568 l 0.975484,-0.09528 1.441982,1.027873 c 0.793087,0.565327 2.079685,1.561158 2.859111,2.212952 0.779426,0.651799 2.281699,1.792283 3.338388,2.534424 1.760557,1.236478 2.023415,1.366568 3.142676,1.555355 1.208815,0.203897 1.403091,0.319589 2.068955,1.232092 0.196222,0.268895 0.275165,0.281699 0.576512,0.09351 0.31108,-0.194269 0.4595,-0.143953 1.36103,0.461406 0.55652,0.373698 1.27438,0.728701 1.59522,0.788891 0.47187,0.08852 0.8109,0.381864 1.77392,1.534844 l 1.19055,1.425403 -0.10568,0.943266 c -0.10362,0.924834 -0.45803,1.458151 -1.30718,1.96705 -0.29387,0.176114 -1.29698,2.168993 -1.29698,2.5767 0,0.173619 -0.28484,0.45576 -0.68848,0.681938 -0.42835,0.240023 -0.94252,0.763755 -1.36083,1.386121 -0.62511,0.930033 -0.67793,1.099784 -0.75165,2.41552 -0.0607,1.083186 -0.16653,1.552544 -0.45116,2.00066 -0.417154,0.656791 -2.026757,2.336048 -2.239142,2.336048 -0.269311,0 -1.009316,1.143874 -0.909044,1.405176 0.08536,0.222436 0.485855,0.262045 2.649631,0.262045 2.463315,0 2.590315,0.01714 3.775085,0.509025 0.6743,0.279967 2.06937,0.81271 3.10014,1.183881 1.63742,0.589606 1.94066,0.651661 2.40067,0.4913 0.77243,-0.269267 1.21092,-0.2264 1.71146,0.167318 0.39003,0.306803 0.50762,0.325367 0.93622,0.147841 0.66933,-0.277251 1.25491,-0.09416 1.60741,0.502578 0.16219,0.274567 0.37625,0.499214 0.47568,0.499214 0.27702,0 0.58093,-0.365777 0.58093,-0.699185 0,-0.164483 0.31135,-0.524602 0.6919,-0.800265 0.97607,-0.707062 1.98616,-0.698901 2.98425,0.02413 l 0.72519,0.525327 0.57541,-0.316924 c 0.4578,-0.252153 0.62989,-0.496555 0.842,-1.195797 0.20109,-0.662915 0.40619,-0.970166 0.83469,-1.250416 0.31245,-0.204344 0.76259,-0.50244 1.00033,-0.662423 0.24075,-0.162026 0.74424,-0.291278 1.13652,-0.291763 0.61262,-6.3e-4 0.73776,-0.06561 0.96147,-0.498224 0.14146,-0.27354 0.49696,-0.621333 0.79002,-0.772879 0.29306,-0.151546 0.67236,-0.452918 0.84289,-0.669708 0.17053,-0.216796 0.41118,-0.394171 0.53478,-0.394171 0.12361,0 0.27085,-0.209928 0.32721,-0.466504 0.0563,-0.256576 0.27162,-0.650451 0.47838,-0.875288 0.24573,-0.267212 0.48041,-0.899591 0.67762,-1.825926 0.16593,-0.779419 0.42552,-1.71634 0.57687,-2.082036 0.18116,-0.437725 0.26387,-1.058604 0.24209,-1.817148 -0.0354,-1.233384 0.25918,-2.102799 0.71254,-2.102799 0.13974,0 0.47121,0.11229 0.73659,0.249519 0.3591,0.185699 0.5943,0.207023 0.91954,0.08337 0.56201,-0.213677 1.93555,-0.213796 2.4973,-2.14e-4 0.24006,0.09127 0.72337,0.396496 1.07401,0.67829 0.61848,0.497021 0.64108,0.552788 0.75552,1.86473 0.0834,0.955875 0.26665,1.68489 0.62507,2.486478 l 0.50709,1.1341 -0.27357,1.044957 c -0.15046,0.574722 -0.3966,1.457584 -0.54697,1.961914 -0.15037,0.504337 -0.31806,1.554731 -0.37265,2.33422 -0.0793,1.131788 -0.18157,1.534749 -0.50801,2.000655 -0.47773,0.681844 -0.65882,0.827473 -1.03329,0.830951 -0.15125,0.0013 -0.66521,0.26514 -1.14212,0.586077 -0.47691,0.320938 -1.00457,0.583525 -1.17257,0.583525 -0.16801,0 -0.35372,0.152051 -0.4127,0.337888 -0.15975,0.503354 -0.79183,0.843208 -1.51998,0.817259 -0.81784,-0.02911 -1.83434,0.237496 -2.21348,0.580621 -0.16099,0.145692 -0.48435,0.264893 -0.71859,0.264893 -0.3091,0 -0.57981,0.203854 -0.98721,0.743396 -0.53463,0.708057 -1.21763,1.155493 -2.45398,1.607624 -0.3074,0.112415 -0.75755,0.4055 -1.00034,0.651301 -0.24278,0.245801 -0.74817,0.533002 -1.12309,0.638227 -0.37492,0.105225 -0.9925,0.416484 -1.37241,0.691693 -0.63114,0.45719 -0.67473,0.535522 -0.50515,0.907701 0.29129,0.639324 0.0803,0.928761 -0.67716,0.928761 -0.49828,0 -0.7278,0.09306 -0.9252,0.375129 -0.3221,0.46024 -3.44037,3.794255 -4.94248,5.284435 -0.60578,0.600967 -1.22224,1.327947 -1.36991,1.615507 -0.14767,0.28756 -0.71609,0.927891 -1.26316,1.422965 -0.54707,0.495073 -1.30288,1.287222 -1.67958,1.760335 -0.60566,0.76068 -0.7661,0.866094 -1.38666,0.911136 -0.6087,0.04417 -0.70794,0.106202 -0.74843,0.467739 -0.10895,0.97292 -0.2937,1.222319 -2.10539,2.84211 -1.24664,1.114586 -2.05519,1.981959 -2.34652,2.51721 l -0.44447,0.816654 0.35584,1.069311 0.35585,1.069317 -0.34346,1.111996 c -0.18891,0.611597 -0.34347,1.283252 -0.34347,1.492556 0,0.20931 -0.3256,0.855174 -0.72357,1.435252 l -0.723575,1.054692 0.306596,0.519636 c 0.301609,0.511192 0.300079,0.538401 -0.09404,1.67322 -0.30323,0.873126 -0.520587,1.225016 -0.894033,1.447401 -0.463127,0.275789 -0.485553,0.336716 -0.365513,0.993141 0.07034,0.384631 0.09027,0.931117 0.0443,1.214411 -0.05659,0.348864 0.0025,0.586436 0.1828,0.736173 0.359962,0.298739 0.334171,0.817278 -0.07394,1.486665 -0.309211,0.507191 -0.335134,0.789376 -0.294346,3.204271 0.03258,1.930528 -0.01109,2.703912 -0.161219,2.854052 -0.113272,0.11327 -0.561533,0.24687 -0.996134,0.29688 l -0.790182,0.0909 -0.361719,1.83395 c -0.198945,1.00866 -0.368198,2.4249 -0.376112,3.14719 -0.01349,1.23094 0.02716,1.38848 0.648157,2.5135 0.491545,0.89046 0.614049,1.24875 0.474627,1.38818 -0.116058,0.11605 -0.291114,0.1327 -0.457727,0.0435 -0.204363,-0.10938 -0.40688,0.0189 -0.835079,0.52893 -0.4753,0.56614 -0.53445,0.7227 -0.371549,0.98354 0.106549,0.17062 0.193733,0.72005 0.193733,1.22096 0,0.84333 0.04279,0.94339 0.578201,1.35177 0.318013,0.24255 1.416127,0.85324 2.440264,1.35707 1.603415,0.78882 2.07716,1.12415 3.41057,2.4141 1.59701,1.54496 2.24049,2.54534 2.24049,3.48312 0,0.62444 -0.21478,1.05468 -0.92091,1.84469 -0.8339,0.93296 -0.98873,1.5938 -0.66734,2.84829 0.27485,1.07286 0.6271,1.56345 1.78693,2.48869 0.60495,0.4826 0.62613,0.48655 1.23825,0.23078 0.43211,-0.18055 0.67599,-0.207 0.79658,-0.0864 0.10069,0.1007 0.20172,1.32998 0.24016,2.92223 l 0.0663,2.74842 -0.73505,0.87452 c -0.40428,0.48098 -1.06327,1.4372 -1.46442,2.12493 -0.40115,0.68773 -1.30695,1.85061 -2.0129,2.58418 -1.72371,1.79119 -2.328964,2.71607 -2.328964,3.55887 0,0.56963 -0.08927,0.73448 -0.625208,1.15451 -2.689109,2.1075 -9.018954,4.25239 -15.38008,5.21159 -0.50433,0.0761 -2.042337,0.34007 -3.417796,0.58672 -1.940509,0.34798 -3.285268,0.472 -6.001983,0.55356 l -3.501158,0.10511 -0.166959,0.51651 c -0.353427,1.09336 -0.932667,1.35547 -1.529753,0.69223 -0.54205,-0.60212 -0.586316,-0.76233 -0.373358,-1.35127 0.287616,-0.79538 0.09485,-1.3517 -0.57919,-1.67155 -0.312865,-0.14847 -0.643261,-0.26994 -0.734214,-0.26994 -0.295701,0 -0.346855,0.44812 -0.104488,0.91528 0.130286,0.25114 0.238038,0.91694 0.239443,1.47956 0.0032,1.17708 0.0586,1.29644 0.775488,1.66368 0.886188,0.45395 1.003777,1.15228 0.545585,3.24011 -0.293767,1.3386 -0.454406,1.76985 -0.681385,1.8292 -0.493441,0.12904 -0.975686,1.14042 -0.975686,2.04626 0,0.66069 -0.0916,0.92374 -0.47564,1.36592 -0.560551,0.64541 -0.526196,0.82993 0.319217,1.7147 0.999051,1.04557 1.085247,1.44811 0.569782,2.66093 l -0.433605,1.02024 -2.466257,1.28545 -2.466257,1.28545 h -2.501809 -2.50181 l -0.72129,-0.57078 c -0.39671,-0.31392 -0.984565,-0.62017 -1.306346,-0.68053 -0.321782,-0.0604 -0.92682,-0.28264 -1.34452,-0.49394 -0.4177,-0.21129 -1.283738,-0.54583 -1.924529,-0.74344 -0.640785,-0.19759 -1.332125,-0.46872 -1.536306,-0.60251 -0.53314,-0.34932 -0.642789,-0.3122 -1.033387,0.34981 -0.491324,0.83273 -0.450278,1.98541 0.153518,4.31087 0.440845,1.69787 0.487532,2.08875 0.375495,3.14403 -0.174508,1.64371 -0.135447,2.72956 0.108779,3.02383 0.112327,0.13536 0.918483,0.48404 1.791452,0.77487 1.692458,0.56385 1.707033,0.58134 1.298955,1.55927 -0.123241,0.29534 -0.07508,0.31035 0.668718,0.2084 0.440839,-0.0604 1.016128,-0.10986 1.278419,-0.10986 0.712122,0 0.662714,-0.6092 -0.0647,-0.79769 -0.975642,-0.25282 -0.754473,-0.5899 0.883486,-1.34651 2.024864,-0.93534 2.333659,-0.81748 2.996939,1.14387 0.488237,1.44375 0.490795,2.80371 0.0078,4.11148 l -0.379401,1.02712 -1.35854,0.31969 -1.358547,0.31969 -0.541848,-0.50423 c -0.403232,-0.37524 -0.541842,-0.64717 -0.541842,-1.06301 0,-0.38338 -0.13217,-0.68127 -0.421052,-0.949 -0.599039,-0.55517 -1.20886,-0.62783 -1.996414,-0.23787 -1.44207,0.71404 -1.917301,1.01312 -1.917301,1.20662 0,0.11095 0.475533,0.47989 1.056739,0.81989 0.874387,0.51148 1.216106,0.61816 1.980251,0.61816 1.018655,0 1.397155,0.25784 1.216068,0.8284 -0.115301,0.36329 -0.821348,0.77989 -2.226713,1.31389 -1.221216,0.46402 -2.193065,1.27666 -2.193065,1.83377 0,0.28776 -0.296848,0.81376 -0.833611,1.47714 -0.731416,0.90395 -0.833611,1.12468 -0.833611,1.80062 0,0.4237 0.162391,1.14785 0.360863,1.60921 0.326924,0.75995 0.341196,0.91557 0.151766,1.65468 -0.114998,0.44871 -0.161243,1.09904 -0.102761,1.44518 0.166386,0.98484 -0.394631,2.06352 -1.496639,2.87763 -0.497091,0.36722 -0.990633,0.82993 -1.096772,1.02824 -0.169089,0.31596 -0.127009,0.41442 0.339992,0.79557 0.530217,0.43274 0.531931,0.43912 0.331285,1.23594 -0.110928,0.44053 -0.316161,0.84489 -0.456082,0.89859 -0.13992,0.0537 -0.875955,-0.0316 -1.635627,-0.18946 -1.300776,-0.27035 -1.413267,-0.27057 -1.931296,-0.004 -1.002202,0.51621 -1.633762,1.09075 -1.633762,1.48627 0,0.44519 -0.280622,0.58158 -1.196628,0.58158 -0.847461,0 -1.534195,0.47726 -1.999306,1.38949 -0.194761,0.38199 -0.6057,1.02417 -0.913196,1.42707 -0.420895,0.55149 -0.559076,0.89882 -0.559076,1.4053 0,0.5559 -0.101351,0.76559 -0.583526,1.20724 -0.499554,0.45757 -0.58803,0.65122 -0.614829,1.34561 -0.05488,1.42197 0.05772,2.62827 0.299777,3.21132 0.129927,0.31297 1.275458,1.59937 2.561023,2.87595 l 2.325946,2.30969 1.381918,0.0141 c 3.255696,0.0331 4.017151,0.34238 4.51944,1.83543 0.389842,1.15882 0.28284,2.86229 -0.218851,3.48414 -0.648031,0.80324 -0.697332,1.1217 -0.312222,2.0169 0.322607,0.74993 0.331649,0.85353 0.09729,1.11456 -0.142107,0.15829 -0.283407,0.51222 -0.314007,0.78653 -0.03818,0.34256 -0.16004,0.51753 -0.389073,0.55876 -0.183393,0.033 -1.008667,0.7022 -1.833935,1.48708 -2.372532,2.25643 -2.61159,2.45599 -3.623433,3.02476 -0.641756,0.36073 -1.042127,0.71906 -1.218324,1.09037 -0.14435,0.30418 -0.593916,0.899 -0.999045,1.32182 -1.232546,1.28635 -1.410268,1.79404 -1.420368,4.05747 -0.02061,4.62113 -1.020653,6.49874 -4.291491,8.05749 -1.245054,0.59335 -2.433238,1.64059 -2.900448,2.5564 -0.236134,0.46285 -0.371366,1.16382 -0.451758,2.3416 -0.128314,1.8799 0.03207,2.7209 0.992718,5.20574 0.510184,1.31964 0.524388,1.4138 0.257692,1.7085 -0.268398,0.29657 -0.226626,0.40243 0.850838,2.15616 0.623204,1.01435 1.572488,2.41139 2.109522,3.10453 0.965371,1.24599 1.115159,1.78092 0.48762,1.74141 -0.163349,-0.0103 -0.784656,-0.10944 -1.38069,-0.22037 z m -0.0455,-1.72731 c -0.481368,-0.62302 -1.278179,-1.82512 -1.770689,-2.67134 -0.492502,-0.84621 -0.960563,-1.57881 -1.040129,-1.62798 -0.22449,-0.13874 -0.170916,-0.598 0.10537,-0.90329 0.224018,-0.24754 0.19149,-0.42543 -0.312468,-1.70914 -0.309381,-0.78807 -0.615681,-1.71626 -0.680666,-2.06267 -0.06499,-0.3464 -0.24323,-0.72275 -0.3961,-0.83634 -0.232284,-0.1726 -0.243708,-0.26259 -0.06953,-0.54785 0.11462,-0.18774 0.208396,-0.74249 0.208396,-1.23277 0,-3.03498 0.860278,-4.23864 4.477334,-6.26448 2.539951,-1.42258 3.181032,-2.86024 3.188569,-7.15055 0.0031,-1.69471 0.04669,-1.96737 0.44092,-2.75091 0.240691,-0.47836 0.757838,-1.21432 1.149218,-1.63546 0.391379,-0.42115 0.832256,-0.99905 0.979731,-1.28424 0.233142,-0.45085 1.543313,-1.53457 1.855234,-1.53457 0.173581,0 1.64799,-1.28337 3.304027,-2.87594 0.834322,-0.80235 1.613043,-1.45882 1.730493,-1.45882 0.125168,0 0.213538,-0.20292 0.213538,-0.49033 0,-0.26967 0.07475,-0.53652 0.166108,-0.59299 0.104778,-0.0648 0.074,-0.28079 -0.08336,-0.58508 -0.382079,-0.73886 -0.315228,-1.5623 0.174048,-2.14377 0.791456,-0.9406 0.685443,-3.73459 -0.162252,-4.27623 -0.216065,-0.13806 -1.221058,-0.26389 -2.694011,-0.33732 l -2.349387,-0.11711 -2.482408,-2.46178 c -2.81388,-2.7905 -3.053292,-3.20386 -3.06527,-5.29244 l -0.0069,-1.20873 -0.958654,-0.001 c -0.527254,-6.3e-4 -2.08402,0.073 -3.459473,0.1636 -1.375459,0.0906 -4.376451,0.28004 -6.668874,0.42088 -4.544991,0.27925 -8.283448,0.53539 -10.75355,0.73677 -1.579174,0.12875 -1.585947,0.13124 -2.29151,0.84037 l -0.707654,0.71123 0.415892,0.49427 c 0.260281,0.30933 0.415892,0.70098 0.415892,1.04678 0,0.30389 0.148401,0.87958 0.329778,1.2793 0.380157,0.8378 0.43218,1.68897 0.122661,2.00696 -0.854985,0.87837 -1.119331,1.43613 -1.119331,2.36175 0,0.72062 0.07861,1.02152 0.333446,1.27636 0.488842,0.48884 0.428091,0.98468 -0.145125,1.1845 -0.330081,0.11507 -0.525705,0.33222 -0.6305077,0.6999 -0.094834,0.33271 -0.3816883,0.68245 -0.7632065,0.93053 -0.5070147,0.32968 -0.5968901,0.47186 -0.5269583,0.83361 0.047512,0.24566 -0.1414641,1.16427 -0.4326532,2.10336 l -0.5169645,1.66721 0.690477,0.59007 c 0.6558954,0.56051 0.6949949,0.6464 0.780787,1.71512 l 0.090304,1.12507 -0.7472516,0.716 -0.7472579,0.71599 0.2535515,1.24484 c 0.2401234,1.17892 0.2365191,1.27971 -0.068004,1.90364 -0.2265504,0.46418 -0.5550495,0.78194 -1.1119516,1.07561 -0.708152,0.37343 -0.8252742,0.51994 -1.1253733,1.40783 -0.184231,0.54506 -0.3349642,1.23101 -0.3349642,1.52434 0,0.57991 -0.2152901,0.73571 -1.0166635,0.73571 -0.393207,0 -0.5428313,0.1124 -0.7623306,0.57271 -0.2536397,0.53189 -0.2530221,0.64776 0.0087,1.62554 0.4896799,1.82939 0.5518989,2.23658 0.4031757,2.63861 -0.087556,0.2367 -0.076649,0.58782 0.027537,0.88673 0.094879,0.27218 0.1725105,0.68275 0.1725105,0.91237 0,0.27233 0.2898596,0.72398 0.8336109,1.29891 0.5991207,0.63349 0.8336045,1.01507 0.8336045,1.35654 0,0.59172 0.4648087,2.40982 0.6681577,2.61353 0.090046,0.0902 0.4298743,-0.10106 0.8434472,-0.4747 0.5653836,-0.51079 0.7883549,-0.61172 1.2135978,-0.5493 0.3213408,0.0472 0.7568169,-0.0465 1.1365329,-0.2444 0.5733992,-0.29888 0.6506722,-0.30271 1.1278312,-0.0559 0.385702,0.19945 0.512251,0.37953 0.512251,0.72891 0,0.25521 0.110153,0.60965 0.24478,0.78765 0.342412,0.4527 0.323685,1.92818 -0.03233,2.54853 -0.284188,0.49517 -0.282033,0.50663 0.175031,0.93022 0.438337,0.40624 0.457285,0.48388 0.358985,1.47114 -0.05709,0.57325 -0.183456,1.20628 -0.280849,1.40673 -0.148691,0.30602 -0.09104,0.47309 0.359559,1.04201 0.295146,0.37266 0.651597,0.67756 0.792116,0.67756 0.35252,0 1.55044,1.30406 1.55044,1.68782 0,0.27291 0.132995,0.31247 1.042008,0.30995 0.573109,-0.002 1.717235,-0.0731 2.542509,-0.15881 0.825268,-0.0858 2.775915,-0.24008 4.334761,-0.34293 l 2.834272,-0.18701 1.199596,0.51254 c 0.814266,0.34791 1.472077,0.51254 2.047883,0.51254 0.58965,0 1.11347,0.13532 1.718035,0.44383 0.934457,0.47684 1.600573,0.67902 2.326614,0.70616 0.453687,0.017 0.451072,0.01 -0.418677,-1.1157 z M 18.706968,212.14647 c 3.864199,-0.28184 7.154823,-0.48041 12.608127,-0.76084 1.925638,-0.099 3.594939,-0.2105 3.709559,-0.24773 0.114621,-0.0372 0.208403,-0.20606 0.208403,-0.37518 0,-0.16911 0.225076,-0.52312 0.500165,-0.78667 0.377794,-0.36195 0.500166,-0.62886 0.500166,-1.09091 0,-0.43723 0.159473,-0.82067 0.559082,-1.34426 0.307491,-0.4029 0.718436,-1.03264 0.913215,-1.39943 0.194773,-0.36679 0.450933,-0.78869 0.56924,-0.93755 0.399345,-0.50248 1.37239,-0.9785 2.001468,-0.97913 0.508401,-5e-4 0.625208,-0.0613 0.625208,-0.32558 0,-0.34638 0.594527,-0.84938 1.871018,-1.58297 l 0.787328,-0.45247 1.225866,0.25351 c 0.674226,0.13944 1.32612,0.27664 1.448655,0.30492 0.122535,0.0283 0.274075,-0.13617 0.33676,-0.36542 0.08955,-0.32748 0.01235,-0.51303 -0.360365,-0.86589 -0.260886,-0.247 -0.474336,-0.60314 -0.474336,-0.79145 0,-0.40029 0.998957,-1.55913 1.700978,-1.97322 0.634824,-0.37445 1.099676,-1.42617 1.001238,-2.26528 -0.04153,-0.35426 0.02357,-0.94453 0.144766,-1.3117 0.198093,-0.60023 0.183329,-0.77076 -0.14631,-1.69 -0.403031,-1.1239 -0.472685,-2.26188 -0.172939,-2.82562 0.106498,-0.20029 0.48162,-0.7066 0.833611,-1.12514 0.381965,-0.45418 0.639978,-0.93527 0.639978,-1.19328 0,-0.55276 1.442436,-1.88612 2.307962,-2.13342 0.335318,-0.0958 0.94728,-0.35602 1.359921,-0.57823 l 0.750244,-0.40404 -0.727686,-0.008 c -0.698013,-0.007 -1.772497,-0.4598 -2.898513,-1.22085 -0.368317,-0.24894 -0.458482,-0.43726 -0.458482,-0.95761 0,-0.59798 0.05444,-0.67366 0.708568,-0.9851 0.389709,-0.18555 0.969983,-0.48916 1.28949,-0.67469 1.094422,-0.6355 2.584073,-0.29898 3.262949,0.73712 0.152611,0.23292 0.23001,0.54717 0.172,0.69834 -0.141729,0.36933 0.332204,1.06149 0.726823,1.06149 0.174281,0 0.693879,-0.087 1.154662,-0.19339 0.803957,-0.18557 0.852521,-0.22968 1.202627,-1.09229 0.290401,-0.7155 0.344303,-1.09274 0.264188,-1.84895 -0.126625,-1.19535 -0.539391,-2.41658 -0.939,-2.77822 -0.288316,-0.26092 -0.360421,-0.25104 -1.173099,0.16077 -0.809112,0.41001 -0.848444,0.45806 -0.59984,0.73277 0.334158,0.36924 0.343553,1.08339 0.01853,1.40842 -0.331,0.331 -2.638509,0.54907 -3.183325,0.30083 -0.436913,-0.19907 -0.548383,-0.81339 -0.209147,-1.15262 0.14832,-0.14832 0.118584,-0.22142 -0.125043,-0.30735 -2.559006,-0.90265 -2.887587,-1.08001 -3.102643,-1.67474 l -0.213709,-0.591 -4.170184,0.10745 c -4.463421,0.115 -12.853204,0.49417 -16.674315,0.75359 -1.283756,0.0872 -3.684549,0.24018 -5.335091,0.34005 -1.650549,0.0999 -4.388953,0.29157 -6.085349,0.42598 -5.951844,0.47158 -7.0965245,0.56251 -8.3897139,0.6664 -0.890165,0.0715 -1.2788729,0.16605 -1.2247259,0.29784 0.043605,0.10617 0.1283384,0.31467 0.1882575,0.46332 0.1762787,0.43731 -0.3535594,0.81342 -1.1458715,0.81342 -0.6775341,0 -0.7217881,0.0307 -0.9230136,0.64044 -0.1822649,0.55227 -0.1723026,0.71598 0.072358,1.18911 0.1917924,0.37088 0.2470926,0.71709 0.1706642,1.06846 -0.1250933,0.57508 -0.1245577,0.9045 0.00441,2.85389 0.1202161,1.81417 0.2751523,2.08402 1.1965087,2.08402 0.926473,0 1.5486187,0.5501 1.5470497,1.36788 -6.302e-4,0.43526 -0.1047654,0.60844 -0.5001653,0.83344 -0.2745096,0.1562 -0.4991381,0.41879 -0.4991696,0.58352 -3.15e-5,0.16474 0.3938435,0.64854 0.8752876,1.07513 l 0.8753506,0.7756 -0.3135524,0.59156 -0.3135587,0.59156 0.4551425,0.54091 c 0.3673843,0.43662 0.4371523,0.65178 0.3618392,1.11589 -0.051293,0.31623 -0.2365254,0.73302 -0.4115691,0.92619 -0.2643203,0.2917 -0.3044281,0.5278 -0.2366451,1.39323 l 0.081614,1.04201 h 1.8071541 c 1.755598,0 1.819241,0.013 2.230709,0.45678 0.481224,0.51898 0.537072,0.90867 0.173468,1.21043 -0.158137,0.13125 -0.250085,0.49903 -0.250085,1.00033 0,0.97149 -0.263621,1.23469 -1.123074,1.12126 -0.989763,-0.13062 -4.0452985,0.24106 -4.0452985,0.49208 0,0.36418 0.9438142,0.72077 1.9077358,0.72077 0.8320357,0 0.9696997,0.053 1.3837327,0.53261 0.252871,0.29294 0.778626,0.84893 1.168336,1.23555 0.853207,0.84641 0.915269,1.36271 0.232832,1.93694 -0.289109,0.24327 -0.520883,0.64097 -0.590828,1.01381 -0.08788,0.46842 -0.213771,0.63827 -0.532358,0.71823 -0.2295,0.0576 -0.463139,0.0589 -0.519202,0.003 -0.254024,-0.25403 -0.549422,0.32893 -0.549422,1.08427 0,0.6327 0.08013,0.87967 0.358499,1.10495 0.197174,0.15958 0.478514,0.42198 0.625202,0.58312 0.309287,0.33975 1.395428,0.3219 7.498471,-0.12323 z M 9.8913495,178.22046 c 3.4545275,-0.32115 7.8022625,-0.6639 10.5868365,-0.8346 3.184025,-0.19519 6.631318,-0.41958 10.336744,-0.67283 2.928898,-0.20018 14.65303,-0.66168 16.857563,-0.66356 l 1.51916,-0.001 0.189738,-0.94478 c 0.254944,-1.26944 0.22783,-2.498 -0.07298,-3.30663 -0.304415,-0.81833 -0.737654,-3.12537 -0.735758,-3.91795 6.31e-4,-0.32095 0.183576,-0.97481 0.406239,-1.45305 0.455848,-0.9791 0.991225,-1.25634 1.635463,-0.84691 0.205649,0.13069 0.899081,0.41119 1.540962,0.62333 0.641882,0.21214 1.514227,0.56023 1.938549,0.77354 0.424323,0.2133 1.137056,0.47803 1.583856,0.58827 0.4468,0.11025 1.0588,0.41373 1.360008,0.67443 0.547198,0.4736 0.549624,0.47399 2.951464,0.47399 3.338911,0 3.579336,-0.15027 2.993108,-1.87075 -0.323118,-0.94829 -0.602744,-1.20265 -1.657291,-1.50757 l -0.833604,-0.24104 -0.04972,-5.65112 -0.04972,-5.65112 -1.153508,-0.82388 c -0.634427,-0.45314 -1.324791,-0.97832 -1.534139,-1.16705 -0.679531,-0.61265 -2.357289,-1.55417 -3.381621,-1.89771 -1.550446,-0.51999 -2.995938,-0.72572 -4.911481,-0.69904 -1.768716,0.0246 -3.619854,-0.0651 -5.008464,-0.2428 -0.412634,-0.0528 -1.627983,-0.16497 -2.700779,-0.24925 -2.007182,-0.15769 -2.69028,-0.39401 -2.881632,-0.99689 -0.09165,-0.28875 -0.579568,-0.5437 -2.086787,-1.09038 -0.98108,-0.35585 -1.417224,-0.7304 -1.734387,-1.48949 -0.222946,-0.53358 -0.31291,-0.60405 -0.638031,-0.49977 -1.695288,0.54378 -2.036131,0.51166 -2.79596,-0.26352 -0.359521,-0.36678 -0.759073,-0.66688 -0.887884,-0.66688 -0.46208,0 -1.112777,-0.67636 -1.112777,-1.15667 0,-0.53406 0.521312,-1.27548 1.004685,-1.4289 0.180998,-0.0575 0.326703,-0.23069 0.323792,-0.38497 -0.0138,-0.72896 -1.094365,-1.36423 -2.320528,-1.36423 -1.000658,0 -0.932799,-0.48244 -0.6043,4.29632 0.130676,1.90094 0.285001,4.37116 0.342954,5.48939 l 0.105358,2.03314 -0.51963,0.26872 c -0.735418,0.38029 -1.762031,1.34305 -2.194735,2.05821 -0.950985,1.57177 -1.795535,2.48235 -2.699203,2.91021 -0.737315,0.34911 -0.99437,0.58633 -1.356719,1.25209 -0.410592,0.75439 -0.578654,0.8845 -2.060712,1.59532 -0.887513,0.42566 -1.723713,0.94188 -1.858214,1.14714 -0.150759,0.23007 -0.278581,0.98443 -0.333263,1.96686 -0.07626,1.37009 -0.146814,1.66655 -0.502925,2.11339 -0.510254,0.64027 -1.200611,0.95387 -2.027272,0.92091 -0.346023,-0.0138 -0.674245,0.0479 -0.729381,0.1371 -0.05514,0.0892 -0.676009,0.45195 -1.379725,0.80609 -0.703723,0.35413 -1.411207,0.78989 -1.572198,0.96834 -0.271126,0.30053 -0.273199,0.36355 -0.0281,0.85483 0.249436,0.50002 0.243419,0.57412 -0.105175,1.29422 -0.607609,1.25516 -1.7400838,1.70912 -2.8420542,1.13927 -0.3033128,-0.15685 -0.8092374,-0.23897 -1.2838131,-0.2084 l -0.7832256,0.0505 -0.047638,1.51898 c -0.026213,0.83544 0.021487,1.95975 0.1059625,2.49846 0.084481,0.53871 0.096032,1.13089 0.025709,1.31595 -0.087172,0.22927 0.0322,0.69478 0.3747695,1.46118 0.5791898,1.29586 0.3697032,1.23459 3.2924578,0.96289 z m 0.2667595,-8.40768 c 0.559088,-0.55909 0.754075,-1.29842 0.400132,-1.51717 -0.6240553,-0.38569 0.31279,-1.61165 1.750575,-2.29084 0.458488,-0.21658 1.096198,-0.55847 1.417136,-0.75974 0.379571,-0.23805 0.85017,-0.36619 1.346391,-0.36659 0.579411,-4.8e-4 0.844084,-0.0908 1.100572,-0.37575 0.558912,-0.62084 0.616884,-0.81072 0.667364,-2.18585 0.07414,-2.01963 0.299853,-2.35083 2.304131,-3.3808 1.284015,-0.65984 1.743858,-0.98961 2.000661,-1.43479 0.523518,-0.90752 0.745393,-1.11418 1.6615,-1.54757 0.654666,-0.3097 1.039436,-0.65867 1.627378,-1.47596 0.423498,-0.5887 0.887632,-1.29784 1.031415,-1.57588 0.143777,-0.27804 0.749785,-0.86699 1.346675,-1.30877 0.59689,-0.44178 1.086223,-0.91578 1.087402,-1.05332 0.0013,-0.13755 -0.112655,-2.01317 -0.252953,-4.16805 -0.140299,-2.15488 -0.297667,-4.60337 -0.349716,-5.44109 l -0.09462,-1.52313 -0.694434,-0.10914 c -0.38194,-0.06 -1.094957,-0.37388 -1.584486,-0.69744 -0.603519,-0.39891 -1.059733,-0.57915 -1.417136,-0.5599 -1.322647,0.0713 -1.94422,-0.27334 -1.94422,-1.07785 0,-0.52878 -0.249758,-0.59349 -2.16738,-0.56149 -2.187778,0.0365 -2.662606,-0.24187 -2.99367,-1.75515 -0.217621,-0.99472 -1.333051,-2.37893 -2.194879,-2.72376 -0.448898,-0.17962 -0.684031,-0.4222 -0.911974,-0.94085 -0.623917,-1.41966 -1.617297,-2.61615 -2.172044,-2.61615 -0.526271,0 -1.063854,0.81757 -1.063854,1.61793 0,0.80114 -0.2317297,1.04962 -0.9788678,1.04962 -0.8523194,0 -1.1885187,0.38901 -1.1885187,1.37522 0,0.68316 -0.056775,0.83822 -0.3334393,0.91058 -0.2757698,0.0721 -0.3334455,0.22741 -0.3334455,0.89785 0,0.44587 0.1598008,1.29745 0.3551094,1.8924 0.2982087,0.90841 0.3266024,1.19405 0.177205,1.78263 -0.1430961,0.56375 -0.1277335,0.79792 0.07852,1.19677 0.1927818,0.3728 0.2289008,0.75286 0.145541,1.53132 -0.1042423,0.97336 -0.068716,1.1291 0.5925359,2.59765 0.519233,1.15315 0.7348318,1.88294 0.8233524,2.78702 0.1023519,1.04534 0.1933489,1.30242 0.6210426,1.75453 1.313656,1.38865 1.094951,2.01119 -1.2989107,3.69745 -0.9112365,0.64187 -1.6254378,1.25346 -1.5871133,1.35907 0.038312,0.10562 0.1577277,0.79416 0.2653349,1.53009 0.170261,1.16443 0.1587611,1.44913 -0.088628,2.19395 -0.1563477,0.47073 -0.2423478,1.01619 -0.1911119,1.21214 0.1258242,0.48115 -0.1664172,0.79042 -0.7468988,0.79042 -0.412426,0 -0.4796293,0.0643 -0.4788983,0.45848 4.726e-4,0.25217 0.1856928,0.75859 0.4116005,1.12537 0.2909938,0.47246 0.4122622,0.91237 0.4159484,1.50884 0.00567,0.88409 -0.1948486,1.24208 -0.6950264,1.24208 -0.4711793,0 -0.4171646,0.95972 0.057972,1.03041 0.8054692,0.11983 0.7967672,0.78932 -0.023441,1.80385 -0.1853337,0.22924 -0.4138879,0.86696 -0.5079032,1.41714 -0.1467005,0.85856 -0.1253202,1.11847 0.1508592,1.83394 l 0.3217819,0.8336 1.2636553,0.17683 c 0.6950076,0.0973 1.3153763,0.22855 1.3785909,0.29176 0.2837788,0.28378 0.9630646,0.0782 1.4931735,-0.45191 z m 55.233378,-2.68385 c 1.282723,-0.6625 1.494641,-0.83785 1.818742,-1.50495 0.201768,-0.4153 0.366849,-0.8509 0.366849,-0.96801 0,-0.1171 -0.26899,-0.47146 -0.597753,-0.78746 -1.142305,-1.09798 -1.344766,-1.95315 -0.652865,-2.75768 0.293004,-0.34071 0.417146,-0.68227 0.418431,-1.15131 0.0025,-0.79208 0.6726,-2.32033 1.123849,-2.56182 0.374416,-0.20039 0.982762,-2.75585 0.796074,-3.34405 -0.06264,-0.19729 -0.400794,-0.53984 -0.751505,-0.76123 -0.678158,-0.42811 -0.915856,-1.09228 -0.818419,-2.28682 0.02464,-0.30207 -0.04436,-0.71309 -0.15331,-0.91338 -0.221686,-0.4075 -0.258133,-1.20067 -0.06885,-1.49824 0.391846,-0.61601 2.006269,-0.21599 2.610626,0.64685 0.309539,0.44193 0.341121,1.34202 0.06276,1.7878 -0.155573,0.24911 -0.151168,0.37452 0.02042,0.58126 0.312595,0.37665 0.459245,0.32814 0.589051,-0.19486 0.06257,-0.25216 0.271359,-0.62728 0.46394,-0.83361 0.33923,-0.36343 0.449313,-0.37522 3.530477,-0.37836 2.781429,-0.003 3.535833,-0.0659 6.014605,-0.5026 1.558845,-0.27465 3.346554,-0.57386 3.972676,-0.6649 4.474788,-0.65066 9.968011,-2.28758 12.699496,-3.7843 2.210633,-1.21132 2.584186,-1.57203 2.584186,-2.49527 0,-0.39548 0.05917,-0.71905 0.131496,-0.71905 0.07233,0 0.383956,-0.41656 0.692527,-0.9257 0.30856,-0.50912 1.03345,-1.35859 1.61087,-1.88768 0.66408,-0.6085 1.35586,-1.47831 1.8826,-2.36707 0.45802,-0.77278 1.09996,-1.70517 1.42655,-2.07195 0.32659,-0.36679 0.6417,-0.84684 0.70024,-1.06678 0.10084,-0.37883 -0.046,-4.34438 -0.16527,-4.46367 -0.0309,-0.0309 -0.29101,0.0256 -0.57794,0.12563 -0.49516,0.17262 -0.58141,0.13276 -1.69492,-0.78329 -0.94215,-0.77508 -1.23624,-1.13361 -1.4932,-1.82038 -0.72465,-1.93681 -0.64428,-2.48997 0.59657,-4.10644 1.16888,-1.52271 1.01208,-2.15776 -1.04784,-4.24379 -1.36262,-1.37991 -2.165635,-1.94045 -4.074102,-2.84397 -1.257524,-0.59535 -1.466299,-0.64913 -1.740764,-0.44844 -0.171528,0.12543 -0.593443,0.22804 -0.937595,0.22804 -0.834739,0 -1.44931,-0.54331 -1.655394,-1.46345 -0.189757,-0.84724 0.09563,-1.55201 0.811254,-2.00339 0.323615,-0.20412 0.434991,-0.39569 0.3946,-0.6787 -0.03686,-0.25826 0.11082,-0.57466 0.427977,-0.91697 0.704573,-0.76047 1.054704,-1.38568 0.941388,-1.68098 -0.119163,-0.31054 -0.142308,-0.31225 -0.834953,-0.0618 -0.513095,0.18553 -0.604628,0.15514 -1.568165,-0.52075 -0.5628,-0.39478 -1.354407,-0.81743 -1.759126,-0.93924 -0.404726,-0.1218 -1.017313,-0.43889 -1.361306,-0.70463 -0.603904,-0.46655 -1.13279,-0.69016 -3.003657,-1.26995 -0.985416,-0.30538 -1.956306,-0.94347 -3.347008,-2.19976 -0.519007,-0.46884 -1.041781,-0.8175 -1.16172,-0.77481 -0.119939,0.0427 -0.404322,0.49876 -0.631956,1.01348 -0.227641,0.51473 -0.535012,1.06972 -0.683054,1.2333 -0.355778,0.39313 -0.927129,0.37732 -1.301186,-0.036 -0.228951,-0.25299 -0.506706,-0.33152 -1.151209,-0.32549 l -0.849452,0.008 -2.728858,3.40985 -2.728857,3.40984 H 66.55342 60.567329 l 0.09095,19.38141 c 0.05003,10.65976 0.135616,22.77742 0.190204,26.92813 l 0.09926,7.54673 0.726394,0.18291 c 1.022518,0.25747 1.511454,0.77986 1.841711,1.96773 0.154735,0.55656 0.313389,1.01193 0.352564,1.01193 0.03919,0 0.72458,-0.33744 1.523117,-0.74988 z m -5.093053,-19.38177 c -0.0322,-2.91138 -0.104961,-11.21316 -0.161635,-18.44841 l -0.103045,-13.15499 -3.105611,0.10854 c -1.708086,0.0597 -4.255529,0.10875 -5.660982,0.10901 l -2.555371,4.7e-4 0.119725,4.22705 c 0.09124,3.22142 0.07202,4.25652 -0.08077,4.35095 -0.110266,0.0682 -1.977699,0.19052 -4.149856,0.27193 -4.455066,0.16697 -10.788194,0.41917 -14.834406,0.59074 -1.493615,0.0633 -2.749167,0.16936 -2.790119,0.23561 -0.04096,0.0663 -0.0013,1.08601 0.08781,2.26609 0.08925,1.1801 0.23689,3.57109 0.328102,5.31334 0.09121,1.74224 0.21338,3.63661 0.271491,4.20972 l 0.10566,1.04201 h 0.810813 c 1.550729,0 2.818222,0.85444 2.818222,1.89983 0,0.3108 -0.163878,0.53639 -0.58689,0.80787 -0.578477,0.37126 -0.879478,0.9442 -0.672222,1.27955 0.05835,0.0944 0.415451,0.2643 0.793598,0.3776 0.450177,0.13487 0.778726,0.36684 0.951653,0.67191 0.356382,0.62871 0.651213,0.69181 1.81878,0.38926 0.546852,-0.14171 1.079903,-0.25764 1.184543,-0.25764 0.104645,0 0.328795,0.32318 0.498117,0.71818 0.354423,0.82684 0.682436,1.0701 2.181124,1.61756 0.744057,0.27179 1.274084,0.60179 1.691198,1.05296 l 0.607508,0.6571 2.275996,0.13931 c 1.251796,0.0766 2.346942,0.18316 2.43366,0.23675 0.209128,0.12925 2.77555,0.24562 5.178259,0.2348 1.430476,-0.006 2.297641,0.0823 3.334437,0.34111 2.386773,0.59585 3.505895,1.17883 5.902687,3.07479 0.641875,0.50776 1.21184,0.92482 1.266579,0.9268 0.05476,0.002 0.07317,-2.37843 0.04096,-5.2898 z m -33.170707,-9.91995 c -0.03535,-0.57311 -0.176694,-2.95514 -0.314088,-5.29341 -0.137387,-2.33828 -0.291359,-4.87119 -0.34216,-5.6287 -0.07028,-1.048 -0.04039,-1.39499 0.124886,-1.45131 0.119485,-0.0407 2.57888,-0.15701 5.46532,-0.25847 2.88644,-0.10146 5.277599,-0.214 5.313692,-0.25009 0.03611,-0.0361 0.214244,-1.32567 0.395892,-2.86572 0.276072,-2.34057 0.30233,-3.08374 0.160009,-4.52848 -0.153853,-1.56179 -0.243747,-1.86982 -0.932705,-3.19599 -1.073646,-2.06665 -1.309321,-3.06575 -1.062575,-4.50466 l 0.194893,-1.1365 -0.990765,-1.44507 c -1.402032,-2.04491 -1.95584,-3.06005 -2.088167,-3.82763 -0.06326,-0.36697 -0.273218,-1.56752 -0.466567,-2.66788 -0.193355,-1.100366 -0.351946,-2.43154 -0.352438,-2.958164 -6.3e-4,-0.844292 -0.08959,-1.100043 -0.751133,-2.163071 -0.565466,-0.90864 -0.750219,-1.370884 -0.750119,-1.876771 l 1.26e-4,-0.671195 -1.618374,0.05892 -1.618367,0.05898 -0.590822,-0.686356 -0.590822,-0.686356 -0.750245,0.501653 c -0.41264,0.275908 -0.875785,0.501973 -1.029222,0.50237 -0.15343,3.91e-4 -0.506441,0.192121 -0.784467,0.426056 -0.278019,0.233942 -0.927349,0.650464 -1.442946,0.925604 -0.839112,0.447766 -0.997255,0.480514 -1.50744,0.312137 -0.677559,-0.223614 -1.071188,-0.727768 -1.071188,-1.371974 0,-0.293886 -0.108666,-0.508351 -0.291763,-0.575838 -0.160468,-0.05917 -0.538042,-0.292638 -0.839055,-0.518873 l -0.547292,-0.411343 -0.413107,0.388091 c -0.236109,0.221812 -0.713199,0.428513 -1.113527,0.482427 -0.568402,0.07656 -0.771026,0.204319 -1.075032,0.677868 -0.20604,0.320938 -0.471507,0.715896 -0.589928,0.877688 -0.258258,0.352841 -1.983452,0.853693 -2.79906,0.812609 -0.501923,-0.02527 -1.50093,0.243898 -1.50093,0.404417 0,0.02949 0.155812,0.317686 0.346243,0.640451 0.190438,0.322759 0.41828,1.133565 0.506322,1.801786 0.139498,1.058743 0.227899,1.273693 0.687584,1.671859 l 0.527513,0.456913 -0.284409,0.793502 c -0.37165,1.0369 -0.358203,1.59052 0.04757,1.95772 0.267301,0.24191 0.377725,0.25959 0.578818,0.0927 0.201616,-0.16733 0.359483,-0.13765 0.836736,0.1573 0.514344,0.31789 0.643407,0.49126 0.622726,0.83653 -0.0025,0.0459 -0.11987,0.91224 -0.260281,1.92532 -0.248221,1.79094 -0.244667,1.89465 0.128307,3.74414 0.46823,2.32188 0.401978,2.7295 -0.455395,2.80173 -0.569152,0.048 -0.614175,0.0909 -0.614175,0.58575 0,0.3401 -0.224231,0.86617 -0.617526,1.44875 -0.532869,0.78935 -0.646324,1.13187 -0.827606,2.49861 -0.115547,0.87112 -0.212789,2.01071 -0.216084,2.53243 l -0.0063,0.9486 -0.612322,0.0517 c -0.727232,0.0614 -0.923688,0.41144 -0.316495,0.56384 0.235756,0.0592 0.431405,0.1182 0.434777,0.13119 0.527727,2.03265 0.872124,4.15872 0.895048,5.52542 0.0264,1.5737 0.05337,1.69251 0.480367,2.11813 0.248819,0.24799 0.452395,0.55522 0.452395,0.68272 0,0.1275 0.147229,0.36506 0.327169,0.52791 0.17994,0.16284 0.413233,0.55686 0.51842,0.87558 0.132403,0.40118 0.353301,0.64721 0.717875,0.79953 0.289646,0.12103 0.956657,0.67088 1.482241,1.22191 0.846239,0.88719 0.955617,1.08047 0.955617,1.68871 0,0.50694 0.107185,0.79402 0.409231,1.09606 0.444834,0.44484 0.674503,0.48113 2.67512,0.42268 1.521044,-0.0444 1.863828,0.11542 2.150682,1.00291 0.179367,0.55493 0.20742,0.56934 1.267115,0.65086 0.852981,0.0656 1.214486,0.18342 1.69806,0.55336 0.595655,0.4557 1.265092,0.73661 1.825579,0.76608 0.231157,0.0122 0.262796,-0.14398 0.208277,-1.02768 z m 19.422203,-13.21498 1.897099,-0.11665 -0.111804,-3.02489 c -0.0615,-1.66369 -0.183834,-6.13841 -0.271882,-9.94384 -0.150286,-6.49565 -0.332904,-9.72588 -0.587318,-10.38888 -0.06867,-0.17892 0.05249,-0.49677 0.326035,-0.85542 0.300446,-0.393898 0.435293,-0.775901 0.435293,-1.233104 0,-0.364322 0.24502,-1.365648 0.544489,-2.22517 0.502282,-1.441629 0.530947,-1.633472 0.369816,-2.474758 l -0.174678,-0.91198 h -0.985982 -0.985989 l -0.301964,-0.984653 c -0.166077,-0.541558 -0.395217,-1.097276 -0.509201,-1.234927 -0.113978,-0.137652 -0.732406,-0.493215 -1.374288,-0.790145 -1.641651,-0.759426 -3.716698,-0.936019 -4.757767,-0.404908 -0.675366,0.344548 -0.79465,0.353433 -2.311932,0.172182 -2.570859,-0.307099 -6.221577,-0.384322 -6.37989,-0.134948 -0.07322,0.115326 -0.134275,1.113432 -0.13568,2.218018 l -0.0025,2.008323 0.777857,1.242748 c 0.753918,1.204505 0.778909,1.286352 0.812035,2.659883 0.01878,0.77942 0.200879,2.354949 0.404625,3.501159 0.405684,2.28229 0.621912,2.77294 2.277672,5.16837 l 0.979549,1.41714 v 2.08402 2.08402 l 0.674484,1.16706 c 0.93895,1.62465 1.030747,1.8555 1.231891,3.098 0.23943,1.47898 0.223569,2.79447 -0.05955,4.94059 -0.130455,0.98889 -0.26926,2.1356 -0.308461,2.54824 l -0.07126,0.75024 3.351129,-0.10953 c 1.843122,-0.0602 4.204822,-0.16204 5.248222,-0.22619 z m 9.246217,-8.8607 4.278452,-0.11009 v -2.55746 -2.55746 h 1.98499 1.984996 l 3.033783,-4.9435 c 1.668577,-2.71892 3.438711,-5.43441 3.933627,-6.034417 1.106244,-1.341155 1.195395,-2.040315 0.395041,-3.098088 -0.364366,-0.481564 -0.495527,-0.837669 -0.495527,-1.34539 0,-0.518067 -0.09838,-0.776029 -0.393995,-1.033059 -0.216702,-0.188421 -0.660017,-0.745878 -0.985144,-1.238803 -0.559461,-0.848192 -0.602373,-1.015309 -0.80075,-3.118618 l -0.209613,-2.222391 0.452975,-0.361795 c 0.249128,-0.198982 0.515263,-0.624376 0.591402,-0.945314 0.891526,-3.757884 1.511851,-6.526786 1.511851,-6.748377 0,-0.149958 -0.380334,-0.737346 -0.84518,-1.305307 l -0.845174,-1.032656 0.119945,-1.16705 c 0.163657,-1.592381 0.17982,-1.476627 -0.451242,-3.231814 l -0.562542,-1.564593 -3.960559,0.119303 -3.960558,0.119302 -0.813346,-0.597048 c -0.706312,-0.518476 -0.937293,-0.597047 -1.755201,-0.597047 -1.062568,0 -2.44424,-0.584042 -3.014791,-1.274361 -0.557601,-0.674648 -1.301034,-0.672115 -3.86861,0.01317 -1.265054,0.337649 -2.387025,0.64202 -2.493265,0.676381 -0.185138,0.05986 -0.159983,0.29974 0.196147,1.87071 0.06257,0.276059 -0.162397,0.654818 -0.89353,1.504308 -0.837537,0.973115 -1.096236,1.165865 -1.810437,1.348911 l -0.833271,0.213558 -1.19218,3.816599 c -1.321702,4.231237 -1.350676,4.475538 -1.082587,9.128087 0.101356,1.759037 0.129806,1.875624 0.457726,1.87575 0.508829,1.89e-4 2.440308,0.949315 2.981627,1.465171 0.263709,0.251295 0.576052,0.826112 0.722355,1.329371 l 0.257749,0.886643 0.970632,-0.109813 0.970633,-0.109813 0.181225,0.895023 c 0.278637,1.376071 0.241176,1.784508 -0.303767,3.312484 -0.298019,0.835633 -0.50687,1.754791 -0.508962,2.240003 -0.0025,0.6073 -0.09677,0.92208 -0.359381,1.20162 -0.343452,0.36559 -0.349451,0.44135 -0.172441,2.17813 0.100864,0.98965 0.224811,3.63747 0.275435,5.88405 0.0506,2.24658 0.136316,4.81618 0.190426,5.71022 l 0.09837,1.62554 h 1.372107 c 0.754662,0 3.297411,-0.0495 5.650554,-0.11009 z m 39.691293,-1.03184 c 0.04814,-0.0779 -0.09749,-0.30246 -0.323603,-0.49906 -0.334668,-0.291 -0.411115,-0.51269 -0.411115,-1.19218 0,-0.45909 -0.06889,-0.83471 -0.15309,-0.83471 -0.379855,0 -0.712488,0.2451 -0.946329,0.6973 -0.204313,0.39509 -0.216859,0.60112 -0.06469,1.0622 0.103833,0.31462 0.314454,0.64535 0.468041,0.73497 0.346055,0.20191 1.312314,0.22317 1.430785,0.0315 z m -20.506214,-7.69602 2.8193,-3.49947 h 1.031144 c 0.819401,0 1.093098,0.0685 1.3329,0.33345 0.16597,0.18339 0.394039,0.33344 0.506826,0.33344 0.273526,0 0.727887,-0.71345 0.853113,-1.33958 0.05551,-0.2775 0.290458,-0.65364 0.522125,-0.83587 l 0.42121,-0.33133 -0.401392,-0.43792 c -0.22076,-0.24087 -0.564836,-0.60588 -0.764599,-0.81115 -0.19977,-0.20527 -0.643262,-0.925913 -0.985535,-1.601437 -0.955516,-1.885833 -1.226648,-3.398818 -0.902982,-5.038887 0.111174,-0.563348 0.22856,-1.737002 0.260861,-2.608118 0.04833,-1.303215 0.139599,-1.754287 0.515124,-2.545685 0.417455,-0.879756 0.511697,-0.970664 1.104554,-1.065467 0.531817,-0.08504 0.795854,-0.281114 1.470981,-1.092361 0.452546,-0.543796 0.980569,-1.297947 1.173383,-1.675886 0.192813,-0.377945 1.115228,-1.704305 2.049804,-2.947468 0.934583,-1.243164 1.768396,-2.372835 1.852915,-2.510379 0.08452,-0.137545 0.155144,-1.262918 0.15694,-2.500826 0.0025,-1.574707 0.07069,-2.369344 0.227754,-2.645599 0.192744,-0.339016 0.184017,-0.484601 -0.06169,-1.029537 -0.312909,-0.693911 -0.274251,-1.336044 0.145094,-2.410207 0.14319,-0.366792 0.26364,-1.107906 0.267666,-1.646925 0.0057,-0.780958 0.111741,-1.162551 0.521382,-1.878523 0.282733,-0.494173 0.714126,-1.003318 0.958654,-1.131442 0.980084,-0.513543 1.447186,-1.267801 2.082981,-3.363517 0.509875,-1.680656 0.612347,-2.268788 0.612347,-3.514572 V 57.73225 l 0.763622,-0.548396 c 0.419994,-0.301618 0.701341,-0.604659 0.625208,-0.673432 -0.07613,-0.06877 -3.401999,-0.210066 -7.390813,-0.314 -3.98882,-0.103927 -8.651728,-0.233576 -10.362019,-0.288107 -3.543753,-0.112995 -3.145706,-0.297251 -3.45798,1.600686 -0.224887,1.366833 -0.601402,3.735798 -1.775372,11.170355 -0.514028,3.255242 -1.004105,6.285232 -1.089065,6.733311 -0.246211,1.298571 -0.200243,1.470388 0.674913,2.522761 0.546889,0.657634 0.830819,1.154271 0.833611,1.458132 0.0025,0.253444 -0.186979,1.266283 -0.420675,2.25074 -0.233696,0.984464 -0.611604,2.576493 -0.839792,3.537843 -0.298228,1.256415 -0.531262,1.869386 -0.828747,2.179889 l -0.413856,0.431972 0.172996,1.973396 c 0.190532,2.173423 0.325102,2.50271 1.61746,3.95783 0.595157,0.670118 0.716848,0.922384 0.716848,1.486066 0,0.480959 0.121539,0.823377 0.4168,1.174278 0.329772,0.391915 0.416806,0.67972 0.416806,1.378326 0,0.826452 -0.06024,0.956372 -0.941093,2.029546 -0.517601,0.630614 -1.108808,1.409154 -1.313783,1.730094 -0.888614,1.39133 -5.414324,8.8494 -5.414324,8.92246 0,0.0443 1.669301,0.0798 3.70956,0.0788 l 3.70956,-0.002 z m 19.951297,0.99503 c 0.263476,-0.14101 0.291006,-0.23649 0.146209,-0.50706 -0.241151,-0.45059 -0.05621,-3.12478 0.361335,-5.22497 0.180897,-0.90989 0.362923,-1.70938 0.404492,-1.77664 0.04159,-0.0673 0.44346,-0.1729 0.893083,-0.23474 0.591357,-0.0813 0.839452,-0.1964 0.896882,-0.415996 0.04367,-0.166959 0.0443,-1.325282 0.0013,-2.574047 -0.07151,-2.08242 -0.04915,-2.31933 0.269986,-2.86022 0.409288,-0.693697 0.433384,-0.95912 0.111318,-1.226409 -0.165692,-0.137513 -0.230306,-0.530985 -0.215529,-1.312509 0.01159,-0.613866 -0.03592,-1.281482 -0.105616,-1.483589 -0.105597,-0.306231 -0.02105,-0.434651 0.507298,-0.770548 0.466132,-0.296343 0.708429,-0.614716 0.915055,-1.202356 0.268171,-0.762652 0.266614,-0.827568 -0.03384,-1.41655 l -0.314907,-0.617275 0.742431,-1.130376 c 0.408337,-0.621705 0.74167,-1.288054 0.74074,-1.480779 -6.3e-4,-0.192719 0.16134,-0.814606 0.36059,-1.381969 l 0.36228,-1.031566 -0.60054,-1.674392 c -0.3303,-0.920915 -0.84893,-2.005437 -1.15252,-2.410056 -0.303584,-0.404613 -0.627004,-0.85634 -0.7187,-1.003834 -0.0917,-0.147501 -0.792596,-0.45375 -1.557554,-0.680552 -1.24145,-0.368084 -1.448529,-0.388274 -1.927913,-0.187974 -0.317497,0.132654 -0.873554,0.19309 -1.360071,0.147809 -0.71354,-0.0664 -0.922781,-0.0085 -1.573244,0.435262 -0.856781,0.584527 -1.063186,0.613967 -1.888171,0.269261 -0.501803,-0.209663 -0.694509,-0.214793 -1.229092,-0.0327 -0.404487,0.137771 -0.61323,0.303218 -0.576663,0.457052 0.464909,1.95577 0.302361,2.405273 -1.982923,5.483449 -1.095795,1.475984 -1.992677,2.738379 -1.993068,2.805324 -0.0013,0.193897 -0.856781,1.416839 -1.583143,2.262719 -0.460354,0.536108 -0.795967,0.777416 -1.083691,0.779174 -0.571451,0.0038 -0.733067,0.137557 -1.144655,0.94946 -0.278757,0.54987 -0.35584,1.003147 -0.35584,2.092464 0,0.764801 -0.144193,2.050379 -0.320427,2.856843 -0.286684,1.311867 -0.295462,1.537069 -0.08336,2.138219 0.130386,0.369552 0.237067,0.779747 0.237067,0.911545 0,0.662278 1.162041,2.56055 2.327415,3.801966 2.689348,2.86485 3.514414,3.4667 5.667018,4.13385 1.543553,0.4784 2.11675,0.75332 2.731863,1.31027 0.168402,0.15249 0.5497,0.32293 0.847323,0.37877 0.297623,0.0558 1.022624,0.43238 1.611108,0.83676 1.197309,0.82274 1.214575,0.82882 1.666586,0.58692 z M 10.72496,94.604595 c 0.229241,-0.131048 0.736792,-0.24093 1.127888,-0.244176 0.391096,-0.0032 1.162305,-0.131363 1.713794,-0.284686 0.930802,-0.258788 1.025769,-0.330918 1.324369,-1.005964 0.316659,-0.715852 1.042618,-1.216086 1.764829,-1.216086 0.150178,0 0.495956,-0.187565 0.768398,-0.416806 0.272437,-0.229241 0.562,-0.416805 0.64347,-0.416805 0.08147,0 0.404474,0.225076 0.717786,0.500165 0.313313,0.275096 0.676041,0.500165 0.806068,0.500165 0.385356,0 0.636538,0.364807 0.636538,0.924476 0,0.511955 0.326678,0.948691 0.833611,1.114453 0.310774,0.101621 1.582463,-0.525515 2.25074,-1.10996 0.275096,-0.240578 0.68773,-0.484538 0.916971,-0.542132 0.229241,-0.05759 0.821298,-0.331392 1.315679,-0.608441 l 0.898873,-0.503731 0.649323,0.69611 0.64933,0.696116 1.286069,-0.0025 c 0.707339,-0.0013 1.371407,-0.05766 1.475712,-0.125043 0.107148,-0.06921 0.216324,-0.717598 0.250981,-1.490508 0.03371,-0.752406 0.135963,-1.441283 0.227162,-1.530824 0.216537,-0.212606 2.302171,-0.285278 3.208499,-0.111797 0.685568,0.131224 0.708568,0.121665 0.708568,-0.294548 0,-0.293433 -0.262789,-0.69296 -0.826711,-1.256882 -0.454689,-0.454688 -0.869925,-1.039701 -0.922749,-1.300032 -0.0528,-0.260332 -0.173733,-0.718278 -0.268681,-1.017659 -0.09494,-0.299387 -0.154325,-0.992826 -0.131955,-1.540982 0.02237,-0.548156 -0.0099,-1.047199 -0.07166,-1.10899 -0.06182,-0.06182 -0.112346,-0.442382 -0.112346,-0.845766 0,-0.403377 -0.08424,-0.897291 -0.187199,-1.097584 -0.102956,-0.200287 -1.003254,-1.196673 -2.00066,-2.214181 -0.997407,-1.017514 -1.813463,-1.968102 -1.813463,-2.112414 0,-0.144319 -0.769003,-0.903656 -1.708898,-1.687417 -0.9399,-0.783782 -2.196567,-1.875128 -2.792594,-2.425231 -1.030532,-0.951124 -1.126098,-1.000457 -1.948127,-1.005731 -0.475439,-0.0032 -1.07069,-0.08397 -1.322786,-0.179807 -0.32763,-0.124564 -0.679003,-0.117708 -1.232061,0.02401 -0.425539,0.109063 -1.040803,0.148194 -1.367248,0.08695 l -0.593538,-0.11135 -0.06859,-2.288472 c -0.05325,-1.77665 -0.01531,-2.382243 0.169751,-2.707749 0.224735,-0.395336 0.19033,-0.495313 -0.602379,-1.750581 -1.587157,-2.513271 -2.17837,-2.997185 -4.08034,-3.339806 l -0.625202,-0.112623 -0.007,0.727125 c -0.0038,0.399918 -0.144526,0.985372 -0.31262,1.30101 -0.224452,0.421468 -0.268826,0.702197 -0.167072,1.056992 0.09529,0.33226 0.0569,0.687112 -0.122894,1.136507 -0.178283,0.445571 -0.226715,0.885011 -0.152265,1.381496 0.103959,0.693243 0.08292,0.743591 -0.43978,1.052335 -0.301926,0.178346 -0.6956,0.597098 -0.874827,0.930563 l -0.3258657,0.606298 0.3856267,1.132449 c 0.212095,0.622845 0.527538,1.447187 0.700987,1.831868 0.224982,0.498962 0.315361,1.082626 0.315361,2.036472 0,1.166426 0.04253,1.359832 0.333446,1.515511 0.432962,0.231712 0.42041,0.56258 -0.06691,1.763934 -0.352595,0.869226 -0.460511,0.993097 -0.90455,1.03829 -0.659154,0.06709 -0.724857,0.166751 -1.3403424,2.033119 -0.613431,1.86011 -0.6431794,2.362771 -0.1784778,3.015383 0.3519966,0.49433 0.3152726,0.818803 -0.092667,0.818803 -0.1260637,0 -0.2529024,0.206273 -0.2819262,0.458489 -0.043983,0.382034 -0.1431024,0.467196 -0.5945964,0.510726 l -0.5418483,0.05224 0.00649,1.781698 c 0.0063,1.709579 0.028608,1.818812 0.5523841,2.698661 0.4139698,0.69538 0.6532552,0.929637 0.9901728,0.969373 0.5308588,0.06263 1.1184982,0.751618 1.1184982,1.311438 0,0.221043 -0.186152,0.588049 -0.4136733,0.81557 -0.4047951,0.404801 -0.4079836,0.427889 -0.148616,1.076116 0.2957953,0.739261 0.3113473,0.74642 0.8957353,0.412357 z m 29.438494,-5.166299 c 0.428999,-0.228101 0.939385,-0.382861 1.134196,-0.343906 0.194804,0.03894 0.568496,0.116473 0.830416,0.172271 l 0.476214,0.101451 -0.112302,-3.633824 -0.112308,-3.633831 1.02713,-3.251071 c 0.564917,-1.788093 1.100571,-3.501811 1.190333,-3.808269 0.148742,-0.507796 0.04392,-0.815343 -1.182633,-3.468717 -0.995472,-2.153531 -1.346958,-3.093577 -1.350109,-3.610844 -0.0038,-0.657823 -0.08184,-0.770604 -1.311261,-1.899985 -0.718852,-0.660363 -1.804798,-1.51277 -2.413207,-1.894244 -0.924816,-0.579858 -1.106205,-0.768311 -1.106205,-1.149287 0,-0.25064 -0.146215,-0.588031 -0.324926,-0.74976 -0.178705,-0.161729 -0.496864,-0.773477 -0.707018,-1.359447 -0.381858,-1.064761 -0.38264,-1.065562 -1.300612,-1.332661 -1.469242,-0.427511 -1.901958,-0.452754 -2.881116,-0.168106 -0.6303,0.183229 -1.585494,0.268316 -3.012176,0.268316 -1.149054,0 -2.269147,0.06842 -2.489087,0.152043 -0.49537,0.18834 -0.600167,0.118566 -1.244285,-0.828519 -0.708228,-1.041346 -0.878476,-1.154662 -1.902714,-1.266434 -0.491116,-0.05362 -1.059102,-0.201049 -1.262199,-0.32768 -0.203091,-0.126631 -0.481035,-0.230237 -0.617653,-0.230237 -0.155409,0 -0.282424,-0.218428 -0.339306,-0.583525 -0.05003,-0.320937 -0.128849,-0.83022 -0.175207,-1.131737 l -0.08429,-0.548213 -1.124441,0.113808 c -1.587201,0.160651 -3.588177,0.622045 -3.741047,0.862641 -0.07106,0.111835 -0.130342,0.372141 -0.131747,0.578458 -0.0032,0.418973 -0.543285,1.042014 -0.903852,1.042014 -0.129296,0 -0.350704,0.341303 -0.493756,0.761133 -0.142637,0.418627 -0.564502,1.125613 -0.937476,1.571089 -0.577891,0.690232 -0.634288,0.821525 -0.381537,0.888256 0.163135,0.04304 0.649828,0.170223 1.081548,0.282569 0.945075,0.245927 2.02063,1.125531 2.481929,2.029748 0.185762,0.364126 0.673312,1.152185 1.083451,1.751249 l 0.745695,1.089204 -0.303596,0.523266 c -0.25882,0.446094 -0.293886,0.811348 -0.237767,2.476667 0.07509,2.228572 0.114457,2.282789 1.418982,1.954302 0.553777,-0.139441 0.97902,-0.141111 1.607586,-0.0063 0.470046,0.100808 1.122551,0.183286 1.450004,0.183286 0.51101,0 0.830302,0.20672 2.253248,1.458819 0.911829,0.802343 2.234496,1.930338 2.939258,2.506642 0.704762,0.576304 1.358181,1.251525 1.452045,1.500496 0.09386,0.248964 0.869862,1.127887 1.724443,1.953161 1.74055,1.680864 2.189581,2.395482 2.189581,3.484679 0,0.410876 0.07803,0.79528 0.173417,0.854229 0.107507,0.06644 0.134294,0.46622 0.07047,1.05185 -0.163651,1.501806 0.238353,2.71788 1.253202,3.790934 0.535591,0.56631 0.837013,1.031894 0.837013,1.292874 0,0.441286 0.151597,0.499258 2.000661,0.765047 1.572872,0.226084 1.959438,0.193361 2.76301,-0.233898 z M 100.91998,77.851898 c 0.20176,-0.395501 1.10258,-1.340399 2.22751,-2.336526 1.88693,-1.670877 1.88889,-1.673397 2.0404,-2.628711 l 0.15166,-0.956228 0.83541,-0.04902 c 0.74717,-0.04386 0.87861,-0.112062 1.24449,-0.646028 0.225,-0.328366 0.8873,-1.019045 1.47178,-1.53485 0.58447,-0.515805 1.24161,-1.237921 1.4603,-1.604713 0.37257,-0.624893 0.87488,-1.17429 4.57298,-5.001652 0.79741,-0.825268 1.61673,-1.744325 1.82073,-2.042338 0.2773,-0.40511 0.49506,-0.541848 0.86289,-0.541848 0.45003,0 0.48245,-0.038 0.38014,-0.445659 -0.0901,-0.358897 -0.0245,-0.515352 0.33716,-0.803693 l 0.44902,-0.358033 -0.33283,-0.77647 c -0.18306,-0.427058 -0.45313,-1.359574 -0.60016,-2.072257 -0.14703,-0.712682 -0.44455,-1.708426 -0.66116,-2.212756 -0.21662,-0.504337 -0.43874,-1.123288 -0.49361,-1.375459 -0.082,-0.376767 -0.18939,-0.458482 -0.60262,-0.458482 -0.6877,0 -1.28207,0.426541 -1.41074,1.012385 -0.23627,1.075706 -1.32958,1.295943 -2.00932,0.404751 -0.43342,-0.568238 -0.94757,-0.75366 -1.15576,-0.416806 -0.17093,0.276577 -0.7342,0.188566 -1.25436,-0.196002 -0.44431,-0.328499 -0.56641,-0.345229 -1.29383,-0.177318 -0.75516,0.174313 -0.92745,0.142113 -2.87876,-0.537992 -1.14153,-0.397876 -2.48816,-0.917544 -2.99249,-1.154832 -0.86073,-0.404965 -1.07325,-0.431525 -3.465018,-0.433056 -2.367295,-0.0013 -2.604577,0.02703 -3.34491,0.402174 -1.10352,0.559195 -1.259729,0.787561 -1.121907,1.640138 0.270483,1.673227 0.290553,2.313092 0.09775,3.116784 -0.170676,0.711467 -0.354044,0.982183 -1.103589,1.629294 l -0.898905,0.776062 -6.3e-4,1.343656 c -5.17e-4,1.089254 -0.124835,1.748483 -0.656614,3.481831 -0.709803,2.313614 -1.131089,3.026247 -2.0899,3.53524 -0.884815,0.469711 -1.420898,1.584713 -1.420898,2.95532 0,0.724825 -0.104135,1.258236 -0.333445,1.70801 -0.400952,0.786445 -0.415823,1.179262 -0.07547,1.993843 0.232827,0.557217 0.232827,0.703955 0,1.504837 -0.360409,1.239773 -0.356029,1.253088 0.348065,1.05868 0.473945,-0.130865 0.766458,-0.106076 1.342043,0.113745 l 0.735998,0.281082 0.686085,-0.475433 c 0.576505,-0.399496 0.861431,-0.477644 1.78399,-0.489295 0.603853,-0.0076 1.298187,-0.110695 1.542967,-0.229046 0.391588,-0.189329 0.641932,-0.151855 2.084021,0.311977 l 1.638966,0.527154 0.666885,1.027136 c 0.366792,0.564917 0.729416,1.199773 0.805826,1.410784 0.0764,0.211011 0.16867,0.383654 0.20501,0.383654 0.0364,0 0.21853,-0.29882 0.40485,-0.664043 z M 45.990942,73.829252 c 0.58435,-0.147141 0.890763,-0.373792 1.490962,-1.102846 0.415494,-0.504702 0.755449,-1.03011 0.755449,-1.167573 0,-0.137463 -0.178648,-1.347992 -0.396994,-2.690073 -0.218346,-1.342081 -0.488344,-3.377954 -0.59999,-4.524165 -0.179152,-1.839304 -0.250004,-2.128867 -0.603337,-2.465892 -0.486642,-0.464198 -0.495193,-0.612001 -0.06689,-1.156496 0.236091,-0.300143 0.332544,-0.67289 0.33037,-1.276711 -0.0038,-1.059141 -0.45397,-3.67017 -0.643922,-3.734941 -0.07722,-0.02634 -0.427726,-0.194364 -0.778916,-0.373409 -0.686009,-0.349747 -0.622908,-0.365147 -1.656024,0.404147 -0.369288,0.274982 -1.020048,-0.04991 -2.121312,-1.058996 -1.134951,-1.039978 -1.600145,-1.816361 -1.972513,-3.29201 -0.208428,-0.825961 -0.246961,-0.86934 -0.814594,-0.916965 -0.991994,-0.08324 -0.89007,-0.572819 0.47583,-2.285637 1.138392,-1.427526 1.179098,-1.510174 1.179098,-2.394265 0,-0.84235 -0.04461,-0.949737 -0.557211,-1.340707 -0.30647,-0.233753 -0.812886,-0.490884 -1.125373,-0.571408 -0.537664,-0.138546 -0.570948,-0.189915 -0.620136,-0.957034 -0.03995,-0.623551 0.03069,-0.922415 0.306123,-1.294998 0.341474,-0.46186 0.344625,-0.499264 0.06782,-0.805129 -0.413938,-0.457398 -0.833491,-0.396937 -1.061257,0.152945 -0.182593,0.44082 -1.075644,1.02679 -1.564883,1.02679 -0.11486,0 -0.90007,-0.964949 -1.744923,-2.144331 -1.32099,-1.844061 -1.536085,-2.237325 -1.536085,-2.80843 0,-0.813415 0.305556,-1.121038 1.382302,-1.39166 0.619474,-0.155698 0.857651,-0.314617 1.061069,-0.707994 0.239317,-0.46278 0.238718,-0.547161 -0.0069,-0.962857 -0.148024,-0.250596 -0.269141,-0.612858 -0.269141,-0.805028 0,-0.422521 0.08478,-0.419893 -5.774777,-0.178963 -4.000264,0.164482 -4.228856,0.156669 -6.539125,-0.223488 -1.31668,-0.216658 -2.565899,-0.361058 -2.776053,-0.320881 -0.323641,0.06188 -0.43346,0.277566 -0.717838,1.409933 -0.335134,1.334489 -0.335147,1.338282 -0.005,2.108099 0.624944,1.457924 1.639232,5.218473 1.484768,5.504854 -0.08029,0.148862 -0.340434,0.452547 -0.5781,0.67485 -0.346249,0.323868 -0.432111,0.559719 -0.432111,1.186918 0,0.705165 0.115648,0.941697 1.16705,2.38693 0.969549,1.332705 1.167057,1.713852 1.167057,2.25214 0,0.751391 -0.177785,0.935635 -1.055562,1.093936 -0.466396,0.08412 -0.713829,0.247156 -0.91697,0.604212 -0.322876,0.567564 -0.375145,0.578875 -1.053725,0.227962 -0.484639,-0.250615 -0.528376,-0.244862 -0.917418,0.120619 -0.289349,0.271832 -0.380756,0.494362 -0.313364,0.762892 0.06614,0.26352 -0.07218,0.622354 -0.453655,1.17693 -0.357737,0.520059 -0.626865,1.190535 -0.773018,1.925821 -0.12331,0.6204 -0.196587,1.151297 -0.162825,1.179772 0.03378,0.02848 0.511533,-0.04865 1.061711,-0.171426 1.215419,-0.271189 3.760279,-0.577495 3.929425,-0.472957 0.06735,0.04165 0.174331,0.522674 0.237741,1.068996 0.103146,0.888735 0.171906,1.026733 0.653047,1.310613 0.29577,0.174508 0.907739,0.369633 1.359933,0.433611 1.283246,0.181552 1.37786,0.23587 1.987327,1.140874 l 0.573651,0.851828 2.603393,-0.0443 c 2.024807,-0.0344 2.805481,-0.113802 3.512681,-0.35712 l 0.90929,-0.31284 1.447936,0.419597 c 0.796364,0.230778 1.534725,0.49162 1.640801,0.579656 0.106069,0.08803 0.291277,0.51157 0.411562,0.941199 0.120286,0.429622 0.475515,1.065391 0.789389,1.412813 0.414051,0.458306 0.545767,0.734958 0.4799,1.007955 -0.07752,0.321316 0.05942,0.461501 0.937557,0.959801 0.565585,0.320937 1.648519,1.175305 2.406527,1.898592 1.323291,1.262698 1.378188,1.344652 1.378188,2.057619 0,0.575692 0.286482,1.357223 1.274991,3.478176 0.70124,1.504604 1.305729,2.735637 1.343304,2.735637 0.03755,0 0.3993,-0.08334 0.803831,-0.185201 z M 70.337864,70.57609 c 0.227332,-1.455839 0.564073,-3.584788 0.74831,-4.731 0.668284,-4.157625 1.239762,-7.769073 1.484,-9.378103 0.087,-0.573102 0.201944,-5.524741 0.255442,-11.003635 l 0.09727,-9.961621 h -8.668717 c -8.327583,0 -8.702611,-0.01336 -9.530166,-0.339558 -0.4738,-0.186752 -0.880423,-0.318046 -0.903599,-0.291763 -0.02319,0.02628 -0.305959,0.574829 -0.628403,1.218979 -0.889308,1.776612 -1.408163,3.727796 -1.612886,6.065374 -0.161092,1.839373 -0.225069,2.108911 -0.578263,2.436238 -0.484639,0.449144 -0.848614,1.137396 -1.01241,1.914365 -0.06766,0.320937 -0.264258,0.878961 -0.436881,1.240044 -0.172631,0.361089 -0.313874,0.750995 -0.313874,0.86646 0,0.115471 -0.381399,0.713835 -0.84755,1.329711 -0.715757,0.945648 -0.806496,1.142746 -0.583525,1.267531 0.338846,0.189625 0.334517,0.443844 -0.01411,0.829086 -0.241302,0.266633 -0.252348,0.419137 -0.08337,1.151215 0.257629,1.116092 0.268568,1.056248 -0.314409,1.720222 -0.499126,0.568471 -0.505786,0.599102 -0.33642,1.547976 0.09504,0.532415 0.242644,1.603289 0.328033,2.379722 0.139826,1.271544 0.123568,1.456172 -0.163752,1.859675 -0.397832,0.558705 -0.398336,0.683552 -0.0038,0.929958 0.250389,0.156373 0.338367,0.481747 0.427827,1.58228 0.167948,2.066069 0.610753,5.528019 0.733376,5.733706 0.07245,0.121526 0.900701,-0.0351 2.543007,-0.480953 2.844927,-0.772312 3.708375,-0.76354 4.463415,0.04537 0.694075,0.743578 1.712124,1.172343 2.783584,1.172343 0.821871,0 1.049033,0.07787 1.769,0.606368 l 0.826037,0.606367 4.033874,-0.119819 4.033875,-0.119826 0.488243,1.342775 c 0.268529,0.73853 0.514173,1.316844 0.545875,1.285142 0.03169,-0.0317 0.243633,-1.248777 0.470965,-2.70461 z M 120.19828,58.152439 c 0.44721,-0.196298 1.05421,-0.56672 1.34888,-0.823176 0.29466,-0.25645 0.95205,-0.597495 1.46085,-0.757882 0.75491,-0.237962 1.08018,-0.469919 1.76811,-1.260851 0.62359,-0.716955 0.95596,-0.96924 1.27693,-0.96924 0.23865,0 0.56896,-0.12222 0.73402,-0.271599 0.36913,-0.334056 1.49457,-0.604338 2.41511,-0.580008 0.61465,0.01626 0.71042,-0.03522 0.89506,-0.480972 0.15658,-0.378033 0.37323,-0.543984 0.8928,-0.683892 0.37732,-0.101602 0.93372,-0.402199 1.23644,-0.667988 0.30272,-0.265788 0.73025,-0.483258 0.95005,-0.483258 0.26037,0 0.53374,-0.188315 0.7844,-0.54033 0.31781,-0.446321 0.38583,-0.75814 0.39096,-1.792258 0.004,-0.863618 0.14154,-1.691482 0.44253,-2.669065 0.7016,-2.27875 0.70549,-2.341838 0.212,-3.436285 -0.28108,-0.623362 -0.49711,-1.492537 -0.59169,-2.380597 -0.16311,-1.531612 -0.23323,-1.638387 -1.44928,-2.206947 -0.73008,-0.341353 -1.16468,-0.330673 -2.29263,0.05633 -0.39973,0.137148 -0.62076,0.116505 -1.03255,-0.09643 -0.28817,-0.149019 -0.55814,-0.21495 -0.59994,-0.146511 -0.0418,0.06843 -0.0688,0.687112 -0.0599,1.374841 0.01,0.742853 -0.0721,1.411572 -0.20115,1.647442 -0.238,0.435086 -0.84889,2.852306 -0.84889,3.358968 0,0.174395 -0.22508,0.57343 -0.50017,0.886737 -0.28852,0.328606 -0.50016,0.757958 -0.50016,1.014641 0,0.347919 -0.12287,0.496321 -0.56331,0.680344 -0.30981,0.129454 -0.6051,0.344303 -0.6562,0.477443 -0.0511,0.13314 -0.30397,0.343238 -0.56195,0.466888 -0.25799,0.12365 -0.6505,0.505175 -0.87223,0.847833 -0.38276,0.591471 -0.44825,0.623009 -1.29384,0.623009 -0.69772,0 -0.95352,0.07508 -1.1808,0.346571 -0.15957,0.190621 -0.48903,0.451293 -0.73212,0.579278 -0.32527,0.171257 -0.49915,0.455754 -0.65846,1.077358 -0.19616,0.765361 -0.29961,0.892206 -1.10202,1.3513 l -0.88554,0.506655 -0.54002,-0.454714 c -0.67921,-0.571918 -0.80782,-0.253545 -0.29981,0.742223 0.18874,0.369962 0.49563,1.332188 0.68199,2.138275 0.3773,1.632098 0.80965,2.882748 0.99656,2.882748 0.0676,0 0.48879,-0.160601 0.936,-0.356893 z M 94.84479,55.09156 c 0.06188,-0.412622 0.06512,-0.994061 0.0072,-1.292093 -0.425627,-2.190185 -0.305064,-2.646582 0.83196,-3.149538 0.741833,-0.328153 0.89353,-0.585895 0.548125,-0.9313 -0.40852,-0.408519 0.218043,-1.35365 1.682905,-2.538558 0.278089,-0.224938 0.505616,-0.498773 0.505616,-0.608523 0,-0.202523 -3.160641,-3.291342 -4.463144,-4.361718 -0.666255,-0.547519 -0.73124,-0.567532 -1.013456,-0.312135 -0.603916,0.546537 -1.257587,0.274674 -1.783134,-0.741618 -0.149139,-0.288404 -0.567085,-0.634433 -1.038125,-0.85949 -0.584149,-0.27911 -0.872106,-0.549548 -1.111202,-1.04362 -0.383239,-0.791934 -2.60171,-2.985837 -3.423985,-3.386064 -0.318448,-0.154999 -0.663841,-0.452357 -0.767548,-0.660798 -0.389533,-0.782973 -2.328095,-3.537049 -2.490347,-3.537994 -0.09296,-5.42e-4 -0.655643,-0.339268 -1.250416,-0.752721 -0.594767,-0.413459 -1.54889,-1.069928 -2.120272,-1.458819 -0.678549,-0.461834 -1.099665,-0.880549 -1.214146,-1.20724 -0.28371,-0.809609 -0.726269,-1.209407 -1.682541,-1.51996 -0.698177,-0.226733 -1.152557,-0.545919 -2.03119,-1.42684 -0.636481,-0.638132 -1.329662,-1.176281 -1.583862,-1.229616 -0.531736,-0.11157 -0.635159,-0.169737 -1.447188,-0.813831 -0.338903,-0.268813 -1.003885,-0.620425 -1.477736,-0.781347 l -0.861538,-0.292595 -0.08336,1.114794 -0.08337,1.114793 -2.157298,2.834272 c -1.186515,1.558852 -2.968357,3.898176 -3.959639,5.198511 -0.991288,1.300329 -1.80234,2.406943 -1.80234,2.459143 0,0.05218 2.897902,0.09491 6.439784,0.09491 h 6.439785 l -0.123719,10.147409 -0.123726,10.147416 3.812283,0.129794 c 4.507492,0.153461 12.218487,0.346873 15.430912,0.387057 l 2.282203,0.02855 z M 44.099715,54.924815 c 0.479863,-0.403781 1.303373,-0.572095 1.303373,-0.266394 0,0.08273 0.243828,0.236085 0.541842,0.340793 0.505672,0.177665 0.573424,0.155233 1.014842,-0.336004 0.341631,-0.380188 0.442383,-0.625327 0.362766,-0.882641 -0.237477,-0.767516 -0.289967,-1.897112 -0.09378,-2.018355 0.144961,-0.08959 0.127664,-0.197873 -0.06575,-0.411594 -0.242084,-0.267503 -0.198346,-0.374713 0.563285,-1.380809 0.811279,-1.07168 1.536211,-2.578704 1.762736,-3.664455 0.127287,-0.610116 0.852742,-1.957944 1.193522,-2.217457 0.133178,-0.101419 0.271889,-0.777825 0.354133,-1.726882 0.115377,-1.331382 0.09774,-1.574536 -0.120279,-1.658198 -0.446926,-0.171502 -2.070599,-0.101949 -2.787995,0.119428 -0.65386,0.201774 -0.75613,0.183683 -1.833941,-0.324416 -0.627805,-0.295965 -1.269333,-0.649392 -1.425624,-0.785405 -0.229405,-0.199644 -0.387832,-0.211157 -0.822187,-0.05974 -0.295921,0.103159 -0.787,0.140853 -1.091296,0.08376 -0.356199,-0.06682 -0.55326,-0.038 -0.55326,0.081 0,0.101639 -0.266097,0.479333 -0.591319,0.839313 -0.572334,0.633513 -0.619159,0.651831 -1.458813,0.570778 -0.838104,-0.0809 -0.880215,-0.06458 -1.242628,0.481652 -0.206317,0.310968 -0.375122,0.80315 -0.375122,1.093747 0,0.437574 0.07877,0.547954 0.458488,0.642455 0.252165,0.06276 0.77441,0.345531 1.160547,0.628383 l 0.702065,0.514281 0.0065,1.135216 c 0.0065,1.133905 0.005,1.136728 -0.993834,2.449306 -0.550185,0.722753 -1.075354,1.360462 -1.16705,1.41713 -0.346546,0.214181 -0.145466,0.416805 0.413629,0.416805 0.497355,0 0.594868,0.06556 0.681863,0.458483 0.322709,1.457558 0.833429,2.601464 1.466406,3.284455 0.512989,0.553524 1.813601,1.588436 1.998884,1.590541 0.07846,6.3e-4 0.365563,-0.185945 0.638,-0.415186 z m 55.33093,-9.378103 c 0.291208,-0.484097 0.384089,-0.915849 0.411531,-1.912972 0.03258,-1.18436 0.0908,-1.37941 0.724944,-2.428941 0.48099,-0.796062 0.89092,-1.254367 1.35551,-1.515487 0.36631,-0.205876 0.66602,-0.476296 0.66602,-0.600929 0,-0.518168 1.38038,-2.768587 1.84587,-3.009303 0.59494,-0.307654 0.82167,-0.717352 0.82167,-1.484723 0,-0.840259 -1.75234,-2.952182 -2.60026,-3.133842 -0.31641,-0.06778 -0.95899,-0.38165 -1.42797,-0.697478 -0.74037,-0.498596 -0.88417,-0.542749 -1.09168,-0.335235 -0.369492,0.369489 -0.584827,0.278108 -1.215517,-0.515836 -0.320937,-0.404014 -0.771089,-0.778746 -1.00033,-0.832741 -0.229241,-0.054 -0.829597,-0.193475 -1.334123,-0.309961 -0.70117,-0.161887 -1.408314,-0.56067 -3.000991,-1.692351 -1.146023,-0.814304 -2.421285,-1.793059 -2.833919,-2.174999 -0.412641,-0.381947 -1.550226,-1.262023 -2.527972,-1.955727 l -1.777722,-1.261273 -0.894506,0.09232 c -0.777196,0.08022 -1.112531,0.005 -2.55704,-0.573594 -0.9144,-0.366256 -2.150203,-0.837933 -2.74623,-1.048176 -1.49611,-0.527734 -1.912897,-0.858129 -2.411146,-1.91134 -0.310629,-0.656627 -0.548843,-0.940267 -0.853996,-1.016853 -0.521249,-0.130827 -2.704188,-1.550125 -3.137805,-2.040132 -0.174685,-0.197401 -0.402628,-0.358909 -0.506542,-0.358909 -0.103915,0 -0.473776,-0.340762 -0.821916,-0.75724 -0.348134,-0.416484 -0.926707,-0.951627 -1.285717,-1.189211 -0.430927,-0.285172 -0.652739,-0.556776 -0.652739,-0.79925 0,-0.202013 -0.249619,-0.698461 -0.554696,-1.103218 -0.305084,-0.404764 -0.753799,-1.1860802 -0.997142,-1.7362589 l -0.442439,-1.0003304 -0.0032,6.7073753 -0.0032,6.707375 0.458482,0.112825 c 0.882831,0.217256 1.95412,0.751297 2.648479,1.320266 0.385218,0.315657 0.86457,0.573921 1.065228,0.573921 0.225933,0 0.823195,0.44445 1.568771,1.167391 0.869692,0.843289 1.431761,1.242974 2.024568,1.439644 0.995459,0.330257 1.502033,0.763849 1.74203,1.49105 0.141206,0.427845 0.599367,0.843661 2.09099,1.897723 1.050596,0.7424 2.09709,1.420885 2.32555,1.507749 0.268781,0.102188 0.871116,0.862546 1.706768,2.154538 0.847102,1.309705 1.434786,2.049628 1.708193,2.150707 0.706734,0.26129 3.290221,2.807095 3.503041,3.45195 0.152976,0.463511 0.36751,0.663924 1.062801,0.992851 0.638378,0.302002 0.946555,0.570267 1.153395,1.004004 0.340554,0.714151 0.693149,0.881255 1.094012,0.518477 0.164275,-0.148666 0.423592,-0.2703 0.57626,-0.2703 0.32112,0 2.272801,1.696333 4.197651,3.648455 0.733578,0.743969 1.382636,1.352788 1.442348,1.352932 0.05974,1.45e-4 0.277817,-0.281075 0.48467,-0.624943 z M 37.228167,40.516786 c 0.114475,-0.276362 0.346363,-0.546354 0.515313,-0.599978 0.311429,-0.09884 1.216755,0.277874 1.406808,0.58539 0.05709,0.09235 0.544048,0.167905 1.082159,0.167905 0.853372,0 1.021667,-0.05501 1.317065,-0.430555 0.186273,-0.236803 0.380832,-0.56338 0.432357,-0.725727 0.07638,-0.240646 0.355444,-0.313647 1.510685,-0.395173 1.372113,-0.09683 1.440262,-0.08431 2.151079,0.395419 0.403737,0.272481 1.013929,0.612354 1.355976,0.755267 0.569498,0.237956 0.684591,0.235914 1.365698,-0.0242 0.560582,-0.214087 1.001799,-0.257616 1.791295,-0.176732 l 1.047508,0.107323 0.350566,-1.154145 c 0.192807,-0.63478 0.35056,-1.207196 0.35056,-1.272036 0,-0.332563 1.579237,-3.41486 1.74963,-3.41486 0.109353,0 0.634956,0.150046 1.167995,0.333439 0.760623,0.261693 1.403027,0.333408 2.985415,0.333263 l 2.016238,-1.77e-4 2.417466,-3.197144 c 1.329605,-1.758433 3.185613,-4.215415 4.124455,-5.459958 l 1.706983,-2.262814 0.0019,-8.12182 0.0019,-8.1218204 -0.375122,-0.1971297 C 66.982677,7.2624419 65.444569,5.8201828 65.347239,5.4323942 65.282046,5.1726398 65.066504,4.9895991 64.70423,4.8863304 64.22961,4.7510402 64.152602,4.6509877 64.107535,4.1110751 l -0.05173,-0.6199169 h -3.34767 c -2.982887,0 -3.370682,0.031475 -3.55887,0.2888299 -0.188673,0.2580317 -0.295247,0.2663494 -0.999454,0.078002 C 55.716263,3.742035 55.345173,3.66833 55.325167,3.6942019 c -0.02004,0.025873 -0.33649,0.5722123 -0.703288,1.2140912 -1.055307,1.8467308 -2.01018,4.0814281 -2.205129,5.1606569 -0.207521,1.14884 -0.407209,1.439972 -0.743698,1.084264 C 51.319808,10.779793 50.405509,8.9467842 50.405106,8.6112088 50.40491,8.4470852 50.253767,8.0168581 50.069234,7.6551512 49.884707,7.293438 49.677628,6.7149855 49.609063,6.3696998 49.499351,5.8172149 49.374598,5.6881644 48.569116,5.2939523 47.579278,4.80951 46.136243,4.49319 45.484482,4.6177824 c -0.318033,0.060795 -0.427625,0.2100171 -0.502579,0.6842954 -0.05274,0.3336006 -0.242108,0.9274056 -0.420857,1.3195729 -0.41208,0.9040593 -0.410158,1.6572215 0.0079,3.1221023 0.416793,1.460287 0.759243,1.925045 1.592905,2.16181 l 0.65834,0.186972 v 1.017218 c 0,0.903927 0.04972,1.056557 0.446415,1.370456 0.245524,0.194282 0.532686,0.614654 0.638132,0.934161 0.105446,0.319507 0.242172,0.586896 0.303836,0.594193 0.06169,0.0073 0.574798,0.02609 1.140301,0.04171 0.757964,0.02092 1.155185,0.122327 1.51141,0.385778 0.47462,0.351007 0.490442,0.351813 0.889106,0.04537 0.462641,-0.355601 1.629748,-0.430208 1.736397,-0.110997 0.03831,0.11462 0.147778,1.622564 0.243293,3.350977 l 0.173664,3.142569 -0.623645,0.898458 c -0.576008,0.829817 -0.674163,0.898608 -1.284809,0.90043 -0.56171,0.0019 -0.779804,0.118829 -1.449878,0.778827 L 49.755699,26.21854 49.203523,25.797374 48.651341,25.376208 48.1964,25.872744 c -0.524665,0.572624 -0.958414,0.545516 -1.981952,-0.123852 -0.335166,-0.219191 -0.747662,-0.359023 -0.923474,-0.313048 -0.480575,0.125673 -2.922647,-0.580438 -3.33169,-0.963342 -0.197678,-0.185044 -0.62529,-0.88881 -0.950247,-1.563925 -0.414695,-0.861551 -0.736521,-1.302824 -1.079538,-1.480205 -0.86847,-0.4491 -1.362038,-1.197108 -1.362038,-2.064172 0,-1.354533 -0.416862,-2.127096 -1.504112,-2.787573 -1.539665,-0.935295 -1.730594,-0.743842 -1.089147,1.092115 0.325606,0.931968 0.425879,1.547333 0.425879,2.61367 0,1.835057 -0.344089,2.56435 -1.400179,2.96767 -0.72366,0.276369 -0.761253,0.274062 -1.493514,-0.09165 -0.413144,-0.206336 -1.300279,-0.862439 -1.97141,-1.458012 -1.293978,-1.148285 -2.613034,-2.071967 -2.796735,-1.958436 -0.06081,0.03762 -0.214742,0.567494 -0.342054,1.177573 l -0.231478,1.109236 -3.509833,1.749989 c -1.930414,0.962497 -3.644795,1.91197 -3.809737,2.109951 -0.726445,0.871916 -1.587851,2.069439 -1.84122,2.559648 -0.306854,0.593677 -0.168868,1.262439 0.297403,1.441358 0.146215,0.05608 0.454373,0.536726 0.684793,1.068026 l 0.418948,0.966007 2.471399,0.396131 c 2.382286,0.381852 2.597021,0.389225 5.955164,0.204584 1.916072,-0.105358 4.138803,-0.191307 4.939408,-0.191005 1.454068,5.48e-4 1.455738,0.0013 1.548789,0.459031 0.05123,0.252165 0.202706,0.670886 0.336615,0.93048 0.319198,0.618794 0.307812,0.832313 -0.0855,1.603257 -0.281838,0.552447 -0.431128,0.661762 -1.042014,0.762967 -1.788666,0.296338 -1.769075,0.790252 0.135888,3.425573 l 1.432454,1.981656 0.461362,-0.238579 c 0.253753,-0.131218 0.555024,-0.464702 0.6695,-0.741064 z M 47.670552,25.70427 c 0.10089,-0.06737 0.272336,-0.29129 0.380989,-0.497607 0.247949,-0.470839 0.677591,-0.477493 1.259811,-0.01953 l 0.45208,0.355601 0.702084,-0.689046 c 0.558623,-0.548251 0.823926,-0.689047 1.298313,-0.689047 0.509667,0 0.664868,-0.09906 1.06909,-0.682354 0.468879,-0.676589 0.472546,-0.701605 0.433743,-2.959315 -0.02155,-1.252326 -0.08258,-2.595812 -0.135686,-2.985522 -0.08681,-0.637105 -0.142478,-0.708568 -0.551949,-0.708568 -0.250464,0 -0.591187,0.150047 -0.757157,0.333446 -0.400599,0.442659 -0.519069,0.424575 -1.213585,-0.18522 -0.558093,-0.490014 -0.643545,-0.512686 -1.547094,-0.41046 -0.898558,0.101658 -0.977564,0.08126 -1.306908,-0.337428 -0.192794,-0.245106 -0.350534,-0.541393 -0.350534,-0.658421 0,-0.117027 -0.215561,-0.394152 -0.479018,-0.615838 -0.761083,-0.640413 -0.902591,-1.023298 -0.624333,-1.689276 0.270754,-0.648006 0.114659,-0.938294 -0.504557,-0.938294 -0.939995,0 -1.833109,-1.785428 -2.013131,-4.0244857 C 43.70955,7.3930677 43.75454,7.081475 44.035367,6.5523302 44.223278,6.1982794 44.417269,5.617019 44.466457,5.2606386 l 0.08944,-0.6479634 -2.441557,0.082888 -2.441562,0.082888 -0.661642,-0.7270181 C 38.636133,3.6393839 38.19808,3.3233085 38.000005,3.3218617 37.51253,3.3182717 37.282306,3.1404752 37.081553,2.6124538 36.812576,1.9049848 36.273986,2.0028502 36.145351,2.7825692 c -0.05671,0.3438635 -0.19142,0.9251245 -0.299318,1.291691 -0.192504,0.6540201 -0.227306,0.677868 -1.861036,1.2751804 L 32.320133,5.958137 32.06597,6.9897534 c -0.247477,1.0044767 -0.27715,1.0425428 -1.127724,1.4468024 -0.779224,0.3703523 -0.873561,0.4715636 -0.873561,0.9372482 0,0.3739188 -0.169423,0.695562 -0.597054,1.133502 l -0.597054,0.61144 0.763774,0.859969 c 0.420076,0.472981 0.76378,0.93905 0.76378,1.035706 0,0.09666 -0.337617,1.471516 -0.750251,3.055246 -0.412634,1.583729 -0.750245,2.920486 -0.750245,2.970569 0,0.05009 0.34325,0.292222 0.762791,0.538086 0.419533,0.245864 1.26356,0.901274 1.875618,1.456469 1.219143,1.105877 2.23977,1.808515 2.669877,1.838043 1.185595,0.08139 1.697758,-0.730415 1.686705,-2.673494 -0.0044,-0.733799 -0.116725,-1.572929 -0.261989,-1.953326 -0.517493,-1.355106 -0.618781,-1.915196 -0.423749,-2.343243 0.274648,-0.602789 0.946322,-0.525018 2.134683,0.247162 0.815835,0.530121 1.076173,0.813843 1.366927,1.489726 0.197539,0.459188 0.359161,1.142873 0.359161,1.519299 0,0.808847 0.484318,1.555166 1.202174,1.852511 0.370119,0.153311 0.648151,0.526442 1.150912,1.544567 0.3646,0.738336 0.737605,1.432436 0.828904,1.542438 0.2334,0.281233 2.663916,0.911179 3.085946,0.799823 0.224137,-0.05917 0.639108,0.09161 1.158014,0.420693 0.878558,0.557167 0.906031,0.566159 1.176943,0.385268 z m 34.473399,241.11136 c -0.504223,-0.25086 -1.562576,-1.52724 -1.562576,-1.88447 0,-0.0964 0.150047,-0.25559 0.33344,-0.35373 0.220079,-0.11779 0.333445,-0.34909 0.333445,-0.68034 0,-0.3364 0.151168,-0.63782 0.458482,-0.91419 0.252166,-0.22676 0.721076,-0.66642 1.042014,-0.977 0.320937,-0.31059 0.800554,-0.67328 1.065813,-0.80597 0.303559,-0.15187 0.411683,-0.28492 0.291763,-0.35903 -0.266633,-0.16479 -0.237439,-0.80593 0.05425,-1.19158 0.134634,-0.178 0.247168,-0.44948 0.250086,-0.6033 0.0032,-0.15381 0.192864,-0.42719 0.422105,-0.60752 0.229241,-0.18031 0.416805,-0.40165 0.416805,-0.49184 0,-0.0902 0.116139,-0.26039 0.258088,-0.3782 0.212014,-0.17595 0.36068,-0.16527 0.832672,0.0598 0.447625,0.21346 0.662701,0.23385 0.973424,0.0923 0.526177,-0.23974 1.332743,0.12839 1.406059,0.64175 0.05614,0.39299 0.105433,0.39385 1.781489,0.0309 0.567501,-0.12287 0.708202,-0.0951 0.944079,0.18609 0.305625,0.36439 0.56176,1.55164 0.393478,1.82392 -0.05873,0.0951 -0.304674,0.17284 -0.546493,0.17284 h -0.439666 l 0.548282,0.56569 c 0.470681,0.48561 0.521678,0.6154 0.360283,0.91696 -0.159486,0.29801 -0.341499,0.35129 -1.200082,0.35129 -0.844688,0 -1.096627,0.0711 -1.5233,0.43017 -0.444966,0.37441 -0.637143,0.42303 -1.48277,0.37512 -0.912094,-0.0517 -0.950361,-0.0391 -0.625322,0.20548 0.736615,0.55429 0.09744,2.0142 -0.671585,1.53394 -0.229664,-0.14343 -0.359256,-0.15044 -0.4376,-0.0237 -0.06238,0.10094 -0.322273,0.13791 -0.591257,0.0841 -0.42051,-0.0841 -0.479944,-0.0472 -0.479944,0.29818 0,0.2168 -0.13222,0.55745 -0.293823,0.75702 -0.247811,0.30604 -0.363667,0.33629 -0.739949,0.19323 -0.410491,-0.15607 -0.450284,-0.13375 -0.498104,0.2794 -0.06257,0.54062 -0.375318,0.62003 -1.07359,0.27262 z m 0.529599,-1.8476 c 0.130349,-0.05 0.481942,0.11577 0.78131,0.36842 0.52704,0.44481 0.545963,0.44826 0.596455,0.10886 0.02867,-0.19279 -0.0276,-0.49951 -0.125036,-0.68161 -0.509882,-0.95271 0.0704,-1.33986 0.989637,-0.66025 0.402609,0.29767 0.530594,0.32301 0.742607,0.14705 0.140897,-0.11692 0.406617,-0.17325 0.590501,-0.12517 0.574054,0.15012 0.36637,-0.17214 -0.374234,-0.58068 -0.538124,-0.29684 -0.708568,-0.49035 -0.708568,-0.80442 0,-0.4662 0.155926,-0.48239 2.028059,-0.21054 0.977829,0.14198 1.058195,0.12651 1.655237,-0.31865 0.493051,-0.36764 0.807334,-0.46789 1.466796,-0.46789 h 0.839295 l -0.552271,-0.46105 c -0.746823,-0.62348 -0.692317,-1.26484 0.114079,-1.34235 0.478539,-0.046 0.535358,-0.0998 0.439748,-0.4168 -0.161949,-0.53687 -0.2549,-0.57473 -1.015705,-0.41374 l -0.693294,0.1467 0.0264,0.78514 c 0.02457,0.73095 -0.0019,0.78513 -0.385469,0.78513 -0.262575,0 -0.480807,-0.13824 -0.602019,-0.38137 -0.10457,-0.20976 -0.350617,-0.5522 -0.54677,-0.76099 -0.416314,-0.44315 -0.461261,-0.86583 -0.106548,-1.00195 0.137544,-0.0528 0.250086,-0.17335 0.250086,-0.26792 0,-0.23035 -0.552674,-0.21948 -0.787637,0.0155 -0.136726,0.13673 -0.327913,0.13847 -0.706659,0.006 -0.442231,-0.15416 -0.567727,-0.13251 -0.846245,0.14601 -0.179857,0.17986 -0.402035,0.32701 -0.493731,0.32701 -0.0917,0 -0.16672,0.11518 -0.16672,0.25595 0,0.14077 -0.12106,0.4407 -0.269015,0.66652 -0.255448,0.38985 -0.24914,0.42687 0.125043,0.73393 0.320263,0.26282 0.359577,0.37973 0.209953,0.62432 -0.101256,0.16553 -0.417328,0.36785 -0.702393,0.4496 -0.285058,0.0817 -0.820302,0.47087 -1.189426,0.8647 -0.36913,0.39383 -0.82206,0.76396 -1.006512,0.8225 -0.254276,0.0807 -0.335367,0.25171 -0.335367,0.70729 0,0.33045 -0.108893,0.72116 -0.241983,0.86823 -0.213758,0.23619 -0.189448,0.33478 0.208403,0.84514 l 0.450385,0.57777 0.0523,-0.63293 c 0.02917,-0.35319 0.157047,-0.67313 0.289299,-0.72387 z m 6.077189,-5.7257 c 0,-0.0917 -0.07945,-0.16672 -0.176563,-0.16672 -0.09711,0 -0.130191,0.075 -0.07352,0.16672 0.05665,0.0917 0.136127,0.16672 0.176562,0.16672 0.04046,0 0.07352,-0.075 0.07352,-0.16672 z m -13.13392,6.57605 c -0.203797,-0.14274 -0.370542,-0.35619 -0.370542,-0.47432 0,-0.11814 -0.150052,-0.35059 -0.333445,-0.51655 -0.367492,-0.33258 -0.43075,-0.92379 -0.154149,-1.44063 0.149209,-0.2788 0.285052,-0.31715 0.809584,-0.22852 0.597344,0.10091 0.644931,0.0756 0.910367,-0.48374 0.154042,-0.32462 0.615006,-0.82065 1.024357,-1.10229 0.409351,-0.28165 0.743761,-0.56475 0.743137,-0.62911 -6.24e-4,-0.0644 -0.276557,-0.3046 -0.613179,-0.53384 -0.336621,-0.22924 -0.711233,-0.51595 -0.83247,-0.63711 -0.361278,-0.36109 -0.24616,-1.69699 0.146234,-1.69699 0.09035,0 0.355028,0.15004 0.588176,0.33344 0.51658,0.40634 1.468472,0.44234 1.680454,0.0636 0.119302,-0.21319 0.304913,-0.2473 0.883574,-0.16236 0.693382,0.10177 1.152803,0.125 1.887174,0.0954 0.176569,-0.007 0.404581,-0.1272 0.5067,-0.26686 0.207615,-0.28392 0.797656,-0.19797 1.324475,0.19295 0.309016,0.22931 0.303301,0.26415 -0.1966,1.19874 -0.284428,0.53175 -0.723206,1.07938 -0.980349,1.22355 -0.256015,0.14355 -0.922875,0.8938 -1.481913,1.66723 -0.825092,1.14151 -1.108455,1.41649 -1.505298,1.46074 -0.268876,0.03 -0.560141,0.12375 -0.647256,0.20839 -0.08711,0.0847 -0.274673,0.1541 -0.416805,0.15435 -0.142126,2.5e-4 -0.408463,0.28159 -0.591862,0.62521 -0.224402,0.42046 -0.469736,0.64363 -0.750245,0.68247 -0.229241,0.0318 -0.4768,0.16304 -0.550128,0.29177 -0.17517,0.30749 -0.619568,0.297 -1.079991,-0.0255 z m 0.796508,-0.65743 c 0.114155,-0.13754 0.372029,-0.25009 0.573065,-0.25009 0.251384,0 0.449743,-0.17663 0.635291,-0.56573 0.284327,-0.59624 1.079241,-1.10148 1.733,-1.10148 0.295834,0 0.659154,-0.36027 1.513225,-1.5005 0.665026,-0.88785 1.242817,-1.50049 1.415132,-1.50049 0.176915,0 0.423157,-0.2731 0.627395,-0.69583 0.341901,-0.70765 0.352696,-1.12082 0.01266,-0.48551 -0.218176,0.40768 -0.550657,0.44779 -0.838343,0.10115 -0.152075,-0.18324 -0.285921,-0.20308 -0.521035,-0.0773 -0.224988,0.12041 -0.520046,0.10048 -1.021345,-0.069 -0.654207,-0.22114 -0.720856,-0.21559 -0.925963,0.0772 -0.165548,0.23635 -0.425413,0.31555 -1.035334,0.31555 -0.447877,0 -0.860688,-0.075 -0.917355,-0.16672 -0.132819,-0.21491 -0.416806,-0.21607 -0.416806,-0.002 0,0.0907 0.412634,0.43899 0.916971,0.77385 0.550298,0.36538 0.916971,0.72967 0.916971,0.91103 0,0.1669 -0.35458,0.56532 -0.791934,0.88986 -0.972397,0.72159 -0.962769,0.71198 -1.43219,1.42828 -0.328398,0.5011 -0.46915,0.58084 -0.996449,0.56451 -0.714245,-0.0221 -0.836541,0.34949 -0.280584,0.85263 0.183393,0.16597 0.333439,0.40267 0.333439,0.526 0,0.29729 0.24238,0.28477 0.500166,-0.0258 z"
       id="path1" /><path
       style="fill:#6e0001;fill-opacity:1;stroke:#6e0001;stroke-width:2.99339;stroke-dasharray:none;stroke-opacity:1"
       d="m 255.94234,400.11562 c 5.77358,-9.41354 12.16434,-19.23366 14.20169,-21.82248 3.77013,-4.79067 5.11962,-12.99603 2.41253,-14.6691 -0.71045,-0.43909 -1.29173,-1.9096 -1.29173,-3.26781 0,-1.35821 -1.82498,-5.0586 -4.05551,-8.22307 -4.95122,-7.02435 -6.33968,-16.58947 -3.34345,-23.03301 1.08136,-2.32553 3.26161,-9.90198 4.84499,-16.83657 l 2.87887,-12.60835 -3.39567,-5.1312 -3.39567,-5.13121 6.1621,-38.45102 6.16211,-38.45102 32.91682,0.34795 c 36.30791,0.38379 45.79182,1.0722 42.23018,3.0654 -1.55534,0.87041 -2.2088,2.89654 -2.2088,6.84867 0,7.82823 -4.63455,22.0552 -8.10367,24.87635 -1.58185,1.28639 -3.64694,3.31989 -4.58909,4.51888 -2.75814,3.51006 -4.99523,17.39995 -5.23582,32.50876 l -0.22355,14.03783 -7.95818,11.15104 c -4.37699,6.13308 -9.35975,13.07632 -11.07279,15.42943 -1.71304,2.35311 -4.52113,4.81313 -6.2402,5.46672 -4.338,1.6493 -5.62272,5.937 -6.52996,21.79352 -0.7174,12.5385 -0.53516,14.21165 2.12465,19.50636 1.60014,3.1853 4.0342,7.02117 5.409,8.52413 2.41111,2.63587 2.41968,2.90038 0.24215,7.46671 -1.59629,3.34744 -2.84406,4.50118 -4.26009,3.93905 -1.10143,-0.43724 -3.74644,-1.07034 -5.87781,-1.40687 -3.61397,-0.57064 -4.60036,0.30756 -14.63202,13.02727 l -10.75682,13.63916 h -13.45584 -13.45584 z"
       id="path3"
       transform="scale(0.26458333)" /></g></svg>
